<?xml version="1.0" encoding="UTF-8" standalone="no"?>
<svg
   id="svg8"
   version="1.1"
   viewBox="0 0 476.24999 132.29167"
   height="500"
   width="1800"
   xmlns="http://www.w3.org/2000/svg"
   xmlns:svg="http://www.w3.org/2000/svg"
   xmlns:rdf="http://www.w3.org/1999/02/22-rdf-syntax-ns#"
   xmlns:cc="http://creativecommons.org/ns#"
   xmlns:dc="http://purl.org/dc/elements/1.1/">
  <defs
     id="defs2" />
  <metadata
     id="metadata5">
    <rdf:RDF>
      <cc:Work
         rdf:about="">
        <dc:format>image/svg+xml</dc:format>
        <dc:type
           rdf:resource="http://purl.org/dc/dcmitype/StillImage" />
      </cc:Work>
    </rdf:RDF>
  </metadata>
  <g
     transform="translate(0,-164.70833)"
     id="layer1">
    <path
       id="path1783"
       d="m 214.31411,214.97936 v 23.81199 c 0,0 0,10.58305 10.58306,10.58305 h 15.87451 c 10.58298,0 10.58298,-10.58305 10.58298,-10.58305 v -23.81199 c 0,0 0,-2.64555 -2.64566,-2.64555 h -10.58325 v 7.93741 c 0,5.29134 -7.93706,5.29134 -7.93706,0 v -2.64609 7.93743 c 0,5.29151 -7.93724,5.29151 -7.93724,0 l -0.0857,-13.22875 h -5.20751 c -2.64559,0 -2.64559,2.64555 -2.64559,2.64555 z m 37.04055,5.29186 h 5.29136 c 5.29139,0 5.29139,5.29134 5.29139,5.29134 v 7.93712 c 0,0 0,5.29167 -5.29139,5.29167 h -5.29136"
       style="fill:none;stroke:#363f4f;stroke-width:5"
       stroke-linecap="round"
       stroke-linejoin="round" />
  </g>
</svg>
