<?xml version="1.0" encoding="UTF-8" standalone="no"?>
<svg
   xmlns:dc="http://purl.org/dc/elements/1.1/"
   xmlns:cc="http://creativecommons.org/ns#"
   xmlns:rdf="http://www.w3.org/1999/02/22-rdf-syntax-ns#"
   xmlns:svg="http://www.w3.org/2000/svg"
   xmlns="http://www.w3.org/2000/svg"
   id="svg8"
   version="1.1"
   viewBox="0 0 476.24999 132.29167"
   height="500"
   width="1800">
  <defs
     id="defs2" />
  <metadata
     id="metadata5">
    <rdf:RDF>
      <cc:Work
         rdf:about="">
        <dc:format>image/svg+xml</dc:format>
        <dc:type
           rdf:resource="http://purl.org/dc/dcmitype/StillImage" />
        <dc:title></dc:title>
      </cc:Work>
    </rdf:RDF>
  </metadata>
  <g
     transform="translate(0,-164.70833)"
     id="layer1">
    <path
       id="path817"
       d="m 0,172.64583 c 0,-7.9375 7.9375,-7.9375 7.9375,-7.9375 h 460.375 c 0,0 7.9375,0 7.9375,7.9375 V 289.0625 C 476.25,297 468.3125,297 468.3125,297 H 7.9375 C 7.9375,297 0,297 0,289.0625 Z"
       style="fill:#f5f5f5" />
    <path
       id="path1783"
       d="m 220.92709,212.33333 c -2.64584,0 -2.64584,2.64584 -2.64584,2.64584 V 233.5 c 0,7.9375 7.9375,7.9375 7.9375,7.9375 h 15.875 c 0,0 7.9375,0 7.9375,-7.9375 h 5.29166 c 2.64583,0 2.64583,-2.64583 2.64583,-2.64583 V 217.625 c 0,-2.64583 -2.64583,-2.64583 -2.64583,-2.64583 h -5.29166 c 0,0 0,-2.64584 -2.64583,-2.64584 h -13.22917 v 3.96875 c 0,0 0,2.64584 -2.64583,2.64584 -2.64584,0 -2.64584,-2.64584 -2.64584,-2.64584 v 5.29167 c 0,0 0,2.64584 -2.64583,2.64584 -2.64584,0 -2.64584,-2.64584 -2.64584,-2.64584 v -9.26042 z m 29.10416,6.61459 h 2.64583 c 1.32292,0 1.32292,1.32292 1.32292,1.32292 v 7.93749 c 0,1.32292 -1.32292,1.32292 -1.32292,1.32292 h -2.64583 z m -34.39583,25.13541 c 0,0 -1.32292,0 -1.32292,1.32292 0,3.96875 3.96875,3.96875 3.96875,3.96875 h 39.68749 c 0,0 3.96876,0 3.96876,-3.96875 0,-1.32292 -1.32292,-1.32292 -1.32292,-1.32292 z"
       style="fill:#2e2e38;stroke-width:1.05833328" />
  </g>
</svg>
