<?xml version="1.0" encoding="UTF-8" standalone="no"?>
<svg xmlns:rdf="http://www.w3.org/1999/02/22-rdf-syntax-ns#" xmlns="http://www.w3.org/2000/svg" height="200" width="400" version="1.1" xmlns:cc="http://creativecommons.org/ns#" xmlns:dc="http://purl.org/dc/elements/1.1/" viewBox="0 0 400 200">
<g transform="matrix(-1 0 0 1 399.06 0)">
<path style="fill:#fbe06f;fill-rule:evenodd" d="m135.62 65c7.6096-0.24832 13.365 7.2984 12.321 14.569-0.0214 24.581 0.043 49.163-0.0323 73.744-0.33719 15.216-14.773 27.916-29.874 26.688-19.572-0.0464-39.148 0.093-58.718-0.0703-14.899-0.54992-27.451-14.569-26.376-29.461 1.0682-4.6027-5.1865-5.2196-7.6539-8.0017-11.612-8.32-23.869-19.27-25.127-34.43-1.2554-11.602 5.0976-24.505 16.922-27.681 7.476-1.819 12.546-1.568 15.852-1.542 0.204-7.366 6.277-13.824 14.194-13.819 29.495 0 58.995 0.001 88.485 0zm-109.82 30.576c-7.2125-1.0514-10.675 6.8946-9.0299 12.911 2.1678 8.4588 9.5911 14.08 16.166 19.192v-30.339c-2.256-0.976-4.67-1.664-7.136-1.765z"/>
<path style="fill:#f9d160;fill-rule:evenodd" d="m46.197 65.043c-7.4552 0.48041-13.068 6.6984-13.264 13.771-3.306-0.026-8.3756-0.27603-15.852 1.543-11.824 3.176-18.177 16.078-16.922 27.68 1.258 15.16 13.515 26.112 25.127 34.432 2.4674 2.7821 8.7225 3.3973 7.6543 8-1.075 14.892 11.476 28.913 26.375 29.463 19.57 0.1633 39.147 0.0239 58.719 0.0703 3.0284 0.24627 6.028-0.0754 8.8945-0.85742-90.128 0.2-82.777-30.82-80.733-114.1zm-21.705 30.439c0.42115-0.0019 0.85781 0.02804 1.3086 0.09375v-0.002c2.466 0.101 4.8788 0.78962 7.1348 1.7656v30.34c-6.5749-5.112-13.998-10.735-16.166-19.193-1.5423-5.6404 1.4054-12.975 7.7227-13.004z"/>
</g>
<g transform="translate(.99678)">
<path style="fill:#fbe06f;fill-rule:evenodd" d="m135.62 65c7.6096-0.24832 13.365 7.2984 12.321 14.569-0.0214 24.581 0.043 49.163-0.0323 73.744-0.33719 15.216-14.773 27.916-29.874 26.688-19.572-0.0464-39.148 0.093-58.718-0.0703-14.899-0.54992-27.451-14.569-26.376-29.461 1.0682-4.6027-5.1865-5.2196-7.6539-8.0017-11.612-8.32-23.869-19.27-25.127-34.43-1.2554-11.602 5.0976-24.505 16.922-27.681 7.476-1.819 12.546-1.568 15.852-1.542 0.204-7.366 6.277-13.824 14.194-13.819 29.495 0 58.995 0.001 88.485 0zm-109.82 30.576c-7.2125-1.0514-10.675 6.8946-9.0299 12.911 2.1678 8.4588 9.5911 14.08 16.166 19.192v-30.339c-2.256-0.976-4.67-1.664-7.136-1.765z"/>
<path style="fill:#f9d160;fill-rule:evenodd" d="m46.197 65.043c-7.4552 0.48041-13.068 6.6984-13.264 13.771-3.306-0.026-8.3756-0.27603-15.852 1.543-11.824 3.176-18.177 16.078-16.922 27.68 1.258 15.16 13.515 26.112 25.127 34.432 2.4674 2.7821 8.7225 3.3973 7.6543 8-1.075 14.892 11.476 28.913 26.375 29.463 19.57 0.1633 39.147 0.0239 58.719 0.0703 3.0284 0.24627 6.028-0.0754 8.8945-0.85742-90.128 0.2-82.777-30.82-80.733-114.1zm-21.705 30.439c0.42115-0.0019 0.85781 0.02804 1.3086 0.09375v-0.002c2.466 0.101 4.8788 0.78962 7.1348 1.7656v30.34c-6.5749-5.112-13.998-10.735-16.166-19.193-1.5423-5.6404 1.4054-12.975 7.7227-13.004z"/>
</g>
<path style="fill:#565773;fill-rule:evenodd" d="m76.905 107.06c-6.614 0-11.828 5.6885-11.828 12.371-0.069 4.5342 6.7624 4.5342 6.6934 0 0-3.2823 2.3749-5.6777 5.1348-5.6777s5.1348 2.3953 5.1348 5.6777c-0.069 4.5342 6.7624 4.5342 6.6934 0 0-6.683-5.2144-12.371-11.828-12.371z"/>
<path style="fill:#565773;fill-rule:evenodd" d="m116.91 107.06c-6.614 0-11.828 5.6885-11.828 12.371-0.069 4.5342 6.7624 4.5342 6.6934 0 0-3.2823 2.3749-5.6777 5.1348-5.6777s5.1348 2.3953 5.1348 5.6777c-0.069 4.5342 6.7624 4.5342 6.6934 0 0-6.683-5.2144-12.371-11.828-12.371z"/>
<path style="fill:#565773;fill-rule:evenodd" d="m88.156 130.72c-1.6954 0-3.0762 1.3809-3.0762 3.0762 0 4.4356 2.1302 8.6034 5.7969 10.939 3.6766 2.3361 8.3877 2.3361 12.064 0 3.6668-2.3361 5.7969-6.504 5.7969-10.939 0-1.6954-1.3809-3.0762-3.0762-3.0762z"/>
<circle style="fill:#565773;fill-rule:evenodd" cx="278.5" r="7.5" cy="115.46"/>
<circle cy="115.46" cx="314.5" r="7.5" style="fill:#565773;fill-rule:evenodd"/>
<path style="stroke-linejoin:round;stroke:#565773;stroke-linecap:round;fill:none;stroke-width:5.5215" d="m305.01 134.8a12.031 14.38 0 0 1 -9.2165 5.1368 12.031 14.38 0 0 1 -9.2165 -5.1368"/>
<g transform="translate(-.0000045645 11.5)">
<path style="stroke-linejoin:round;stroke:#879aab;stroke-linecap:round;fill:none;stroke-width:3" d="m193 60h14"/>
<path style="stroke-linejoin:round;stroke:#879aab;stroke-linecap:round;fill:none;stroke-width:3" d="m193 65h14"/>
<path style="stroke-linejoin:round;stroke:#879aab;stroke-linecap:round;fill:none;stroke-width:3" d="m193 70h14"/>
<path style="color-rendering:auto;text-decoration-color:#000000;color:#000000;isolation:auto;mix-blend-mode:normal;fill-rule:evenodd;shape-rendering:auto;solid-color:#000000;block-progression:tb;text-decoration-line:none;image-rendering:auto;white-space:normal;text-indent:0;text-transform:none;text-decoration-style:solid;fill:#f9d160" d="m200 28.931c-6.5147 0-12.322 4.0777-14.303 10.128-1.9814 6.0499 0.36421 12.665 5.7216 16.276 0.73 0.495 2.24 0.665 2.24 0.665h12.675s1.5104-0.17179 2.2425-0.66482c5.3574-3.6115 7.7029-10.226 5.7216-16.276-1.9814-6.0499-7.7881-10.128-14.303-10.128z"/>
<path style="opacity:.568;stroke-linejoin:round;stroke:#ffffff;stroke-linecap:round;stroke-width:3;fill:none" d="m190 42.5c0.0469-3.8864 5.38-8.5255 10-8.5"/>
<path style="fill:#546778;fill-rule:evenodd" d="m205.41 73.5a5 5 0 0 1 -2.5 4.3301 5 5 0 0 1 -5 0 5 5 0 0 1 -2.5 -4.3301h5z"/>
</g>
<path style="stroke-linejoin:round;stroke:#f9d160;stroke-linecap:round;fill:none;stroke-width:3" d="m175 55h-25"/>
<path style="stroke-linejoin:round;stroke:#f9d160;stroke-linecap:round;fill:none;stroke-width:3" d="m225 55h25"/>
<path style="stroke-linejoin:round;stroke:#f9d160;stroke-linecap:round;fill:none;stroke-width:3" d="m200 30 0.19-25"/>
<path style="stroke-linejoin:round;stroke:#f9d160;stroke-linecap:round;fill:none;stroke-width:3" d="m222.03 34.701 17.81-17.543"/>
<path style="stroke-linejoin:round;stroke:#f9d160;stroke-linecap:round;fill:none;stroke-width:3" d="m179.33 34.701-17.81-17.543"/>
</svg>
