<?xml version="1.0" encoding="UTF-8" standalone="no"?>
<svg xmlns:rdf="http://www.w3.org/1999/02/22-rdf-syntax-ns#" xmlns="http://www.w3.org/2000/svg" height="200" width="400" version="1.1" xmlns:cc="http://creativecommons.org/ns#" xmlns:dc="http://purl.org/dc/elements/1.1/" viewBox="0 0 400 200">
<path d="m119.5 123.27c-10.105 2.8972-22.383 15.037-25.095 22.177-3.1142 8.7423 0.27947 20.58 2.3344 26.846 2.305 5.1982 6.0325 9.2584 11.089 12.256 11.55 6.7038 21.997 5.7487 33.266 3.5016 16.076-6.2242 10.116-8.5596 15.174-12.839l-8.1705-43.187c-6.8582-4.8752-15.434-11.12-28.597-8.7541z" style="fill-rule:evenodd;fill:#db853d"/>
<path d="m103.99 144.7-3.7141 5.5711 8.4598 0.41268 0.82535-6.3964z" style="fill-rule:evenodd;fill:#643835"/>
<path d="m109.98 164.72-2.2697 3.9204 5.9838 2.476 0.41267-3.9204z" style="fill-rule:evenodd;fill:#643835"/>
<path d="m127.31 142.23-4.5394 2.2697v2.0634l4.9521 2.2697 4.7458-4.3331-3.095-4.3331z" style="fill-rule:evenodd;fill:#643835"/>
<path d="m124.21 180.6 2.476 3.5077 4.3331 1.238-0.41267-3.5077-3.7141-2.476z" style="fill-rule:evenodd;fill:#643835"/>
<path d="m130.61 163.27-3.3014 5.3648 3.5077 1.4444 4.5394-0.82534-0.20634-3.3014z" style="fill-rule:evenodd;fill:#643835"/>
<path d="m119.06 130.88-1.6507 1.0317 2.0634 2.2697 2.6824-1.4444-0.61901-1.4444z" style="fill-rule:evenodd;fill:#643835"/>
<path d="m119.47 157.29-1.6507 1.857 1.238 1.238 2.2697-1.6507-1.857-0.82535z" style="fill-rule:evenodd;fill:#643835"/>
<path d="m111.42 177.72 0.41267 1.0317 1.6507-0.61901-0.41268-0.61901z" style="fill-rule:evenodd;fill:#643835"/>
<path d="m146.5 177.3-2.6824 2.6824 2.6824 0.61901 2.0634-1.0317z" style="fill-rule:evenodd;fill:#643835"/>
<g transform="matrix(1.1189 0 0 1.1189 -23.642 -953.9)">
<path style="fill-rule:evenodd;fill:#a7e5f2" d="m160 55c3.7035 13.201-4.1309 22.917-10.098 32.037-0.2221 0.33309-0.44086 0.66839-0.65625 1.0059-1.4723 2.3009-2.7968 4.5727-3.7461 6.8574l0.11914-0.08789c-3.68 7.888-5.6 16.488-5.62 25.188 0.0157 20.124 10.119 38.9 26.904 50h66.197c16.78-11.1 26.89-29.88 26.9-50-0.0233-8.7024-1.9393-17.296-5.6152-25.184l0.11523 0.08398c-1.1519-2.7725-2.8556-5.5249-4.709-8.3359-0.13478-0.20852-0.27085-0.41621-0.40821-0.62305-5.85-8.806-12.94-18.267-9.38-30.941z" transform="translate(0,852.36)"/>
<path style="stroke:#1b98b1;stroke-width:10;stroke-linecap:round;fill:none" d="m155 902.36h90"/>
<path style="opacity:.6;fill-rule:evenodd;fill:#7ad8eb" d="m160 55c3.7 13.201-4.13 22.917-10.1 32.037-0.22 0.333-0.44 0.669-0.65 1.006-1.48 2.301-2.8 4.573-3.75 6.857l0.12-0.088c-3.68 7.888-5.6 16.488-5.62 25.188 0.02 20.12 10.12 38.9 26.9 50h63.26c-121.44-28.19-52.13-83.419-64.32-115h-5.84z" transform="translate(0,852.36)"/>
<path style="fill-rule:evenodd;fill:#7ad8eb" d="m200 27a5 5 0 0 0 -5 5 5 5 0 0 0 1.08 3.098 49.277 23.939 0 0 0 -36.08 9.902h80a49.277 23.939 0 0 0 -36.09 -9.896 5 5 0 0 0 1.09 -3.104 5 5 0 0 0 -5 -5z" transform="translate(0,852.36)"/>
</g>
<g transform="translate(0,14)">
<path d="m181.15 97.841c-6.2335 0-11.148 5.3613-11.148 11.659-0.065 4.2734 6.3734 4.2734 6.3083 0 0-3.0935 2.2383-5.3511 4.8394-5.3511s4.8394 2.2575 4.8394 5.3511c-0.065 4.2734 6.3734 4.2734 6.3083 0 0-6.2985-4.9144-11.659-11.148-11.659z" style="fill-rule:evenodd;fill:#565773"/>
<path d="m218.85 97.841c-6.2335 0-11.148 5.3613-11.148 11.659-0.065 4.2734 6.3734 4.2734 6.3083 0 0-3.0935 2.2383-5.3511 4.8394-5.3511s4.8394 2.2575 4.8394 5.3511c-0.065 4.2734 6.3734 4.2734 6.3083 0 0-6.2985-4.9144-11.659-11.148-11.659z" style="fill-rule:evenodd;fill:#565773"/>
<path d="m191.53 120.94a2.2502 2.2502 0 0 0 -2.2012 1.5098c-0.93219 2.5612-3.1518 4.4232-5.8359 4.8965a2.2502 2.2502 0 1 0 0.78125 4.4316c1.4657-0.25844 2.8429-0.7851 4.084-1.5234 0.68443 0.89806 1.4696 1.7012 2.3281 2.4082 1.2722 1.0477 2.7117 1.8727 4.2598 2.4395 0.03 0.011 0.0597 0.0224 0.0898 0.0332 0.48598 0.17431 0.98172 0.323 1.4863 0.44531 0.0565 0.0138 0.11319 0.026 0.16993 0.0391 0.49334 0.11333 0.99306 0.20399 1.5 0.26563 0.16928 0.0207 0.33922 0.036 0.50976 0.0508 0.11335 0.01 0.22599 0.0222 0.33985 0.0293 0.27593 0.0174 0.55352 0.0276 0.83203 0.0293 0.0294 0.00018 0.0585 0.002 0.0879 0.002 0.0255-0.00002 0.0507-0.002 0.0762-0.002 0.27851-0.002 0.55609-0.0119 0.83203-0.0293 0.11385-0.007 0.22649-0.0196 0.33984-0.0293 0.17054-0.0148 0.34048-0.0301 0.50977-0.0508 0.50731-0.0617 1.0083-0.15218 1.502-0.26563 0.0549-0.0127 0.10937-0.0258 0.16406-0.0391 0.50672-0.12264 1.0042-0.27024 1.4922-0.44531 0.0276-0.01 0.0545-0.0212 0.082-0.0312 1.5505-0.56683 2.9917-1.3923 4.2656-2.4414 0.85854-0.707 1.6437-1.5101 2.3281-2.4082 1.2411 0.73834 2.6183 1.265 4.084 1.5234a2.2502 2.2502 0 1 0 0.78125 -4.4316c-2.6842-0.47329-4.9038-2.3353-5.8359-4.8965a2.2502 2.2502 0 0 0 -2.2012 -1.5098 2.2502 2.2502 0 0 0 -2.0273 3.0488c0.43263 1.1886 1.047 2.2803 1.7988 3.2539-0.46958 0.66202-1.011 1.2583-1.6113 1.7812-0.29072 0.25324-0.59765 0.48752-0.91407 0.70508-0.024 0.0164-0.0481 0.0326-0.0723 0.0488-0.29902 0.20179-0.60901 0.38624-0.92774 0.55468-0.0547 0.0286-0.11078 0.0544-0.16601 0.082-0.29067 0.14681-0.58635 0.28229-0.89063 0.40039-0.1116 0.0428-0.22662 0.0763-0.33984 0.11523-0.26826 0.0932-0.53786 0.1836-0.81445 0.25391-0.16109 0.0404-0.32674 0.0651-0.49024 0.0976-0.23721 0.0478-0.47308 0.10217-0.71484 0.13282-0.3635 0.0453-0.73228 0.0668-1.1035 0.0723-0.0493 0.00078-0.0971 0.01-0.14648 0.01-0.0533 0-0.10501-0.009-0.15821-0.01-0.37124-0.005-0.74001-0.027-1.1035-0.0723-0.24177-0.0307-0.47764-0.085-0.71485-0.13282-0.1635-0.0325-0.32915-0.0572-0.49023-0.0976-0.2766-0.0703-0.54619-0.16072-0.81445-0.25391-0.11323-0.0389-0.22825-0.0724-0.33985-0.11523-0.30428-0.1181-0.59996-0.25358-0.89062-0.40039-0.0552-0.0276-0.11132-0.0534-0.16602-0.082-0.31872-0.16844-0.62871-0.35289-0.92773-0.55468-0.0242-0.0162-0.0482-0.0324-0.0723-0.0488-0.31642-0.21756-0.62335-0.45184-0.91406-0.70508-0.60032-0.52293-1.1417-1.1192-1.6113-1.7812 0.75185-0.97362 1.3662-2.0653 1.7988-3.2539a2.2502 2.2502 0 0 0 -2.0273 -3.0488z" style="color-rendering:auto;text-decoration-color:#000000;color:#000000;shape-rendering:auto;solid-color:#000000;text-decoration-line:none;fill:#565773;fill-rule:evenodd;mix-blend-mode:normal;block-progression:tb;text-indent:0;image-rendering:auto;white-space:normal;text-decoration-style:solid;isolation:auto;text-transform:none"/>
</g>
<g transform="translate(0 19.979)">
<path d="m57.595 164.89-4.1267 4.5394 3.7141 0.82535 2.8887-2.476z" style="fill-rule:evenodd;fill:#643835"/>
<path d="m189.41 168.75 2.476-2.476 0.82534 0.82535 2.0634 2.476-2.8887 0.41267-2.476 0.41268z" style="fill-rule:evenodd;fill:#643835"/>
<path d="m81.225 167.82-1.459 1.3131 1.7508 1.0213 1.7508-0.2918 0.72951-1.0213-1.6049-1.459z" style="fill-rule:evenodd;fill:#643835"/>
<path d="m264.33 166.87-1.7508 1.8967v1.1672l2.3344 0.1459 1.8967-0.87542-0.72951-1.6049z" style="fill-rule:evenodd;fill:#643835"/>
<path d="m303.86 169.62 2.7721-3.2098 3.6476 1.3131 0.72951 1.7508-1.3131 0.58361h-4.9607z" style="fill-rule:evenodd;fill:#643835"/>
<path d="m269.89 168.84-0.92852 0.72218 0.30951 0.41268h1.238l0.41267-0.72218z" style="fill-rule:evenodd;fill:#643835"/>
<path d="m246.88 169.26z" style="stroke:#000000;stroke-width:1px;fill:none"/>
<path d="m246.37 169.36-0.51584 0.41268 1.1348 0.3095 0.41268-0.41267-0.72218-0.72218z" style="fill-rule:evenodd;fill:#643835"/>
<path d="m175.59 167.91-1.238 0.82534 0.72217 1.4444 2.9919-0.10317 1.0317-0.82534-1.5475-1.7539z" style="fill-rule:evenodd;fill:#643835"/>
<path d="m180.96 169.05-0.72218 0.51584 0.20633 0.41268h1.1349l0.10316-0.51585z" style="fill-rule:evenodd;fill:#643835"/>
<path d="m221.92 169.26-0.61901 0.41267 0.30951 0.30951h1.0317l0.41268-0.82535-0.82535-0.30951z" style="fill-rule:evenodd;fill:#643835"/>
<path d="m84.185 169.46-0.41267 0.41267 0.3095 0.20634 0.82535-0.10317 0.30951-0.92852-1.0317-0.10317z" style="fill-rule:evenodd;fill:#db853d"/>
<path d="m196.64 168.95-1.0317 0.92851 0.20634 0.61902 1.7539-0.20634 0.61901-1.0317-0.82535-0.61901z" style="fill-rule:evenodd;fill:#db853d"/>
<path d="m172.19 169.15-0.41268 0.30951 0.20634 0.30951h1.0317l-0.20633-0.82535z" style="fill-rule:evenodd;fill:#db853d"/>
<path d="m62.004 168.64-0.92852 0.92851 0.61901 0.30951h1.857l0.61901-1.1349-1.1349-0.61901z" style="fill-rule:evenodd;fill:#db853d"/>
<path d="m65.718 169.15-0.51584 0.61901 0.51584 0.3095h0.61901l0.20634-0.3095z" style="fill-rule:evenodd;fill:#db853d"/>
<path d="m77.686 169.46-0.51584 0.41268 0.41267 0.3095 0.72218-0.10317v-0.51584z" style="fill-rule:evenodd;fill:#db853d"/>
<path d="m156.92 168.22-1.4444 0.82535-0.20634 0.92852h4.0236v-0.51585l-0.92851-1.0317h-1.0317z" style="fill-rule:evenodd;fill:#db853d"/>
<path d="m167.34 166.99-2.5792 1.0317-0.20634 1.4444v0.51585l5.2616-0.10317 0.61901-2.0634-1.238-0.61901-0.82534 0.72218z" style="fill-rule:evenodd;fill:#db853d"/>
<path d="m182.2 169.36-0.30951 0.51585 1.0317 0.10317 0.3095-0.51585z" style="fill-rule:evenodd;fill:#db853d"/>
<path d="m50.243 169.26-0.72218 0.41267 0.20634 0.41268h1.7539l-0.30951-0.82535z" style="fill-rule:evenodd;fill:#db853d"/>
<path d="m310.54 167.5-1.5475 1.6507-0.10317 1.0317 5.9838-0.3095-0.92851-2.1665z" style="fill-rule:evenodd;fill:#db853d"/>
<path d="m316.42 169.05-0.82535 0.61901 0.51585 0.51584h1.238l0.61901-0.72218z" style="fill-rule:evenodd;fill:#db853d"/>
<path d="m261.02 168.74-0.61901 0.51585 0.20634 0.61901h0.72218 0.61901l-0.20634-1.1349z" style="fill-rule:evenodd;fill:#db853d"/>
<path d="m285.98 169.05-0.61901 0.10317v0.72218h1.857l-0.20633-0.72218z" style="fill-rule:evenodd;fill:#db853d"/>
<path d="m279.79 169.05-0.72218 0.41267 0.10317 0.41268h1.6507z" style="fill-rule:evenodd;fill:#db853d"/>
<path d="m244.2 169.04-0.82535 0.30951v0.61901l1.3412 0.10317 0.72218-0.20634-0.51585-0.82535h-0.3095z" style="fill-rule:evenodd;fill:#db853d"/>
</g>
</svg>
