<?xml version="1.0" encoding="UTF-8" standalone="no"?>
<!-- Created with Inkscape (http://www.inkscape.org/) -->

<svg
   xmlns:dc="http://purl.org/dc/elements/1.1/"
   xmlns:cc="http://creativecommons.org/ns#"
   xmlns:rdf="http://www.w3.org/1999/02/22-rdf-syntax-ns#"
   xmlns:svg="http://www.w3.org/2000/svg"
   xmlns="http://www.w3.org/2000/svg"
   xmlns:sodipodi="http://sodipodi.sourceforge.net/DTD/sodipodi-0.dtd"
   xmlns:inkscape="http://www.inkscape.org/namespaces/inkscape"
   width="100"
   height="100"
   viewBox="0 0 100 100"
   version="1.1"
   id="svg830"
   inkscape:version="0.92.2 5c3e80d, 2017-08-06"
   sodipodi:docname="header.svg">
  <defs
     id="defs824" />
  <sodipodi:namedview
     id="base"
     pagecolor="#ffffff"
     bordercolor="#666666"
     borderopacity="1.0"
     inkscape:pageopacity="0.0"
     inkscape:pageshadow="2"
     inkscape:zoom="5.6"
     inkscape:cx="50"
     inkscape:cy="50"
     inkscape:document-units="px"
     inkscape:current-layer="svg830"
     showgrid="true"
     units="px"
     inkscape:window-width="1280"
     inkscape:window-height="755"
     inkscape:window-x="214"
     inkscape:window-y="1051"
     inkscape:window-maximized="1">
    <inkscape:grid
       type="xygrid"
       id="grid1375"
       empspacing="5" />
  </sodipodi:namedview>
  <metadata
     id="metadata827">
    <rdf:RDF>
      <cc:Work
         rdf:about="">
        <dc:format>image/svg+xml</dc:format>
        <dc:type
           rdf:resource="http://purl.org/dc/dcmitype/StillImage" />
        <dc:title />
      </cc:Work>
    </rdf:RDF>
  </metadata>
  <path
     style="opacity:0.4;fill:#4ccdac;stroke-width:0.38094863"
     d="m 42,20 c -2,0 -2,2 -2,2 v 2 c 0,0 0,2 2,2 2,0 2,-2 2,-2 v -2 c 0,0 0,-2 -2,-2 z m 8,7 c -2,0 -2,2 -2,2 v 2 c 0,0 0,-2 -2,-2 -2,0 -2,2 -2,2 v 9 c 0,0 0,2 -2,2 -2,0 -2,-2 -2,-2 v -5 c 0,0 0,-2 -2,-2 -2,0 -2,2 -2,2 V 53 H 64 V 32 c 0,0 0,-2 -2,-2 -2,0 -2,2 -2,2 v 10 c 0,0 0,2 -2,2 -2,0 -2,-2 -2,-2 v -7 c 0,0 0,-2 -2,-2 -2,0 -2,2 -2,2 v -6 c 0,0 0,-2 -2,-2 z"
     id="path843"
     inkscape:connector-curvature="0"
     sodipodi:nodetypes="ccccccccccccccccccccccccccccccc" />
  <path
     style="opacity:0.55;fill:#4ccdac;stroke-width:0.38095239"
     d="m 46,29 c -2,0 -2,2 -2,2 v 15 c 0,0 0,2 -2,2 -2,0 -2,-2 -2,-2 V 35 c 0,0 0,-2 -2,-2 -2,0 -2,2 -2,2 V 53 H 64 V 39 c 0,0 0,-2 -2,-2 -2,0 -2,2 -2,2 v 8 c 0,0 0,2 -2,2 -2,0 -2,-2 -2,-2 V 35 c 0,0 0,-2 -2,-2 -2,0 -2,2 -2,2 v 10 c 0,0 0,2 -2,2 -2,0 -2,-2 -2,-2 V 31 c 0,0 0,-2 -2,-2 z"
     id="path845"
     inkscape:connector-curvature="0"
     sodipodi:nodetypes="cccccccccccccccccccccccc" />
  <path
     style="opacity:0.6;fill:#4e91e4;stroke-width:0.34477535"
     d="m 64,55 c 1,0 1,1 1,1 v 5 c 0,0 0,1 -1,1 H 51 c 0,0 -2,0 -2,2 v 2 h 1 v -2 c 0,-1 1,-1 1,-1 h 13 c 2,0 2,-2 2,-2 v -5 c 0,0 0,-2 -1.999999,-2 z"
     id="path832"
     inkscape:connector-curvature="0"
     sodipodi:nodetypes="ccccccccccccccc" />
  <path
     style="fill:#4e91e4;stroke-width:0.38095239"
     d="m 38,51 h 24 c 0,0 2,0 2,2 v 3 c 0,2 -2,2 -2,2 H 38 c 0,0 -2,0 -2,-2 v -3 c 0,-2 2,-2 2,-2 z"
     id="path834"
     inkscape:connector-curvature="0"
     sodipodi:nodetypes="ccccccccc" />
  <path
     style="fill:#4e91e4"
     d="m 70,25 c 0,0 0,-1 -1,-1 0,0 -2,0 -2,-1 0,-1 2,-1 2,-1 0,0 1,0 1,-1 0,0 0,-2 1,-2 1,0 1,2 1,2 0,0 0,1 1,1 0,0 2,0 2,1 0,1 -2,1 -2,1 0,0 -1,0 -1,1 0,0 0,2 -1,2 -1,0 -1,-2 -1,-2 z"
     id="path933"
     inkscape:connector-curvature="0"
     sodipodi:nodetypes="ccccccccccccc" />
  <path
     style="opacity:0.5;fill:#4e91e4"
     d="m 20,48 c -1.656854,0 -3,1.343146 -3,3 0,1.656854 1.343146,3 3,3 1.656854,0 3,-1.343146 3,-3 0,-1.656854 -1.343146,-3 -3,-3 z m 0,2 c 0.552285,0 1,0.447715 1,1 0,0.552285 -0.447715,1 -1,1 -0.552285,0 -1,-0.447715 -1,-1 0,-0.552285 0.447715,-1 1,-1 z"
     id="path943"
     inkscape:connector-curvature="0"
     sodipodi:nodetypes="cccccccccc" />
  <path
     style="opacity:1;fill:#4e91e4"
     d="m 30,75 c 0,1.104569 -0.895431,2 -2,2 -1.104569,0 -2,-0.895431 -2,-2 0,-1.104569 0.895431,-2 2,-2 1.104569,0 2,0.895431 2,2 z"
     id="path950"
     inkscape:connector-curvature="0"
     sodipodi:nodetypes="ccccc" />
  <path
     sodipodi:nodetypes="ccccccccccccc"
     inkscape:connector-curvature="0"
     id="path953"
     d="m 75,80 c 0,0 0,-1 -1,-1 0,0 -2,0 -2,-1 0,-1 2,-1 2,-1 0,0 1,0 1,-1 0,0 0,-2 1,-2 1,0 1,2 1,2 0,0 0,1 1,1 0,0 2,0 2,1 0,1 -2,1 -2,1 0,0 -1,0 -1,1 0,0 0,2 -1,2 -1,0 -1,-2 -1,-2 z"
     style="opacity:0.7;fill:#4e91e4" />
  <path
     sodipodi:nodetypes="cccccccccc"
     inkscape:connector-curvature="0"
     id="path955"
     d="m 80,43 c -1.656854,0 -3,1.343146 -3,3 0,1.656854 1.343146,3 3,3 1.656854,0 3,-1.343146 3,-3 0,-1.656854 -1.343146,-3 -3,-3 z m 0,2 c 0.552285,0 1,0.447715 1,1 0,0.552285 -0.447715,1 -1,1 -0.552285,0 -1,-0.447715 -1,-1 0,-0.552285 0.447715,-1 1,-1 z"
     style="opacity:0.9;fill:#4e91e4" />
  <path
     style="opacity:0.8;fill:#4e91e4"
     d="m 25,30 a 1,1 0 0 1 -1,1 1,1 0 0 1 -1,-1 1,1 0 0 1 1,-1 1,1 0 0 1 1,1 z"
     id="path957"
     inkscape:connector-curvature="0" />
  <path
     sodipodi:nodetypes="ccccccccc"
     inkscape:connector-curvature="0"
     id="path4941"
     d="m 47,67 v 6 c 0,0 0,2 2,2 h 1 c 2,0 2,-2 2,-2 v -6 c 0,0 0,-2 -2,-2 h -1 c -2,0 -2,2 -2,2 z"
     style="fill:#4e91e4;stroke-width:0.66666669" />
</svg>
