<?xml version="1.0" encoding="UTF-8" standalone="no"?>
<!-- Created with Inkscape (http://www.inkscape.org/) -->

<svg
   xmlns:dc="http://purl.org/dc/elements/1.1/"
   xmlns:cc="http://creativecommons.org/ns#"
   xmlns:rdf="http://www.w3.org/1999/02/22-rdf-syntax-ns#"
   xmlns:svg="http://www.w3.org/2000/svg"
   xmlns="http://www.w3.org/2000/svg"
   xmlns:sodipodi="http://sodipodi.sourceforge.net/DTD/sodipodi-0.dtd"
   xmlns:inkscape="http://www.inkscape.org/namespaces/inkscape"
   width="100"
   height="100"
   viewBox="0 0 100 100"
   version="1.1"
   id="svg830"
   inkscape:version="0.92.2 5c3e80d, 2017-08-06"
   sodipodi:docname="header2.svg">
  <defs
     id="defs824" />
  <sodipodi:namedview
     id="base"
     pagecolor="#ffffff"
     bordercolor="#666666"
     borderopacity="1.0"
     inkscape:pageopacity="0.0"
     inkscape:pageshadow="2"
     inkscape:zoom="5.6"
     inkscape:cx="50"
     inkscape:cy="50"
     inkscape:document-units="px"
     inkscape:current-layer="svg830"
     showgrid="true"
     units="px"
     inkscape:window-width="1280"
     inkscape:window-height="755"
     inkscape:window-x="0"
     inkscape:window-y="1"
     inkscape:window-maximized="1">
    <inkscape:grid
       type="xygrid"
       id="grid1375"
       empspacing="5" />
  </sodipodi:namedview>
  <metadata
     id="metadata827">
    <rdf:RDF>
      <cc:Work
         rdf:about="">
        <dc:format>image/svg+xml</dc:format>
        <dc:type
           rdf:resource="http://purl.org/dc/dcmitype/StillImage" />
        <dc:title></dc:title>
      </cc:Work>
    </rdf:RDF>
  </metadata>
  <path
     style="opacity:0.4;fill:#4ccdac;stroke-width:0.57142293"
     d="m 38,5 c -3,0 -3,3 -3,3 v 3 c 0,0 0,3 3,3 3,0 3,-3 3,-3 V 8 c 0,0 0,-3 -3,-3 z m 12,8 c -3,0 -3,3 -3,3 v 3 c 0,0 0,-3 -3,-3 -3,0 -3,3 -3,3 v 15 c 0,0 0,3 -3,3 -3,0 -3,-3 -3,-3 v -9 c 0,0 0,-3 -3,-3 -3,0 -3,3 -3,3 V 53 H 71 V 21 c 0,0 0,-3 -3,-3 -3,0 -3,3 -3,3 v 15 c 0,0 0,3 -3,3 -3,0 -3,-3 -3,-3 V 25 c 0,0 0,-3 -3,-3 -3,0 -3,3 -3,3 v -9 c 0,0 0,-3 -3,-3 z"
     id="path843"
     inkscape:connector-curvature="0"
     sodipodi:nodetypes="ccccccccccccccccccccccccccccccc" />
  <path
     style="opacity:0.55;fill:#4ccdac;stroke-width:0.5714286"
     d="m 44,16 c -3,0 -3,3 -3,3 v 25 c 0,0 0,3 -3,3 -3,0 -3,-3 -3,-3 V 25 c 0,0 0,-3 -3,-3 -3,0 -3,3 -3,3 V 53 H 71 V 32 c 0,0 0,-3 -3,-3 -3,0 -3,3 -3,3 v 12 c 0,0 0,3 -3,3 -3,0 -3,-3 -3,-3 V 25 c 0,0 0,-3 -3,-3 -3,0 -3,3 -3,3 v 16 c 0,0 0,3 -3,3 -3,0 -3,-3 -3,-3 V 19 c 0,0 0,-3 -3,-3 z"
     id="path845"
     inkscape:connector-curvature="0"
     sodipodi:nodetypes="cccccccccccccccccccccccc" />
  <path
     style="opacity:0.6;fill:#4e91e4;stroke-width:0.63208812"
     d="m 71,56 c 2,0 2,2 2,2 v 6 c 0,0 0,2 -2,2 H 52 c 0,0 -3,0 -3,3 v 4 h 2 v -4 c 0,-1 1,-1 1,-1 h 19 c 4,0 4,-4 4,-4 v -6 c 0,0 0,-4 -4,-4 z"
     id="path832"
     inkscape:connector-curvature="0"
     sodipodi:nodetypes="ccccccccccccccc" />
  <path
     style="fill:#4e91e4;stroke-width:0.5714286"
     d="m 32,50 h 36 c 0,0 3,0 3,3 v 5 c 0,3 -3,3 -3,3 H 32 c 0,0 -3,0 -3,-3 v -5 c 0,-3 3,-3 3,-3 z"
     id="path834"
     inkscape:connector-curvature="0"
     sodipodi:nodetypes="ccccccccc" />
  <path
     style="fill:#4e91e4"
     d="m 15,20 c 0,0 0,-1 -1,-1 0,0 -2,0 -2,-1 0,-1 2,-1 2,-1 0,0 1,0 1,-1 0,0 0,-2 1,-2 1,0 1,2 1,2 0,0 0,1 1,1 0,0 2,0 2,1 0,1 -2,1 -2,1 0,0 -1,0 -1,1 0,0 0,2 -1,2 -1,0 -1,-2 -1,-2 z"
     id="path933"
     inkscape:connector-curvature="0"
     sodipodi:nodetypes="ccccccccccccc" />
  <path
     style="opacity:0.5;fill:#4e91e4"
     d="m 80,8 c -1.656854,0 -3,1.343146 -3,3 0,1.656854 1.343146,3 3,3 1.656854,0 3,-1.343146 3,-3 0,-1.656854 -1.343146,-3 -3,-3 z m 0,2 c 0.552285,0 1,0.447715 1,1 0,0.552285 -0.447715,1 -1,1 -0.552285,0 -1,-0.447715 -1,-1 0,-0.552285 0.447715,-1 1,-1 z"
     id="path943"
     inkscape:connector-curvature="0"
     sodipodi:nodetypes="cccccccccc" />
  <path
     style="opacity:1;fill:#4e91e4"
     d="m 90,35 c 0,1.104569 -0.895431,2 -2,2 -1.104569,0 -2,-0.895431 -2,-2 0,-1.104569 0.895431,-2 2,-2 1.104569,0 2,0.895431 2,2 z"
     id="path950"
     inkscape:connector-curvature="0"
     sodipodi:nodetypes="ccccc" />
  <path
     sodipodi:nodetypes="ccccccccccccc"
     inkscape:connector-curvature="0"
     id="path953"
     d="m 80,85 c 0,0 0,-1 -1,-1 0,0 -2,0 -2,-1 0,-1 2,-1 2,-1 0,0 1,0 1,-1 0,0 0,-2 1,-2 1,0 1,2 1,2 0,0 0,1 1,1 0,0 2,0 2,1 0,1 -2,1 -2,1 0,0 -1,0 -1,1 0,0 0,2 -1,2 -1,0 -1,-2 -1,-2 z"
     style="opacity:0.7;fill:#4e91e4" />
  <path
     sodipodi:nodetypes="cccccccccc"
     inkscape:connector-curvature="0"
     id="path955"
     d="m 10,53 c -1.656854,0 -3,1.343146 -3,3 0,1.656854 1.343146,3 3,3 1.656854,0 3,-1.343146 3,-3 0,-1.656854 -1.343146,-3 -3,-3 z m 0,2 c 0.552285,0 1,0.447715 1,1 0,0.552285 -0.447715,1 -1,1 -0.552285,0 -1,-0.447715 -1,-1 0,-0.552285 0.447715,-1 1,-1 z"
     style="opacity:0.9;fill:#4e91e4" />
  <path
     style="opacity:0.8;fill:#4e91e4"
     d="m 25,80 a 1,1 0 0 1 -1,1 1,1 0 0 1 -1,-1 1,1 0 0 1 1,-1 1,1 0 0 1 1,1 z"
     id="path957"
     inkscape:connector-curvature="0" />
  <path
     sodipodi:nodetypes="ccccccc"
     inkscape:connector-curvature="0"
     id="path4941"
     d="m 47,75 v 9 c 0,0 0,3 3,3 3,0 3,-3 3,-3 v -9 c 0,0 0,-3 -3,-3 -3,0 -3,3 -3,3 z"
     style="fill:#4e91e4" />
</svg>
