<?xml version="1.0" encoding="UTF-8" standalone="no"?>
<!-- Created with Inkscape (http://www.inkscape.org/) -->

<svg
   xmlns:dc="http://purl.org/dc/elements/1.1/"
   xmlns:cc="http://creativecommons.org/ns#"
   xmlns:rdf="http://www.w3.org/1999/02/22-rdf-syntax-ns#"
   xmlns:svg="http://www.w3.org/2000/svg"
   xmlns="http://www.w3.org/2000/svg"
   xmlns:sodipodi="http://sodipodi.sourceforge.net/DTD/sodipodi-0.dtd"
   xmlns:inkscape="http://www.inkscape.org/namespaces/inkscape"
   width="600"
   height="200"
   viewBox="0 0 600 200"
   id="svg4282"
   version="1.1"
   inkscape:version="0.92.2 5c3e80d, 2017-08-06"
   sodipodi:docname="header.svg">
  <defs
     id="defs4284" />
  <sodipodi:namedview
     id="base"
     pagecolor="#ffffff"
     bordercolor="#666666"
     borderopacity="1.0"
     inkscape:pageopacity="0.0"
     inkscape:pageshadow="2"
     inkscape:zoom="7.1842049"
     inkscape:cx="106.66206"
     inkscape:cy="69.560297"
     inkscape:document-units="px"
     inkscape:current-layer="svg4282"
     showgrid="true"
     units="px"
     inkscape:window-width="1280"
     inkscape:window-height="755"
     inkscape:window-x="0"
     inkscape:window-y="1"
     inkscape:window-maximized="1">
    <inkscape:grid
       type="xygrid"
       id="grid4849"
       spacingx="5.0000001"
       spacingy="5"
       empspacing="5"
       dotted="false"
       snapvisiblegridlinesonly="false"
       visible="true" />
    <inkscape:grid
       type="xygrid"
       id="grid937"
       snapvisiblegridlinesonly="false"
       color="#c93f38"
       opacity="0.1254902"
       empcolor="#c93f38"
       empopacity="0.1254902"
       spacingx="2.5"
       spacingy="2.5"
       empspacing="0"
       enabled="false" />
  </sodipodi:namedview>
  <metadata
     id="metadata4287">
    <rdf:RDF>
      <cc:Work
         rdf:about="">
        <dc:format>image/svg+xml</dc:format>
        <dc:type
           rdf:resource="http://purl.org/dc/dcmitype/StillImage" />
        <dc:title />
      </cc:Work>
    </rdf:RDF>
  </metadata>
  <g
     id="layer1"
     style="fill:#4e91e4"
     transform="translate(0,25)">
    <path
       style="opacity:0.3"
       d="m 110,85 c 0,0 0,-5 -5,-5 H 90.000004 c 0,0 -5,0 -5,-5 0,-5 5,-5 5,-5 H 110 c 0,0 5,0 5,-5 0,-5 -5,-5 -5,-5 H 80.000004 c 0,0 -5,0 -5,-5 0,-5 5,-5 5,-5 h 15 c 0,0 4.999996,0 4.999996,-5 0,-5 -4.999996,-5 -4.999996,-5 h -10 c 0,0 -5,0 -5,-5 0,-5 5,-5 5,-5 H 125 c 0,0 5,0 5,5 0,5 -5,5 -5,5 h -10 c 0,0 -5,0 -5,5 0,5 5,5 5,5 h 30 c 0,0 5,0 5,5 0,5 -5,5 -5,5 h -10 c 0,0 -5,0 -5,5 0,5 5,5 5,5 h 5 c 0,0 5,0 5,5 0,5 -5,5 -5,5 h -15 c 0,0 -5,0 -5,5 z"
       id="path1471"
       inkscape:connector-curvature="0"
       sodipodi:nodetypes="cscsccsccsccsccsccsccsccsccsccscccc" />
    <path
       d="m 90.000002,90 1e-6,5 c 0,0 -20,0 -20,20 0,20 20,20 20,20 v 5 c 0,0 -1e-6,10 9.999997,10 h 15 15 c 0,0 10,0 10,-10 l 0,-50 c 0,0 0,-5 -5,-5 H 95.000002 c -5,0 -5,5 -5,5 z m 1e-6,15 v 20 c 0,0 -10,0 -10,-10 0,-10 10,-10 10,-10 z"
       id="path1465"
       inkscape:connector-curvature="0"
       sodipodi:nodetypes="ccsccsccsccccccsc" />
    <path
       style="opacity:0.1"
       d="m 525.00001,20 c 0,0 -10,0 -10,10 0,10 10,10 10,10 h 40 c 0,0 10,0 10,-10 0,-10 -10,-10 -10,-10 z M 45.000017,20 c 0,0 -10,0 -10,10 0,10 10,10 10,10 h 5 c 0,0 10,0 10,-10 0,-10 -10,-10 -10,-10 z m 0,40 c 0,0 -10,0 -10,10 0,10 10,10 10,10 h 24.999984 c 0,0 9.999997,0 9.999997,10 0,10 -9.999997,10 -9.999997,10 h -45 c 0,0 -10,0 -10,10 0,10 10,10 10,10 H 155 V 50 c 0,-10 10,-10 10,-10 h 170.00001 20 v -5 c 0,0 -5,0 -5,-5 0,-5 5,-5 5,-5 h 100 c 5,0 5,5 5,5 0,0 0,5 -5,5 v 5 h 25 c 10,0 10,-10 10,-10 0,0 0,-10 -10,-10 H 441.38496 350.00001 146.45669 85.000002 c 0,0 -10,0 -10.000001,10 10e-7,10 10.000001,10 10.000001,10 H 130 c 0,0 10,0 10,10 0,10 -10,10 -10,10 z m 299.999993,0 v 20 h 10 V 60 Z m 0,40 v 40 H 155 140 c 0,0 0,10 -10,10 h -30 c -9.999998,0 -9.999998,-10 -9.999983,-10 0,0 -10,0 -10,10 h 9.999985 260.000008 15 c -10,0 -10,-10 -10,-10 v -40 z m 110,0 v 20 h 45 c 0,0 10,0 10,-10 0,-10 -10,-10 -10,-10 z m 0,40 c 0,10 -10,10 -10,10 h 30 c 0,-10 -10,-10 -10,-10 z"
       id="path925"
       inkscape:connector-curvature="0"
       sodipodi:nodetypes="ccccccccsccscccsccsccscccccccccccccccccccccccccccccccccccccccccccccccccccccccc" />
    <path
       d="m 455.00001,35 c 0,0 5,0 5,-5 0,-5 -5,-5 -5,-5 h -100 c 0,0 -5,0 -5,5 0,5 5,5 5,5 z"
       id="path834"
       inkscape:connector-curvature="0"
       sodipodi:nodetypes="ccccccc"
       style="opacity:0.75" />
    <path
       d="m 445.00001,150 c 0,0 10,0 10,-10 V 35 h -100 v 105 c 0,0 0,10 10,10 z"
       id="path831"
       inkscape:connector-curvature="0"
       sodipodi:nodetypes="ccccccc"
       style="opacity:0.5" />
    <path
       d="m 355.00001,60 h 100 v 60 h -100 z"
       id="path858"
       inkscape:connector-curvature="0"
       style="opacity:0.5"
       sodipodi:nodetypes="ccccc" />
    <path
       d="m 365.00001,70 v 5 h 35 v -5 z m 0,10 v 5 h 25 v -5 z m 0,10 v 5 h 50 v -5 z m 0,15 v 5 h 30 v -5 z m 35,0 v 5 h 5 v -5 z m 10,0 v 5 h 15 v -5 z"
       id="path861"
       inkscape:connector-curvature="0"
       style="opacity:0.8;fill:#ffffff" />
    <path
       d="m 505.00001,150 v 20 c 0,0 0,5 -5,5 -5,0 -5,-5 -5,-5 v -10 c 0,0 0,5 -5,5 -5,0 -5,-5 -5,-5 v 5 c 0,0 0,5 -5,5 -5,0 -5,-5 -5,-5 v -15 z"
       id="path818"
       inkscape:connector-curvature="0"
       sodipodi:nodetypes="ccsccsccsccc" />
    <path
       style="fill:#546778;fill-opacity:1"
       d="m 410.00001,25 c 0,0 0,50 -55,50 0,0 0,5 -5,5 -5,0 -5,-5 -5,-5 v -5 c 0,0 0,-5 5,-5 5,0 5,5 5,5 50,0 50,-45 50,-45 z"
       id="path842"
       inkscape:connector-curvature="0"
       sodipodi:nodetypes="ccccccccc" />
    <path
       d="m 365.00001,25 v 25 c 0,0 0,5 5,5 5,0 5,-5 5,-5 V 35 c 0,0 0,5 5,5 5,0 5,-5 5,-5 v 10 c 0,0 0,5 5,5 5,0 5,-5 5,-5 V 25 Z"
       id="path847"
       inkscape:connector-curvature="0"
       sodipodi:nodetypes="ccsccsccsccc" />
    <path
       d="M 350.00002,135 H 275 c 10e-6,5 10e-6,5 -4.99999,5 H 230 c -5,0 -5,0 -5.00001,-5 H 150 v 5 c 0,0 1e-5,10 10,10 h 180.00001 c 0,0 10.00001,0 10.00001,-10 z"
       id="path875"
       inkscape:connector-curvature="0"
       style="fill:#546778;fill-opacity:1"
       sodipodi:nodetypes="ccccccccccc" />
    <path
       d="M 155,140 H 345.00001 V 50 c 0,0 0,-10 -10,-10 H 165 c 0,0 -10,3e-5 -10,10 z"
       id="path878"
       inkscape:connector-curvature="0"
       style="opacity:0.75;fill:#546778;fill-opacity:1"
       sodipodi:nodetypes="ccccccc" />
    <path
       style="fill:#546778;fill-opacity:1;stroke:none;stroke-width:1px;stroke-linecap:butt;stroke-linejoin:miter;stroke-opacity:1"
       d="m 165,45 c 0,0 -5,0 -5,5 v 75 c 0,0 0,5 5,5 h 170.00001 c 0,0 5,0 5,-5 V 50 c 0,0 0,-5 -5,-5 z"
       id="path881"
       inkscape:connector-curvature="0"
       sodipodi:nodetypes="ccccccccc" />
    <path
       style="opacity:0.75;fill:#ffffff"
       d="m 170,50 v 5 h 5 v -5 z m 15,0 v 5 h 55 v -5 z m -15,10 v 5 h 5 v -5 z m 15,0 v 5 h 130 v -5 z m -15,10 v 5 h 5 v -5 z m 15,0 v 5 h 20 v -5 z m -15,10 v 5 h 5 v -5 z m 15,0 v 5 h 80 v -5 z m -15,10 v 5 h 5 v -5 z m 15,0 v 5 h 85 v -5 z m -15,10 v 5 h 5 v -5 z m 15,0 v 5 h 35 v -5 z m -15,10 v 5 h 5 v -5 z m 15,0 v 5 h 145 v -5 z m -15,10 v 5 h 5 v -5 z m 15,0 v 5 h 15 v -5 z"
       id="path886"
       inkscape:connector-curvature="0"
       sodipodi:nodetypes="cccccccccccccccccccccccccccccccccccccccccccccccccccccccccccccccccccccccccccccccc" />
    <path
       style="opacity:0.5;fill:#546778"
       d="m 545,83.5 v 3 h 5 c 2,0 2.58709,0.777693 3.0332,1.669922 C 553.47932,89.062151 553.5,90 553.5,90 v 20 c 0,2 -0.77769,2.58709 -1.66992,3.0332 C 550.93785,113.47932 550,113.5 550,113.5 h -45 c -3,0 -4.91291,1.72231 -5.7168,3.33008 C 498.47932,118.43785 498.5,120 498.5,120 v 10 h 3 v -10 c 0,0 0.0207,-0.93785 0.4668,-1.83008 C 502.41291,117.27769 503,116.5 505,116.5 h 45 c 0,0 1.56215,0.0207 3.16992,-0.7832 C 554.77769,114.91291 556.5,113 556.5,110 V 90 c 0,0 0.0207,-1.562151 -0.7832,-3.169922 C 554.91291,85.222307 553,83.5 550,83.5 Z"
       id="path1477"
       inkscape:connector-curvature="0" />
    <path
       d="m 500.00001,150 c 0,0 -5,0 -5,-5 v -15 c 0,0 0,-5 5,-5 5,0 5,5 5,5 v 15 c 0,0 0,5 -5,5 z"
       id="path1475"
       inkscape:connector-curvature="0"
       sodipodi:nodetypes="cscsccc"
       style="fill:#546778" />
    <path
       d="m 550.00001,100 c 0,0 0,5 -5,5 h -90 c 0,0 -5,0 -5,-5 V 70 c 0,0 0,-5 5,-5 h 90 c 0,0 5,0 5,5 z"
       id="path1479"
       inkscape:connector-curvature="0"
       sodipodi:nodetypes="cscscscsc" />
    <path
       d="m 30.000001,150 c 0,0 -5,0 -5,5 0,5 5,5 5,5 H 570.00001 c 0,0 5,0 5,-5 0,-5 -5,-5 -5,-5 z"
       id="path825"
       inkscape:connector-curvature="0"
       style="opacity:0.75" />
  </g>
</svg>
