<svg stroke-miterlimit="10" style="fill-rule:nonzero;clip-rule:evenodd;stroke-linecap:round;stroke-linejoin:round;" version="1.1" viewBox="0 0 48 48" xml:space="preserve" xmlns="http://www.w3.org/2000/svg" xmlns:xlink="http://www.w3.org/1999/xlink">
<defs/>
<g id="Layer-1">
<path d="M10 15C8 15 8 17 8 17L8 38C8 38 8 43 13 43L26 43C31 43 31 38 31 38L31 17C31 17 31 15 29 15L10 15Z" fill="#ffffff" fill-rule="evenodd" opacity="1" stroke="none"/>
<path d="M31 20L31 24L34 24C37 24 37 27 37 27L37 29C37 29 37 32 34 32L31 32L31 36L34 36C41 36 41 29 41 29L41 27C41 27 41 20 34 20L31 20Z" fill="#ffffff" fill-rule="evenodd" opacity="1" stroke="none"/>
<path d="M19 42C19 42 27 43 27 35L27 15L29 15C31 15 31 17 31 17L31 37C31 37 31 42 26 42L19 42Z" fill="#ebedef" fill-rule="evenodd" opacity="1" stroke="none"/>
<path d="M10 15C8 15 8 17 8 17L8 38C8 38 8 43 13 43L26 43C31 43 31 38 31 38L31 17C31 17 31 15 29 15L10 15ZM31 24L34 24C37 24 37 27 37 27L37 29C37 29 37 32 34 32L31 32M31 20L34 20C41 20 41 27 41 27L41 29C41 29 41 36 34 36L31 36" fill="none" fill-rule="evenodd" opacity="1" stroke="#363f4f" stroke-linecap="round" stroke-linejoin="round" stroke-width="2"/>
<path d="M24 12C22 8 26.1111 8 24 4M19 12C17 8 21.1111 8 19 4M14 12C12 8 16.1111 8 14 4" fill="none" fill-rule="evenodd" opacity="1" stroke="#dadadd" stroke-linecap="round" stroke-linejoin="round" stroke-width="2"/>
<path d="M12 15L12 19C12 22 16 22 16 19L16 18L16 18L16 22C16 25 20 25 20 22L20 15L12 15Z" fill="#a45a1e" fill-rule="evenodd" opacity="1" stroke="#4e2b0e" stroke-linecap="round" stroke-linejoin="round" stroke-width="2"/>
</g>
</svg>
