<?xml version="1.0" encoding="UTF-8"?>
<svg width="50" height="50" version="1.1" viewBox="0 0 50 50" xmlns="http://www.w3.org/2000/svg">
<path d="m36.25 17.5v20s7e-5 10-11.25 10c-11.25 0-11.25-10-11.25-10v-26.25s2.61e-4 -8.7503 8.75-8.75c8.7497 2.823e-4 8.75 8.75 8.75 8.75v21.25s-2.3e-5 6.25-6.25 6.25c-6.25 1e-6 -6.25-6.25-6.25-6.25l-6.11e-4 -17.5s0-1.25 1.25-1.25l1.25 1e-6c1.25 0 1.25 1.25 1.25 1.25l5.68e-4 17.5s2.4e-5 2.5001 2.5 2.5 2.5-2.5 2.5-2.5v-21.25s2.3e-5 -4.9999-5-5c-5 0-5 5-5 5v26.25s-2.82e-4 6.2497 7.5 6.25c7.5 0 7.5-6.25 7.5-6.25l-9.8e-5 -22.5s0-1.25 1.25-1.25h1.25c1.25 0 1.25 1.25 1.25 1.25z"/>
</svg>
