<?xml version="1.0" encoding="UTF-8"?>
<svg width="50" height="50" version="1.1" viewBox="0 0 50 50" xmlns="http://www.w3.org/2000/svg">
<path d="m22.5 5c-3.75 0-3.75 3.75-3.75 3.75v2.5s-11.25 1.25-11.25 12.5v16.25s0 5 5 5v-16.25c0-5 5-5 5-5h15s5 0 5 5v16.25c5 0 5-5 5-5v-16.25c0-11.25-11.25-12.5-11.25-12.5v-2.5s0-3.75-3.75-3.75zm1.25 3.75h2.5s1.25 0 1.25 1.25v1.25h-5v-1.25c0-1.25 1.25-1.25 1.25-1.25zm-5 18.75s-2.5 0-2.5 2.5v2.5h17.5v-2.5s0-2.5-2.5-2.5zm-2.5 7.5v7.5s0 2.5 2.5 2.5h12.5s2.5 0 2.5-2.5v-7.5z"/>
</svg>
