<?xml version="1.0" encoding="UTF-8"?>
<svg width="50" height="50" version="1.1" viewBox="0 0 50 50" xmlns="http://www.w3.org/2000/svg">
<path d="m31.781 6.959c-0.42174-0.027283-0.906 0.072266-1.4473 0.38477-2.1651 1.25-0.91406 3.416-0.91406 3.416l5.334 9.2402h-19.508l5.334-9.2402s1.251-2.166-0.91406-3.416c-0.54127-0.3125-1.0256-0.41001-1.4473-0.38281-1.2649 0.08158-1.9688 1.2988-1.9688 1.2988l-6.7773 11.74h-5.7227c-1.25 0-1.25 1.25-1.25 1.25v2.5c0 1.25 1.25 1.25 1.25 1.25h1.25l3.75 15c1.25 2.5 3.75 2.5 3.75 2.5h25s2.5 0 3.75-2.5l3.75-15h1.25c1.25 0 1.25-1.25 1.25-1.25v-2.5c0-1.25-1.25-1.25-1.25-1.25h-5.7227l-6.7773-11.74s-0.70353-1.2189-1.9688-1.3008zm-16.781 19.291c2.5 0 2.5 2.5 2.5 2.5v6.25s0 2.5-2.5 2.5-2.5-2.5-2.5-2.5v-6.25c0-2.5 2.5-2.5 2.5-2.5zm10 0c2.5 0 2.5 2.5 2.5 2.5v6.25s0 2.5-2.5 2.5-2.5-2.5-2.5-2.5v-6.25c0-2.5 2.5-2.5 2.5-2.5zm10 0c2.5 0 2.5 2.5 2.5 2.5v6.25s0 2.5-2.5 2.5-2.5-2.5-2.5-2.5v-6.25c0-2.5 2.5-2.5 2.5-2.5z"/>
</svg>
