<?xml version="1.0" encoding="UTF-8" standalone="no"?>
<svg
   xmlns:dc="http://purl.org/dc/elements/1.1/"
   xmlns:cc="http://creativecommons.org/ns#"
   xmlns:rdf="http://www.w3.org/1999/02/22-rdf-syntax-ns#"
   xmlns:svg="http://www.w3.org/2000/svg"
   xmlns="http://www.w3.org/2000/svg"
   id="svg2877"
   viewBox="0 0 50 50"
   version="1.1"
   height="50"
   width="50">
  <metadata
     id="metadata2883">
    <rdf:RDF>
      <cc:Work
         rdf:about="">
        <dc:format>image/svg+xml</dc:format>
        <dc:type
           rdf:resource="http://purl.org/dc/dcmitype/StillImage" />
        <dc:title></dc:title>
      </cc:Work>
    </rdf:RDF>
  </metadata>
  <defs
     id="defs2881" />
  <path
     id="path2875"
     d="m 13.75,7.5 c 0,0 -1.25,0 -1.25,1.25 V 20 v 6.25 15 c 0,0 0,1.25 1.25,1.25 h 12.5 c 0,0 11.25,0 11.25,-11.25 0,-3.881953 -1.348917,-6.403222 -3.103516,-8.068359 C 35.475492,21.898046 36.25,20.08936 36.25,17.5 c 0,-10 -8.75,-10 -8.75,-10 z m 5,6.25 h 7.5 c 5,0 5,7.5 0,7.5 h -7.5 z m 0,13.75 h 7.5 c 6.25,0 6.25,8.75 0,8.75 h -7.5 z" />
</svg>
