<?xml version="1.0" encoding="UTF-8"?>
<svg width="50" height="50" version="1.1" viewBox="0 0 50 50" xmlns="http://www.w3.org/2000/svg">
<path d="m15 5c-7.5 0-7.5 7.5-7.5 7.5v25c0 7.5 7.5 7.5 7.5 7.5h25s2.5 0 2.5-2.5c0-1.448-0.83518-2.0444-1.541-2.3008-0.64614-1.3883-1.0428-3.2753-0.13867-5.3066 1.6783-0.47685 1.6797-2.3926 1.6797-2.3926v-25c0-2.5-2.5-2.5-2.5-2.5zm3.75 7.5h15s1.25 0 1.25 1.25-1.25 1.25-1.25 1.25h-15s-1.25 0-1.25-1.25 1.25-1.25 1.25-1.25zm0 5h15s1.25 0 1.25 1.25-1.25 1.25-1.25 1.25h-15s-1.25 0-1.25-1.25 1.25-1.25 1.25-1.25zm-1.25 17.5h18.75c-0.4355 1.3416-0.60124 3.1067 0 5h-18.75s-2.5 0-2.5-2.5 2.5-2.5 2.5-2.5z"/>
</svg>
