<?xml version="1.0" encoding="UTF-8" standalone="no"?>
<svg
   xmlns:dc="http://purl.org/dc/elements/1.1/"
   xmlns:cc="http://creativecommons.org/ns#"
   xmlns:rdf="http://www.w3.org/1999/02/22-rdf-syntax-ns#"
   xmlns:svg="http://www.w3.org/2000/svg"
   xmlns="http://www.w3.org/2000/svg"
   id="svg4"
   viewBox="0 0 50 50"
   version="1.1"
   width="50"
   height="50">
  <metadata
     id="metadata10">
    <rdf:RDF>
      <cc:Work
         rdf:about="">
        <dc:format>image/svg+xml</dc:format>
        <dc:type
           rdf:resource="http://purl.org/dc/dcmitype/StillImage" />
        <dc:title></dc:title>
      </cc:Work>
    </rdf:RDF>
  </metadata>
  <defs
     id="defs8" />
  <path
     style="opacity:0.5"
     id="path2181"
     d="M 8.75,5 C 8.75,5 5,5 5,8.75 v 20 c 0,0 0,3.75 3.75,3.75 H 15 V 27.378815 L 10,27.5 V 10 h 17.5 v 5 h 5 V 8.75 c 0,0 0,-3.75 -3.75,-3.75 z m 12.5,12.5 c 0,0 -3.75,0 -3.75,3.75 v 20 c 0,0 0,3.75 3.75,3.75 h 20 c 0,0 3.75,0 3.75,-3.75 v -20 c 0,0 0,-3.75 -3.75,-3.75 z" />
</svg>
