<?xml version="1.0" encoding="UTF-8"?>
<svg width="50" height="50" version="1.1" viewBox="0 0 50 50" xmlns="http://www.w3.org/2000/svg">
<path d="m22.5 10s1.25 0 1.25 1.25v22.5s0 1.25-1.25 1.25h-5s-1.25 0-1.25-1.25v-22.5s0-1.25 1.25-1.25zm20 3.75s1.25 0 1.25 1.25v18.75s0 1.25-1.25 1.25h-5s-1.25 0-1.25-1.25v-18.75s0-1.25 1.25-1.25zm-10 5s1.25 0 1.25 1.25v13.75s0 1.25-1.25 1.25h-5s-1.25 0-1.25-1.25v-13.75s0-1.25 1.25-1.25zm-20 2.5s1.25 0 1.25 1.25v11.25s0 1.25-1.25 1.25h-5s-1.25 0-1.25-1.25v-11.25s0-1.25 1.25-1.25zm31.25 15c1.25 0 1.25 1.25 1.25 1.25v1.25c0 1.25-1.25 1.25-1.25 1.25h-37.5c-1.25 0-1.25-1.25-1.25-1.25v-1.25c0-1.25 1.25-1.25 1.25-1.25z"/>
</svg>
