<?xml version="1.0" encoding="UTF-8"?>
<svg width="50" height="50" version="1.1" viewBox="0 0 50 50" xmlns="http://www.w3.org/2000/svg">
<path d="m40 11.25s-3.75 0-3.75 3.75c0 0.41883 0.051658 0.78474 0.13477 1.1152l-6.3848 6.3848-7.5-7.5-11.422 11.422c-0.60283-0.16392-1.0781-0.17188-1.0781-0.17188s-3.75 0-3.75 3.75 3.75 3.75 3.75 3.75 3.75 0 3.75-3.75c0-0.41883-0.051658-0.78474-0.13477-1.1152l8.8848-8.8848 7.5 7.5 8.9219-8.9219c0.60283 0.16392 1.0781 0.17188 1.0781 0.17188s3.75 0 3.75-3.75-3.75-3.75-3.75-3.75zm-33.75 25c-1.25 0-1.25 1.25-1.25 1.25v1.25c0 1.25 1.25 1.25 1.25 1.25h37.5c1.25 0 1.25-1.25 1.25-1.25v-1.25c0-1.25-1.25-1.25-1.25-1.25h-37.5z"/>
</svg>
