<?xml version="1.0" encoding="UTF-8"?>
<svg width="50" height="50" version="1.1" viewBox="0 0 50 50" xmlns="http://www.w3.org/2000/svg">
<path d="m25 5c-5 0-5 5-5 5h-3.75v3.75c0 1.25 1.25 1.25 1.25 1.25h15c1.25 0 1.25-1.25 1.25-1.25v-3.75h-3.75s0-5-5-5zm0 2.5a2.5 2.5 0 0 1 2.5 2.5 2.5 2.5 0 0 1 -2.5 2.5 2.5 2.5 0 0 1 -2.5 -2.5 2.5 2.5 0 0 1 2.5 -2.5zm-12.5 2.5c-2.5 0-2.5 2.5-2.5 2.5v30c0 2.5 2.5 2.5 2.5 2.5h25c2.5 0 2.5-2.5 2.5-2.5v-30c0-2.5-2.5-2.5-2.5-2.5h-1.25v5c0 2.5-2.5 2.5-2.5 2.5h-17.5c-2.5 0-2.5-2.5-2.5-2.5v-5z"/>
</svg>
