<?xml version="1.0" encoding="UTF-8"?>
<svg width="50" height="50" version="1.1" viewBox="0 0 50 50" xmlns="http://www.w3.org/2000/svg">
<path d="m20 8.75s-12.5 0-12.5 12.5c0 0.42569 0.016915 0.83328 0.044922 1.2305-2.5149 1.2425-5.0449 3.7395-5.0449 8.7695 0 10 10 10 10 10h25s10 0 10-10c0-5-2.5-7.5-5-8.75 0-7.5-7.5-7.5-7.5-7.5s-1.8182 0.0053-3.6641 0.90039c-1.3985-3.3947-4.4826-7.1504-11.336-7.1504zm1.25 8.75h2.5s1.25 0 1.25 1.25v8.75h5s1.25 0 1.25 1.25-1.25 2.5-1.25 2.5l-6.25 6.25c-1.25 1.25-2.5 0-2.5 0l-6.25-6.25s-1.25-1.25-1.25-2.5c0 0 0-1.25 1.25-1.25h5v-8.75s0-1.25 1.25-1.25z"/>
</svg>
