<?xml version="1.0" encoding="UTF-8"?>
<svg width="50" height="50" version="1.1" viewBox="0 0 50 50" xmlns="http://www.w3.org/2000/svg">
<path d="m20 8.75s-12.5 0-12.5 12.5c0 0.42569 0.016915 0.83328 0.044922 1.2305-2.5149 1.2425-5.0449 3.7395-5.0449 8.7695 0 10 10 10 10 10h25s10 0 10-10c0-5-2.5-7.5-5-8.75 0-7.5-7.5-7.5-7.5-7.5s-1.8182 0.0053-3.6641 0.90039c-1.3985-3.3947-4.4826-7.1504-11.336-7.1504zm2.4102 8.2012c0.40283-0.036621 0.87109 0.080078 1.3398 0.54883l6.25 6.25s1.25 1.25 1.25 2.5-1.25 1.25-1.25 1.25h-5v8.75c0 1.25-1.25 1.25-1.25 1.25h-2.5c-1.25 0-1.25-1.25-1.25-1.25v-8.75h-5c-1.25 0-1.25-1.25-1.25-1.25 0-1.25 1.25-2.5 1.25-2.5l6.25-6.25s0.48877-0.48779 1.1602-0.54883z"/>
</svg>
