<?xml version="1.0" encoding="UTF-8"?>
<svg width="50" height="50" version="1.1" viewBox="0 0 50 50" xmlns="http://www.w3.org/2000/svg">
<path d="m27.039 6.2031c-0.38217 0.011337-0.93061 0.16725-1.1328 0.92188l-9.0586 33.809s-0.32264 1.2077 0.88477 1.5312l4.8301 1.293s1.2077 0.3246 1.5312-0.88281l9.0586-33.809s0.32264-1.2077-0.88477-1.5312l-4.8301-1.293s-0.16914-0.045865-0.39844-0.039062zm-14.422 6.9922c-0.77545-0.036926-1.3672 0.55469-1.3672 0.55469l-10 10c-1.25 1.25 0 2.5 0 2.5l10 10s1.25 1.25 2.5 0l2.5-2.5c1.25-1.25 0-2.5 0-2.5l-6.25-6.25 6.25-6.25s1.25-1.25 0-2.5l-2.5-2.5c-0.39062-0.39062-0.78033-0.5379-1.1328-0.55469zm24.766 0c-0.35248 0.016785-0.74219 0.16406-1.1328 0.55469l-2.5 2.5c-1.25 1.25 0 2.5 0 2.5l6.25 6.25-6.25 6.25s-1.25 1.25 0 2.5l2.5 2.5c1.25 1.25 2.5 0 2.5 0l10-10s1.25-1.25 0-2.5l-10-10s-0.59174-0.59161-1.3672-0.55469z"/>
</svg>
