<?xml version="1.0" encoding="UTF-8" standalone="no"?>
<svg
   xmlns:dc="http://purl.org/dc/elements/1.1/"
   xmlns:cc="http://creativecommons.org/ns#"
   xmlns:rdf="http://www.w3.org/1999/02/22-rdf-syntax-ns#"
   xmlns:svg="http://www.w3.org/2000/svg"
   xmlns="http://www.w3.org/2000/svg"
   id="svg4"
   viewBox="0 0 50 50"
   version="1.1"
   width="50"
   height="50">
  <metadata
     id="metadata10">
    <rdf:RDF>
      <cc:Work
         rdf:about="">
        <dc:format>image/svg+xml</dc:format>
        <dc:type
           rdf:resource="http://purl.org/dc/dcmitype/StillImage" />
        <dc:title></dc:title>
      </cc:Work>
    </rdf:RDF>
  </metadata>
  <defs
     id="defs8" />
  <path
     id="path3710"
     d="M 8.75 7.5 C 6.25 7.5 6.25 10 6.25 10 L 6.25 27.5 C 6.25 35 13.75 35 13.75 35 L 28.75 35 C 28.75 35 36.25 35 36.25 27.5 L 41.25 27.5 C 43.75 27.5 43.75 25 43.75 25 L 43.75 12.5 C 43.75 10 41.25 10 41.25 10 L 36.25 10 C 36.25 10 36.25 7.5 33.75 7.5 L 8.75 7.5 z M 36.25 13.75 L 38.75 13.75 C 40 13.75 40 15 40 15 L 40 22.5 C 40 23.75 38.75 23.75 38.75 23.75 L 36.25 23.75 L 36.25 13.75 z M 3.75 37.5 C 3.75 37.5 2.5 37.5 2.5 38.75 C 2.5 42.5 6.25 42.5 6.25 42.5 L 43.75 42.5 C 43.75 42.5 47.5 42.5 47.5 38.75 C 47.5 37.5 46.25 37.5 46.25 37.5 L 3.75 37.5 z " />
</svg>
