<?xml version="1.0" encoding="UTF-8" standalone="no"?>
<svg
   xmlns:dc="http://purl.org/dc/elements/1.1/"
   xmlns:cc="http://creativecommons.org/ns#"
   xmlns:rdf="http://www.w3.org/1999/02/22-rdf-syntax-ns#"
   xmlns:svg="http://www.w3.org/2000/svg"
   xmlns="http://www.w3.org/2000/svg"
   id="svg4"
   viewBox="0 0 50 50"
   version="1.1"
   width="50"
   height="50">
  <metadata
     id="metadata10">
    <rdf:RDF>
      <cc:Work
         rdf:about="">
        <dc:format>image/svg+xml</dc:format>
        <dc:type
           rdf:resource="http://purl.org/dc/dcmitype/StillImage" />
        <dc:title></dc:title>
      </cc:Work>
    </rdf:RDF>
  </metadata>
  <defs
     id="defs8" />
  <path
     id="path2899"
     d="M 12.5,5 C 12.5,5 5,5 5,12.5 v 6.25 c 0,0 0,2.5 2.5,2.5 H 10 c 0,0 2.5,0 2.5,-2.5 V 15 c 0,0 0,-2.5 2.5,-2.5 h 3.75 c 0,0 2.5,0 2.5,-2.5 V 7.5 c 0,0 0,-2.5 -2.5,-2.5 z m 18.75,0 c 0,0 -2.5,0 -2.5,2.5 V 10 c 0,0 0,2.5 2.5,2.5 H 35 c 0,0 2.5,0 2.5,2.5 v 3.75 c 0,0 0,2.5 2.5,2.5 h 2.5 c 0,0 2.5,0 2.5,-2.5 V 12.5 C 45,12.5 45,5 37.5,5 Z M 7.5,28.75 c 0,0 -2.5,0 -2.5,2.5 v 6.25 c 0,0 0,7.5 7.5,7.5 h 6.25 c 0,0 2.5,0 2.5,-2.5 V 40 c 0,0 0,-2.5 -2.5,-2.5 H 15 c 0,0 -2.5,0 -2.5,-2.5 v -3.75 c 0,0 0,-2.5 -2.5,-2.5 z m 32.5,0 c 0,0 -2.5,0 -2.5,2.5 V 35 c 0,0 0,2.5 -2.5,2.5 h -3.75 c 0,0 -2.5,0 -2.5,2.5 v 2.5 c 0,0 0,2.5 2.5,2.5 h 6.25 c 0,0 7.5,0 7.5,-7.5 v -6.25 c 0,0 0,-2.5 -2.5,-2.5 z" />
</svg>
