<?xml version="1.0" encoding="UTF-8"?>
<svg width="50" height="50" version="1.1" viewBox="0 0 50 50" xmlns="http://www.w3.org/2000/svg">
<path d="m12.5 5s-7.5 0-7.5 7.5v6.25s0 2.5 2.5 2.5h2.5s2.5 0 2.5-2.5v-3.75s0-2.5 2.5-2.5h3.75s2.5 0 2.5-2.5v-2.5s0-2.5-2.5-2.5zm18.75 0s-2.5 0-2.5 2.5v2.5s0 2.5 2.5 2.5h3.75s2.5 0 2.5 2.5v3.75s0 2.5 2.5 2.5h2.5s2.5 0 2.5-2.5v-6.25s0-7.5-7.5-7.5zm-23.75 23.75s-2.5 0-2.5 2.5v6.25s0 7.5 7.5 7.5h6.25s2.5 0 2.5-2.5v-2.5s0-2.5-2.5-2.5h-3.75s-2.5 0-2.5-2.5v-3.75s0-2.5-2.5-2.5zm32.5 0s-2.5 0-2.5 2.5v3.75s0 2.5-2.5 2.5h-3.75s-2.5 0-2.5 2.5v2.5s0 2.5 2.5 2.5h6.25s7.5 0 7.5-7.5v-6.25s0-2.5-2.5-2.5z"/>
</svg>
