<?xml version="1.0" encoding="UTF-8"?>
<svg width="50" height="50" version="1.1" viewBox="0 0 50 50" xmlns="http://www.w3.org/2000/svg">
<path d="m6.25 7.5s-3.75 0-3.75 3.75v3.75h45v-3.75s0-3.75-3.75-3.75h-37.5zm-3.75 15v16.25c0 3.75 3.75 3.75 3.75 3.75h37.5c3.75 0 3.75-3.75 3.75-3.75v-16.25h-45zm6.25 2.5h7.5c1.25 0 1.25 1.25 1.25 1.25v2.5c0 1.25-1.25 1.25-1.25 1.25h-7.5c-1.25 0-1.25-1.25-1.25-1.25v-2.5c0-1.25 1.25-1.25 1.25-1.25zm0 7.5h20s1.25 0 1.25 1.25v2.5s0 1.25-1.25 1.25h-20s-1.25 0-1.25-1.25v-2.5s0-1.25 1.25-1.25z"/>
</svg>
