<?xml version="1.0" encoding="UTF-8" standalone="no"?>
<svg
   xmlns:dc="http://purl.org/dc/elements/1.1/"
   xmlns:cc="http://creativecommons.org/ns#"
   xmlns:rdf="http://www.w3.org/1999/02/22-rdf-syntax-ns#"
   xmlns:svg="http://www.w3.org/2000/svg"
   xmlns="http://www.w3.org/2000/svg"
   id="svg4"
   viewBox="0 0 50 50"
   version="1.1"
   width="50"
   height="50">
  <metadata
     id="metadata10">
    <rdf:RDF>
      <cc:Work
         rdf:about="">
        <dc:format>image/svg+xml</dc:format>
        <dc:type
           rdf:resource="http://purl.org/dc/dcmitype/StillImage" />
        <dc:title></dc:title>
      </cc:Work>
    </rdf:RDF>
  </metadata>
  <defs
     id="defs8" />
  <path
     id="path884"
     d="M 6.25 7.5 C 6.25 7.5 2.5 7.5 2.5 11.25 L 2.5 15 L 47.5 15 L 47.5 11.25 C 47.5 11.25 47.5 7.5 43.75 7.5 L 6.25 7.5 z M 2.5 22.5 L 2.5 38.75 C 2.5 42.5 6.25 42.5 6.25 42.5 L 43.75 42.5 C 47.5 42.5 47.5 38.75 47.5 38.75 L 47.5 22.5 L 2.5 22.5 z M 8.75 25 L 16.25 25 C 17.5 25 17.5 26.25 17.5 26.25 L 17.5 28.75 C 17.5 30 16.25 30 16.25 30 L 8.75 30 C 7.5 30 7.5 28.75 7.5 28.75 L 7.5 26.25 C 7.5 25 8.75 25 8.75 25 z M 8.75 32.5 L 28.75 32.5 C 28.75 32.5 30 32.5 30 33.75 L 30 36.25 C 30 36.25 30 37.5 28.75 37.5 L 8.75 37.5 C 8.75 37.5 7.5 37.5 7.5 36.25 L 7.5 33.75 C 7.5 33.75 7.5 32.5 8.75 32.5 z " />
</svg>
