<?xml version="1.0" encoding="UTF-8"?>
<svg width="50" height="50" version="1.1" viewBox="0 0 50 50" xmlns="http://www.w3.org/2000/svg">
<path d="m15 7.5a7.5 7.5 0 0 0 -7.5 7.5 7.5 7.5 0 0 0 7.5 7.5 7.5 7.5 0 0 0 2.1719 -0.32812l2.8281 2.8281-2.8262 2.8262a7.5 7.5 0 0 0 -2.1738 -0.32617 7.5 7.5 0 0 0 -7.5 7.5 7.5 7.5 0 0 0 7.5 7.5 7.5 7.5 0 0 0 7.5 -7.5 7.5 7.5 0 0 0 -0.32812 -2.1719l2.8281-2.8281 7.5 7.5s5 5 10 0l-12.5-12.5 12.5-12.5s-2.363-2.3645-5.4648-2.2168c-1.4099 0.067152-2.9726 0.654-4.5352 2.2168l-7.5 7.5-2.8262-2.8262a7.5 7.5 0 0 0 0.32617 -2.1738 7.5 7.5 0 0 0 -7.5 -7.5zm0 3.75a3.75 3.75 0 0 1 3.75 3.75 3.75 3.75 0 0 1 -3.75 3.75 3.75 3.75 0 0 1 -3.75 -3.75 3.75 3.75 0 0 1 3.75 -3.75zm10 11.25a2.5 2.5 0 0 1 2.5 2.5 2.5 2.5 0 0 1 -2.5 2.5 2.5 2.5 0 0 1 -2.5 -2.5 2.5 2.5 0 0 1 2.5 -2.5zm-10 8.75a3.75 3.75 0 0 1 3.75 3.75 3.75 3.75 0 0 1 -3.75 3.75 3.75 3.75 0 0 1 -3.75 -3.75 3.75 3.75 0 0 1 3.75 -3.75z"/>
</svg>
