<?xml version="1.0" encoding="UTF-8" standalone="no"?>
<svg
   xmlns:dc="http://purl.org/dc/elements/1.1/"
   xmlns:cc="http://creativecommons.org/ns#"
   xmlns:rdf="http://www.w3.org/1999/02/22-rdf-syntax-ns#"
   xmlns:svg="http://www.w3.org/2000/svg"
   xmlns="http://www.w3.org/2000/svg"
   id="svg4"
   viewBox="0 0 50 50"
   version="1.1"
   width="50"
   height="50">
  <metadata
     id="metadata10">
    <rdf:RDF>
      <cc:Work
         rdf:about="">
        <dc:format>image/svg+xml</dc:format>
        <dc:type
           rdf:resource="http://purl.org/dc/dcmitype/StillImage" />
        <dc:title></dc:title>
      </cc:Work>
    </rdf:RDF>
  </metadata>
  <defs
     id="defs8" />
  <path
     id="path816"
     d="m 10,32.5 c 0,0 -2.5,0 -2.5,2.5 v 5 c 0,2.5 2.5,2.5 2.5,2.5 h 10 c 0,0 2.5,0 2.5,-2.5 v -5 c 0,0 0,-2.5 -2.5,-2.5 z" />
  <path
     d="m 30,22.5 c 0,0 -2.5,0 -2.5,2.5 v 15 c 0,2.5 2.5,2.5 2.5,2.5 h 10 c 0,0 2.5,0 2.5,-2.5 V 25 c 0,0 0,-2.5 -2.5,-2.5 z"
     id="path2812" />
  <path
     d="m 30,7.5 c 0,0 -2.5,0 -2.5,2.5 v 5 c 0,2.5 2.5,2.5 2.5,2.5 h 10 c 0,0 2.5,0 2.5,-2.5 v -5 c 0,0 0,-2.5 -2.5,-2.5 z"
     id="path2814" />
  <path
     d="m 10,7.5 c 0,0 -2.5,0 -2.5,2.5 v 15 c 0,2.5 2.5,2.5 2.5,2.5 h 10 c 0,0 2.5,0 2.5,-2.5 V 10 c 0,0 0,-2.5 -2.5,-2.5 z"
     id="path2816" />
</svg>
