<?xml version="1.0" encoding="UTF-8"?>
<svg width="50" height="50" version="1.1" viewBox="0 0 50 50" xmlns="http://www.w3.org/2000/svg">
<path d="m6.25 5s-3.75 0-3.75 3.75v25s0 3.75 3.75 3.75h13.75v2.5s0 1.25-1.25 1.25h-3.75s-1.25 0-1.25 1.25v1.25s0 1.25 1.25 1.25h20s1.25 0 1.25-1.25v-1.25s0-1.25-1.25-1.25h-3.75s-1.2699-1.59e-4 -1.25-1.25v-2.5h13.75s3.75 0 3.75-3.75v-25s0-3.75-3.75-3.75zm3.75 5h30c2.5 0 2.5 2.5 2.5 2.5v17.5c0 2.5-2.5 2.5-2.5 2.5h-30c-2.5 0-2.5-2.5-2.5-2.5v-17.5c0-2.5 2.5-2.5 2.5-2.5z"/>
</svg>
