<?xml version="1.0" encoding="UTF-8"?>
<svg width="50" height="50" version="1.1" viewBox="0 0 50 50" xmlns="http://www.w3.org/2000/svg">
<path d="m6.25 10s-3.75 0-3.75 3.75v6.25c5 0 5 5 5 5s0 5-5 5v6.25c0 3.75 3.75 3.75 3.75 3.75h37.5s3.75 0 3.75-3.75v-6.25c-5 0-5-5-5-5s0-5 5-5v-6.25c0-3.75-3.75-3.75-3.75-3.75zm22.338 5.6152c0.34876 0.02093 0.61914 0.17774 0.61914 0.17774l2.166 1.25c1.0825 0.625 0.45703 1.707 0.45703 1.707l-8.75 15.156c-0.625 1.0825-1.707 0.45703-1.707 0.45703l-2.166-1.25c-1.0825-0.625-0.45703-1.707-0.45703-1.707l8.75-15.156c0.3125-0.54127 0.73913-0.6557 1.0879-0.63477zm-11.088 1.8848c1.3807 0 2.5 1.1193 2.5 2.5s-1.1193 2.5-2.5 2.5-2.5-1.1193-2.5-2.5 1.1193-2.5 2.5-2.5zm15 10c1.3807 0 2.5 1.1193 2.5 2.5s-1.1193 2.5-2.5 2.5-2.5-1.1193-2.5-2.5 1.1193-2.5 2.5-2.5z"/>
</svg>
