<?xml version="1.0" encoding="UTF-8" standalone="no"?>
<svg
   xmlns:dc="http://purl.org/dc/elements/1.1/"
   xmlns:cc="http://creativecommons.org/ns#"
   xmlns:rdf="http://www.w3.org/1999/02/22-rdf-syntax-ns#"
   xmlns:svg="http://www.w3.org/2000/svg"
   xmlns="http://www.w3.org/2000/svg"
   id="svg4"
   viewBox="0 0 50 50"
   version="1.1"
   width="50"
   height="50">
  <metadata
     id="metadata10">
    <rdf:RDF>
      <cc:Work
         rdf:about="">
        <dc:format>image/svg+xml</dc:format>
        <dc:type
           rdf:resource="http://purl.org/dc/dcmitype/StillImage" />
        <dc:title></dc:title>
      </cc:Work>
    </rdf:RDF>
  </metadata>
  <defs
     id="defs8" />
  <path
     id="path4045"
     d="m 6.25,10 c 0,0 -3.75,0 -3.75,3.75 V 20 c 5,0 5,5 5,5 0,0 0,5 -5,5 v 6.25 C 2.5,40 6.25,40 6.25,40 h 37.5 c 0,0 3.75,0 3.75,-3.75 V 30 c -5,0 -5,-5 -5,-5 0,0 0,-5 5,-5 V 13.75 C 47.5,10 43.75,10 43.75,10 Z m 22.337891,5.615234 c 0.348758,0.02093 0.61914,0.177735 0.61914,0.177735 l 2.166016,1.25 c 1.082532,0.625 0.457031,1.707031 0.457031,1.707031 l -8.75,15.15625 c -0.625,1.082532 -1.707031,0.457031 -1.707031,0.457031 l -2.166016,-1.25 C 18.124499,32.488281 18.75,31.40625 18.75,31.40625 L 27.5,16.25 c 0.3125,-0.541266 0.739133,-0.655699 1.087891,-0.634766 z M 17.5,17.5 c 1.380712,0 2.5,1.119288 2.5,2.5 0,1.380712 -1.119288,2.5 -2.5,2.5 -1.380712,0 -2.5,-1.119288 -2.5,-2.5 0,-1.380712 1.119288,-2.5 2.5,-2.5 z m 15,10 c 1.380712,0 2.5,1.119288 2.5,2.5 0,1.380712 -1.119288,2.5 -2.5,2.5 -1.380712,0 -2.5,-1.119288 -2.5,-2.5 0,-1.380712 1.119288,-2.5 2.5,-2.5 z" />
</svg>
