<?xml version="1.0" encoding="UTF-8" standalone="no"?>
<svg
   xmlns:dc="http://purl.org/dc/elements/1.1/"
   xmlns:cc="http://creativecommons.org/ns#"
   xmlns:rdf="http://www.w3.org/1999/02/22-rdf-syntax-ns#"
   xmlns:svg="http://www.w3.org/2000/svg"
   xmlns="http://www.w3.org/2000/svg"
   id="svg4"
   viewBox="0 0 50 50"
   version="1.1"
   width="50"
   height="50">
  <metadata
     id="metadata10">
    <rdf:RDF>
      <cc:Work
         rdf:about="">
        <dc:format>image/svg+xml</dc:format>
        <dc:type
           rdf:resource="http://purl.org/dc/dcmitype/StillImage" />
        <dc:title></dc:title>
      </cc:Work>
    </rdf:RDF>
  </metadata>
  <defs
     id="defs8" />
  <path
     id="path816"
     d="M 8.75,5 C 7.5,5 7.5,6.25 7.5,6.25 7.5,20 20,25 20,25 20,25 7.5,30 7.5,43.75 c 0,0 0,1.25 1.25,1.25 h 2.5 c 1.25,0 1.25,-1.25 1.25,-1.25 0,-0.878718 0.05286,-1.71089 0.148438,-2.5 H 37.351562 C 37.44714,42.03911 37.5,42.871282 37.5,43.75 c 0,0 0,1.25 1.25,1.25 h 2.5 C 42.5,45 42.5,43.75 42.5,43.75 42.5,30 30,25 30,25 30,25 42.5,20 42.5,6.25 42.5,6.25 42.5,5 41.25,5 h -2.5 C 37.5,5 37.5,6.25 37.5,6.25 c 0,0.8787177 -0.05286,1.7108901 -0.148438,2.5 H 12.648438 C 12.55286,7.9608901 12.5,7.1287177 12.5,6.25 12.5,6.25 12.5,5 11.25,5 Z m 4.779297,7.5 h 22.941406 c -0.327732,0.910508 -0.720229,1.741978 -1.162109,2.5 H 14.691406 c -0.44188,-0.758022 -0.834377,-1.589492 -1.162109,-2.5 z m 4.273437,6.25 H 32.197266 C 28.790348,21.728914 25,22.5 25,22.5 c 0,0 -3.790348,-0.771086 -7.197266,-3.75 z M 25,27.5 c 0,0 3.790348,0.771086 7.197266,3.75 H 17.802734 C 21.209652,28.271086 25,27.5 25,27.5 Z M 14.691406,35 h 20.617188 c 0.44188,0.758022 0.834377,1.589492 1.162109,2.5 H 13.529297 c 0.327732,-0.910508 0.720229,-1.741978 1.162109,-2.5 z" />
</svg>
