<?xml version="1.0" encoding="UTF-8"?>
<svg width="50" height="50" version="1.1" viewBox="0 0 50 50" xmlns="http://www.w3.org/2000/svg">
<path d="m8.75 5c-1.25 0-1.25 1.25-1.25 1.25 0 13.75 12.5 18.75 12.5 18.75s-12.5 5-12.5 18.75c0 0 0 1.25 1.25 1.25h2.5c1.25 0 1.25-1.25 1.25-1.25 0-0.87872 0.05286-1.7109 0.14844-2.5h24.703c0.095578 0.78911 0.14844 1.6213 0.14844 2.5 0 0 0 1.25 1.25 1.25h2.5c1.25 0 1.25-1.25 1.25-1.25 0-13.75-12.5-18.75-12.5-18.75s12.5-5 12.5-18.75c0 0 0-1.25-1.25-1.25h-2.5c-1.25 0-1.25 1.25-1.25 1.25 0 0.87872-0.05286 1.7109-0.14844 2.5h-24.703c-0.095578-0.78911-0.14844-1.6213-0.14844-2.5 0 0 0-1.25-1.25-1.25zm4.7793 7.5h22.941c-0.32773 0.91051-0.72023 1.742-1.1621 2.5h-20.617c-0.44188-0.75802-0.83438-1.5895-1.1621-2.5zm4.2734 6.25h14.395c-3.4069 2.9789-7.1973 3.75-7.1973 3.75s-3.7903-0.77109-7.1973-3.75zm7.1973 8.75s3.7903 0.77109 7.1973 3.75h-14.395c3.4069-2.9789 7.1973-3.75 7.1973-3.75zm-10.309 7.5h20.617c0.44188 0.75802 0.83438 1.5895 1.1621 2.5h-22.941c0.32773-0.91051 0.72023-1.742 1.1621-2.5z"/>
</svg>
