<?xml version="1.0" encoding="UTF-8"?>
<svg width="50" height="50" version="1.1" viewBox="0 0 50 50" xmlns="http://www.w3.org/2000/svg">
<path d="m25 20-6.25-6.25 2.5-2.5s1.25-1.25 0-2.5-2.5-1.25-2.5-1.25h-7.5s-3.75 0-3.75 3.75v7.5s0 1.25 1.25 2.5 2.5 0 2.5 0l2.5-2.2268 6.25 5.9768-6.25 6.25-2.5-2.5s-1.25-1.25-2.5 0-1.25 2.5-1.25 2.5v7.5s0 3.75 3.75 3.75h7.5s1.25 0 2.5-1.25 0-2.5 0-2.5l-2.5-2.5 6.25-6.25 6.25 6.25-2.5 2.5s-1.25 1.25 0 2.5 2.5 1.25 2.5 1.25h7.5s3.75 0 3.75-3.75v-7.5s0-1.25-1.25-2.5-2.5 0-2.5 0l-2.5 2.5-6.25-6.25 6.25-6.25 2.5 2.5s1.25 1.25 2.5 0 1.25-2.5 1.25-2.5v-7.5s0-3.75-3.75-3.75h-7.5s-1.25 0-2.5 1.25 0 2.5 0 2.5l2.5 2.5z"/>
</svg>
