<?xml version="1.0" encoding="UTF-8" standalone="no"?>
<svg
   xmlns:dc="http://purl.org/dc/elements/1.1/"
   xmlns:cc="http://creativecommons.org/ns#"
   xmlns:rdf="http://www.w3.org/1999/02/22-rdf-syntax-ns#"
   xmlns:svg="http://www.w3.org/2000/svg"
   xmlns="http://www.w3.org/2000/svg"
   id="svg4"
   viewBox="0 0 50 50"
   version="1.1"
   width="50"
   height="50">
  <metadata
     id="metadata10">
    <rdf:RDF>
      <cc:Work
         rdf:about="">
        <dc:format>image/svg+xml</dc:format>
        <dc:type
           rdf:resource="http://purl.org/dc/dcmitype/StillImage" />
        <dc:title></dc:title>
      </cc:Work>
    </rdf:RDF>
  </metadata>
  <defs
     id="defs8" />
  <path
     id="path1403"
     d="M 33.75 5 C 33.75 5 32.5 5 31.25 6.25 C 30 7.5 31.25 8.75 31.25 8.75 L 33.75 11.25 L 17.5 27.5 C 17.5 27.5 16.25 28.75 17.5 30 L 20 32.5 C 21.25 33.75 22.5 32.5 22.5 32.5 L 38.75 16.25 L 41.25 18.75 C 41.25 18.75 42.5 20 43.75 18.75 C 45 17.5 45 16.25 45 16.25 L 45 8.75 C 45 8.75 45 5 41.25 5 L 33.75 5 z M 12.5 7.5 C 7.5 7.5 7.5 12.5 7.5 12.5 L 7.5 37.5 C 7.5 42.5 12.5 42.5 12.5 42.5 L 37.5 42.5 C 42.5 42.5 42.5 37.5 42.5 37.5 L 42.5 27.5 C 42.5 26.25 41.25 26.25 41.25 26.25 L 38.75 26.25 C 37.5 26.25 37.5 27.5 37.5 27.5 L 37.5 37.5 L 12.5 37.5 L 12.5 12.5 L 22.5 12.5 C 23.75 12.5 23.75 11.25 23.75 11.25 L 23.75 8.75 C 23.75 7.5 22.5 7.5 22.5 7.5 L 12.5 7.5 z " />
</svg>
