<?xml version="1.0" encoding="UTF-8"?>
<svg width="50" height="50" version="1.1" viewBox="0 0 50 50" xmlns="http://www.w3.org/2000/svg">
<path d="m33.75 5s-1.25 0-2.5 1.25 0 2.5 0 2.5l2.5 2.5-16.25 16.25s-1.25 1.25 0 2.5l2.5 2.5c1.25 1.25 2.5 0 2.5 0l16.25-16.25 2.5 2.5s1.25 1.25 2.5 0 1.25-2.5 1.25-2.5v-7.5s0-3.75-3.75-3.75h-7.5zm-21.25 2.5c-5 0-5 5-5 5v25c0 5 5 5 5 5h25c5 0 5-5 5-5v-10c0-1.25-1.25-1.25-1.25-1.25h-2.5c-1.25 0-1.25 1.25-1.25 1.25v10h-25v-25h10c1.25 0 1.25-1.25 1.25-1.25v-2.5c0-1.25-1.25-1.25-1.25-1.25h-10z"/>
</svg>
