<?xml version="1.0" encoding="UTF-8"?>
<svg width="50" height="50" version="1.1" viewBox="0 0 50 50" xmlns="http://www.w3.org/2000/svg">
<path d="m25 5c-11.046 0-20 8.9543-20 20s8.9543 20 20 20 20-8.9543 20-20-8.9543-20-20-20zm-6.25 12.5c1.3807 0 2.5 1.1193 2.5 2.5s-1.1193 2.5-2.5 2.5-2.5-1.1193-2.5-2.5 1.1193-2.5 2.5-2.5zm12.5 0c1.3807 0 2.5 1.1193 2.5 2.5s-1.1193 2.5-2.5 2.5-2.5-1.1193-2.5-2.5 1.1193-2.5 2.5-2.5zm-13.75 13.75h15s1.25 0 1.25 1.25-1.25 1.25-1.25 1.25h-15s-1.25 0-1.25-1.25 1.25-1.25 1.25-1.25z"/>
</svg>
