<?xml version="1.0" encoding="UTF-8"?>
<svg width="50" height="50" version="1.1" viewBox="0 0 50 50" xmlns="http://www.w3.org/2000/svg">
<path d="m25 5a20 20 0 0 0-20 20 20 20 0 0 0 20 20 20 20 0 0 0 20-20 20 20 0 0 0-20-20zm-6.25 12.5a2.5 2.5 0 0 1 2.5 2.5 2.5 2.5 0 0 1-2.5 2.5 2.5 2.5 0 0 1-2.5-2.5 2.5 2.5 0 0 1 2.5-2.5zm12.5 0a2.5 2.5 0 0 1 2.5 2.5 2.5 2.5 0 0 1-2.5 2.5 2.5 2.5 0 0 1-2.5-2.5 2.5 2.5 0 0 1 2.5-2.5zm1.7656 12.914c0.95038 0.04846 1.7425 1.2902 0.82227 2.1738-2.3439 2.3439-5.5232 3.6621-8.8379 3.6621s-6.494-1.3182-8.8379-3.6621c-0.8039-0.78152-0.25203-2.1445 0.86914-2.1465 0.33842-5.13e-4 0.66259 0.1362 0.89844 0.37891 1.8757 1.8757 4.4177 2.9297 7.0703 2.9297s5.1946-1.054 7.0703-2.9297c0.29454-0.30675 0.62852-0.4224 0.94531-0.40625z"/>
</svg>
