<?xml version="1.0" encoding="UTF-8" standalone="no"?>
<svg
   xmlns:dc="http://purl.org/dc/elements/1.1/"
   xmlns:cc="http://creativecommons.org/ns#"
   xmlns:rdf="http://www.w3.org/1999/02/22-rdf-syntax-ns#"
   xmlns:svg="http://www.w3.org/2000/svg"
   xmlns="http://www.w3.org/2000/svg"
   id="svg4"
   viewBox="0 0 50 50"
   version="1.1"
   width="50"
   height="50">
  <metadata
     id="metadata10">
    <rdf:RDF>
      <cc:Work
         rdf:about="">
        <dc:format>image/svg+xml</dc:format>
        <dc:type
           rdf:resource="http://purl.org/dc/dcmitype/StillImage" />
        <dc:title></dc:title>
      </cc:Work>
    </rdf:RDF>
  </metadata>
  <defs
     id="defs8" />
  <path
     id="path816"
     d="M 25,5 A 20,20 0 0 0 5,25 20,20 0 0 0 25,45 20,20 0 0 0 45,25 20,20 0 0 0 25,5 Z m -6.25,12.5 a 2.5,2.5 0 0 1 2.5,2.5 2.5,2.5 0 0 1 -2.5,2.5 2.5,2.5 0 0 1 -2.5,-2.5 2.5,2.5 0 0 1 2.5,-2.5 z m 12.5,0 a 2.5,2.5 0 0 1 2.5,2.5 2.5,2.5 0 0 1 -2.5,2.5 2.5,2.5 0 0 1 -2.5,-2.5 2.5,2.5 0 0 1 2.5,-2.5 z M 25,28.75 c 3.314726,0 6.494026,1.318244 8.837891,3.662109 1.227,1.178137 -0.589442,2.994579 -1.767579,1.767579 C 30.194609,32.303984 27.652645,31.25 25,31.25 c -2.652645,0 -5.194609,1.053984 -7.070312,2.929688 -0.235847,0.242704 -0.560017,0.379419 -0.898438,0.378906 -1.121173,-0.002 -1.673043,-1.364965 -0.869141,-2.146485 C 18.505974,30.068244 21.685274,28.75 25,28.75 Z" />
</svg>
