<?xml version="1.0" encoding="UTF-8" standalone="no"?>
<svg
   xmlns:dc="http://purl.org/dc/elements/1.1/"
   xmlns:cc="http://creativecommons.org/ns#"
   xmlns:rdf="http://www.w3.org/1999/02/22-rdf-syntax-ns#"
   xmlns:svg="http://www.w3.org/2000/svg"
   xmlns="http://www.w3.org/2000/svg"
   id="svg4"
   viewBox="0 0 50 50"
   version="1.1"
   width="50"
   height="50">
  <metadata
     id="metadata10">
    <rdf:RDF>
      <cc:Work
         rdf:about="">
        <dc:format>image/svg+xml</dc:format>
        <dc:type
           rdf:resource="http://purl.org/dc/dcmitype/StillImage" />
        <dc:title></dc:title>
      </cc:Work>
    </rdf:RDF>
  </metadata>
  <defs
     id="defs8" />
  <path
     id="path816"
     d="M 25,5 A 20,20 0 0 0 5,25 20,20 0 0 0 25,45 20,20 0 0 0 45,25 20,20 0 0 0 25,5 Z m -6.25,12.5 a 2.5,2.5 0 0 1 2.5,2.5 2.5,2.5 0 0 1 -2.5,2.5 2.5,2.5 0 0 1 -2.5,-2.5 2.5,2.5 0 0 1 2.5,-2.5 z m 12.5,0 a 2.5,2.5 0 0 1 2.5,2.5 2.5,2.5 0 0 1 -2.5,2.5 2.5,2.5 0 0 1 -2.5,-2.5 2.5,2.5 0 0 1 2.5,-2.5 z m 1.765625,12.914062 c 0.950385,0.04846 1.742516,1.290226 0.822266,2.173829 C 31.494026,34.931756 28.314726,36.25 25,36.25 c -3.314726,0 -6.494026,-1.318244 -8.837891,-3.662109 -0.803902,-0.78152 -0.252032,-2.144485 0.869141,-2.146485 0.338421,-5.13e-4 0.662591,0.136203 0.898438,0.378906 C 19.805391,32.696016 22.347355,33.75 25,33.75 c 2.652645,0 5.194609,-1.053984 7.070312,-2.929688 0.294535,-0.30675 0.628518,-0.422402 0.945313,-0.40625 z" />
</svg>
