<?xml version="1.0" encoding="UTF-8"?>
<svg width="50" height="50" version="1.1" viewBox="0 0 50 50" xmlns="http://www.w3.org/2000/svg">
<path d="m25 5a20 20 0 0 0-20 20 20 20 0 0 0 20 20 20 20 0 0 0 20-20 20 20 0 0 0-20-20zm-6.25 12.5a2.5 2.5 0 0 1 2.5 2.5 2.5 2.5 0 0 1-2.5 2.5 2.5 2.5 0 0 1-2.5-2.5 2.5 2.5 0 0 1 2.5-2.5zm12.5 0a2.5 2.5 0 0 1 2.5 2.5 2.5 2.5 0 0 1-2.5 2.5 2.5 2.5 0 0 1-2.5-2.5 2.5 2.5 0 0 1 2.5-2.5zm-16.25 10h20c1.25 0 1.25 1.25 1.25 1.25s0 10-11.25 10-11.25-10-11.25-10 0-1.25 1.25-1.25z"/>
</svg>
