<?xml version="1.0" encoding="UTF-8"?>
<svg width="50" height="50" version="1.1" viewBox="0 0 50 50" xmlns="http://www.w3.org/2000/svg">
<path d="m25 5a20 20 0 0 0-20 20 20 20 0 0 0 20 20 20 20 0 0 0 20-20 20 20 0 0 0-20-20zm-6.25 12.5a2.5 2.5 0 0 1 2.5 2.5 2.5 2.5 0 0 1-2.5 2.5 2.5 2.5 0 0 1-2.5-2.5 2.5 2.5 0 0 1 2.5-2.5zm12.5 0a2.5 2.5 0 0 1 2.5 2.5 2.5 2.5 0 0 1-2.5 2.5 2.5 2.5 0 0 1-2.5-2.5 2.5 2.5 0 0 1 2.5-2.5zm-6.25 11.25c3.3147 0 6.494 1.3182 8.8379 3.6621 1.227 1.1781-0.58944 2.9946-1.7676 1.7676-1.8757-1.8757-4.4177-2.9297-7.0703-2.9297s-5.1946 1.054-7.0703 2.9297c-0.23585 0.2427-0.56002 0.37942-0.89844 0.37891-1.1212-2e-3 -1.673-1.365-0.86914-2.1465 2.3439-2.3439 5.5232-3.6621 8.8379-3.6621z"/>
</svg>
