<?xml version="1.0" encoding="UTF-8"?>
<svg width="50" height="50" version="1.1" viewBox="0 0 50 50" xmlns="http://www.w3.org/2000/svg">
<path d="m25 5c-11.046 0-20 8.9543-20 20s8.9543 20 20 20 20-8.9543 20-20-8.9543-20-20-20zm6.25 12.4c2.0379 0 3.9503 1.0963 5.1191 2.7656 1.0317 1.3773-1.1051 2.8739-2.0469 1.4336-0.70251-1.0033-1.8475-1.4004-3.0723-1.4004s-2.3698 0.3971-3.0723 1.4004c-0.94175 1.4403-3.0786-0.05625-2.0469-1.4336 1.1689-1.6693 3.0813-2.7656 5.1191-2.7656zm-12.5 0.099609c1.3807 0 2.5 1.1193 2.5 2.5s-1.1193 2.5-2.5 2.5-2.5-1.1193-2.5-2.5 1.1193-2.5 2.5-2.5zm14.266 12.914c0.95038 0.04846 1.7425 1.2902 0.82227 2.1738-2.3439 2.3439-5.5232 3.6621-8.8379 3.6621s-6.494-1.3182-8.8379-3.6621c-0.8039-0.78152-0.25203-2.1445 0.86914-2.1465 0.33842-5.13e-4 0.66259 0.1362 0.89844 0.37891 1.8757 1.8757 4.4177 2.9297 7.0703 2.9297s5.1946-1.054 7.0703-2.9297c0.29454-0.30675 0.62852-0.4224 0.94531-0.40625z"/>
</svg>
