<?xml version="1.0" encoding="UTF-8"?>
<svg width="50" height="50" version="1.1" viewBox="0 0 50 50" xmlns="http://www.w3.org/2000/svg">
<path d="m12.5 5s-2.5 0-2.5 2.5v35s0 2.5 2.5 2.5h25s2.5 0 2.5-2.5v-25h-10s-2.5 0-2.5-2.5v-10h-5v2.5h-2.5v2.5h2.5v2.5h-2.5v2.5h2.5v2.5h-2.5v2.5h2.5v2.5h-2.5v2.5h2.5v2.5s1.25 5 1.25 6.25c0 0 0 3.75-3.75 3.75s-3.75-3.75-3.75-3.75c0-1.25 1.25-6.25 1.25-6.25h2.5v-2.5h-2.5v-2.5h2.5v-2.5h-2.5v-2.5h2.5v-2.5h-2.5v-2.5h2.5v-2.5h-2.5v-2.5h2.5v-2.5zm17.5 0v7.5s0 2.5 2.5 2.5h7.5zm-10 27.5a1.25 1.25 0 0 0 -1.25 1.25 1.25 1.25 0 0 0 1.25 1.25 1.25 1.25 0 0 0 1.25 -1.25 1.25 1.25 0 0 0 -1.25 -1.25z"/>
</svg>
