<?xml version="1.0" encoding="UTF-8"?>
<svg width="50" height="50" version="1.1" viewBox="0 0 50 50" xmlns="http://www.w3.org/2000/svg">
<path d="m12.5 5s-2.5 0-2.5 2.5v35s0 2.5 2.5 2.5h25s2.5 0 2.5-2.5v-25h-10s-2.5 0-2.5-2.5v-10zm17.5 0v7.5s0 2.5 2.5 2.5h7.5zm-13.75 20h17.5s1.25 0 1.25 1.25-1.25 1.25-1.25 1.25h-17.5s-1.25 0-1.25-1.25 1.25-1.25 1.25-1.25zm0 5h17.5s1.25 0 1.25 1.25-1.25 1.25-1.25 1.25h-17.5s-1.25 0-1.25-1.25 1.25-1.25 1.25-1.25zm0 5h17.5s1.25 0 1.25 1.25-1.25 1.25-1.25 1.25h-17.5s-1.25 0-1.25-1.25 1.25-1.25 1.25-1.25z"/>
</svg>
