<?xml version="1.0" encoding="UTF-8"?>
<svg width="50" height="50" version="1.1" viewBox="0 0 50 50" xmlns="http://www.w3.org/2000/svg">
<path d="m12.5 5s-2.5 0-2.5 2.5v35s0 2.5 2.5 2.5h25s2.5 0 2.5-2.5v-25h-10s-2.5 0-2.5-2.5v-10zm17.5 0v7.5s0 2.5 2.5 2.5h7.5zm-12.5 15a2.5 2.5 0 0 1 2.5 2.5 2.5 2.5 0 0 1 -2.5 2.5 2.5 2.5 0 0 1 -2.5 -2.5 2.5 2.5 0 0 1 2.5 -2.5zm12.59 5.7012c0.67139 0.061035 1.1602 0.54883 1.1602 0.54883l3.75 3.75v7.5h-20v-5l2.5-2.5s1.25-1.25 2.5 0l2.5 2.5 6.25-6.25c0.46875-0.46875 0.93701-0.58545 1.3398-0.54883z"/>
</svg>
