<?xml version="1.0" encoding="UTF-8"?>
<svg width="50" height="50" version="1.1" viewBox="0 0 50 50" xmlns="http://www.w3.org/2000/svg">
<path d="m8.8398 4.4512c-0.40283-0.036621-0.87109 0.080078-1.3398 0.54883l-2.5 2.5s-1.25 1.25 0 2.5l5 5-6.25 6.25c-3.75 3.75 0 7.5 0 7.5l12.5 12.5c3.75 3.75 7.5 0 7.5 0l16.25-16.25c1.25-1.25 0-2.5 0-2.5l-17.5-17.5c-0.46875-0.46875-0.93701-0.58545-1.3398-0.54883-0.67139 0.061035-1.1602 0.54883-1.1602 0.54883l-5 5-5-5s-0.48877-0.48779-1.1602-0.54883zm12.41 5.5488 13.75 13.75-1.25 1.25h-26.25v-1.25l5.625-5.625 3.125 3.125s1.25 1.25 2.5 0l2.5-2.5s1.25-1.25 0-2.5l-3.125-3.125zm18.75 21.25s-3.75 5-3.75 8.75c0 0 0 3.75 3.75 3.75s3.75-3.75 3.75-3.75c0-3.75-3.75-8.75-3.75-8.75z"/>
</svg>
