<?xml version="1.0" encoding="UTF-8"?>
<svg width="50" height="50" version="1.1" viewBox="0 0 50 50" xmlns="http://www.w3.org/2000/svg">
<path d="m18.75 5s-1.25 0-1.25 1.25v1.25c0 1.25 1.25 1.25 1.25 1.25v11.25s-8.75 10-8.75 17.5 7.5 7.5 7.5 7.5h15s7.5 0 7.5-7.5-8.75-17.5-8.75-17.5v-11.25s1.25 0 1.25-1.25v-1.25c0-1.25-1.25-1.25-1.25-1.25h-11.25zm3.75 3.75h5v12.5c0.05334 0.27224 5.3724 7.0067 7.6855 12.32-5.7633-0.87709-8.2404-4.8203-12.686-4.8203-3.75 0-4.2717 0.69857-6.0234 1.4883 2.5682-4.544 6.0234-8.9883 6.0234-8.9883z"/>
</svg>
