<?xml version="1.0" encoding="UTF-8"?>
<svg width="50" height="50" version="1.1" viewBox="0 0 50 50" xmlns="http://www.w3.org/2000/svg">
<path d="m42.549 20.889c-1.5441 0.19468-3.6495-0.12837-3.9325-1.9932-0.38737-1.9236 1.8821-2.6181 2.3884-4.1715 0.73789-2.0137-1.3653-3.1789-2.4705-4.4701-1.1305-1.4502-3.3379-1.5274-4.4905-0.05852-1.0947 2.1097-4.6116 1.6749-4.8137-0.79842 0.15368-1.5512 0.05158-3.8036-1.84-4.2047-1.7126-0.15821-3.6621-0.45253-5.2526 0.28442-1.7537 1.088-0.73474 3.2287-1.4211 4.78-0.70632 1.6463-3.0768 1.7358-4.1168 0.35895-1.0032-1.551-3.2463-2.0806-4.6084-0.66064-1.1453 1.3975-3.4966 2.6154-2.7832 4.7691 0.77401 1.6187 3.4269 2.9099 2.0629 5.0121-1.041 1.8016-3.2389 0.72495-4.7733 1.4459-1.9269 0.79728-1.3675 3.1007-1.4656 4.7415-0.28287 1.8727 1.3205 3.4119 3.1721 3.1915 2.2599-0.77572 4.5721 2.1688 2.7885 3.9819-1.2881 0.99613-2.7208 2.8697-1.3936 4.4235 1.2457 1.2236 2.3317 3.0675 4.1635 3.3617 2.0761 0.28823 2.6855-2.3092 4.5861-2.4601 2.5307-0.26384 2.824 2.6641 2.7043 4.5139 0.44855 2.2819 3.1147 2.1005 4.89 1.9907 2.0119 0.48983 3.7813-1.6035 3.2528-3.5279-0.20513-1.5841 1.0918-3.3004 2.7876-2.9787 1.7987 0.29596 2.4445 2.7881 4.4541 2.4552 1.976-0.37277 3.2173-2.316 4.4355-3.7596 1.2003-2.2456-1.688-3.3583-2.2719-5.1532-0.40845-1.8955 1.6849-3.2977 3.3963-2.8323 1.7816 0.24245 3.3129-1.3786 2.9477-3.1459 0.01519-1.8241 0.43537-4.6525-2.0015-5.072l-0.39765-0.0228zm-9.1237 4.1028c0.18899 5.0653-5.0973 9.3467-10.023 8.1576-4.6504-0.87928-7.8277-6.1695-6.2569-10.674 1.3419-4.4317 6.7199-7.0773 11.017-5.226 3.0873 1.2179 5.3343 4.398 5.2633 7.7425z"/>
</svg>
