<?xml version="1.0" encoding="UTF-8" standalone="no"?>
<svg xmlns:rdf="http://www.w3.org/1999/02/22-rdf-syntax-ns#" xmlns="http://www.w3.org/2000/svg" xml:space="preserve" height="48" width="48" version="1.1" xmlns:cc="http://creativecommons.org/ns#" xmlns:dc="http://purl.org/dc/elements/1.1/" viewBox="0 0 48 48"><path style="fill:#000000" d="m40.672 20.095c-1.4669 0.18495-3.467-0.12195-3.7359-1.8935-0.368-1.8274 1.788-2.4872 2.269-3.9629 0.701-1.913-1.297-3.02-2.347-4.2466-1.074-1.3777-3.171-1.451-4.266-0.0556-1.04 2.0042-4.381 1.5912-4.573-0.7585 0.146-1.4736 0.049-3.6134-1.748-3.9945-1.627-0.1503-3.479-0.4299-4.99 0.2702-1.666 1.0336-0.698 3.0673-1.35 4.541-0.671 1.564-2.923 1.649-3.911 0.341-0.953-1.4734-3.084-1.9766-4.378-0.6276-1.088 1.3276-3.3218 2.4846-2.644 4.5306 0.73531 1.5378 3.2556 2.7644 1.9598 4.7615-0.98891 1.7115-3.077 0.6887-4.5346 1.3736-1.8306 0.75742-1.2991 2.9457-1.3923 4.5044-0.26873 1.7791 1.2545 3.2413 3.0135 3.0319 2.1469-0.73693 4.3435 2.0604 2.6491 3.7828-1.2237 0.94632-2.5848 2.7262-1.3239 4.2023 1.1834 1.1624 2.2151 2.9141 3.9553 3.1936 1.9723 0.27382 2.5512-2.1937 4.3568-2.3371 2.4042-0.25065 2.6828 2.5309 2.5691 4.2882 0.42612 2.1678 2.959 1.9955 4.6455 1.8912 1.9113 0.46534 3.5922-1.5233 3.0902-3.3515-0.19487-1.5049 1.0372-3.1354 2.6482-2.8298 1.7088 0.28116 2.3223 2.6487 4.2314 2.3324 1.8772-0.35413 3.0564-2.2002 4.2137-3.5716 1.1403-2.1333-1.6036-3.1904-2.1583-4.8955-0.38803-1.8007 1.6007-3.1328 3.2265-2.6907 1.6925 0.23033 3.1473-1.3097 2.8003-2.9886 0.01443-1.7329 0.4136-4.4199-1.9014-4.8184l-0.37777-0.02166zm-8.6675 3.8977c0.17954 4.812-4.8424 8.8794-9.5214 7.7497-4.4179-0.83532-7.4363-5.861-5.9441-10.14 1.2748-4.2101 6.3839-6.7234 10.466-4.9647 2.9329 1.157 5.0676 4.1781 5.0001 7.3554z"/></svg>
