<?xml version="1.0" encoding="UTF-8"?>
<svg width="50" height="50" version="1.1" viewBox="0 0 50 50" xmlns="http://www.w3.org/2000/svg">
<path d="m20.09 6.9512c-0.40283-0.036621-0.87109 0.080078-1.3398 0.54883l-2.5 2.5s-1.25 1.25 0 2.5h-8.75c-2.5 0-2.5 2.5-2.5 2.5v3.75c0 1.25 1.25 1.25 1.25 1.25h37.5c1.25 0 1.25-1.25 1.25-1.25v-3.75c0-2.5-2.5-2.5-2.5-2.5h-8.75s1.25-1.25 0-2.5l-2.5-2.5s-1.25-1.25-2.5 0l-3.75 3.75-3.75-3.75s-0.48877-0.48779-1.1602-0.54883zm-12.59 15.549v17.5s0 2.5 2.5 2.5h12.5v-20h-15zm20 0v20h12.5s2.5 0 2.5-2.5v-17.5h-15z"/>
</svg>
