<?xml version="1.0" encoding="UTF-8"?>
<svg width="50" height="50" version="1.1" viewBox="0 0 50 50" xmlns="http://www.w3.org/2000/svg">
<path d="m10 7.5s-2.5 0-2.5 2.5v5s0 2.5 2.5 2.5h5s2.5 0 2.5-2.5v-5s0-2.5-2.5-2.5h-5zm12.5 0s-2.5 0-2.5 2.5v5s0 2.5 2.5 2.5h5s2.5 0 2.5-2.5v-5s-1.78e-4 -2.5298-2.5-2.5h-5zm12.5 0s-2.5 0-2.5 2.5v5s0 2.5 2.5 2.5h5s2.5 0 2.5-2.5v-5s0-2.5-2.5-2.5h-5zm-25 12.5s-2.5 0-2.5 2.5v5s0 2.5 2.5 2.5h5s2.5 0 2.5-2.5v-5s0-2.5-2.5-2.5h-5zm12.5 0s-2.5 0-2.5 2.5v5s0 2.5 2.5 2.5h5s2.5 0 2.5-2.5v-5s0-2.5-2.5-2.5h-5zm12.5 0s-2.5 0-2.5 2.5v5s0 2.5 2.5 2.5h5s2.5 0 2.5-2.5v-5s0-2.5-2.5-2.5h-5zm-25 12.5s-2.5 0-2.5 2.5v5s0 2.5 2.5 2.5h5s2.5 0 2.5-2.5v-5s0-2.5-2.5-2.5h-5zm12.5 0s-2.5 0-2.5 2.5v5s0 2.5 2.5 2.5h5s2.5 0 2.5-2.5v-5s0-2.5-2.5-2.5h-5zm12.5 0s-2.5 0-2.5 2.5v5s0 2.5 2.5 2.5h5s2.5 0 2.5-2.5v-5s0-2.5-2.5-2.5h-5z"/>
</svg>
