<?xml version="1.0" encoding="UTF-8"?>
<svg width="50" height="50" version="1.1" viewBox="0 0 50 50" xmlns="http://www.w3.org/2000/svg">
<path d="m10.09 5.7012c-0.40283-0.036621-0.87109 0.080078-1.3398 0.54883l-2.5 2.5c-1.25 1.25 0 2.5 0 2.5l32.5 32.5s1.25 1.25 2.5 0l2.5-2.5c1.25-1.25 0-2.5 0-2.5l-4.8164-4.8164c5.2221-3.5218 8.5664-7.6836 8.5664-7.6836s1.25-1.25 0-2.5c0 0-10-12.5-22.5-12.5-2.5825 0-5.0486 0.55178-7.3516 1.3984l-6.3984-6.3984s-0.48877-0.48779-1.1602-0.54883zm14.91 9.2988a10 10 0 0 1 10 10 10 10 0 0 1-0.89258 4.1074l-2.9668-2.9668a6.25 6.25 0 0 0 0.10938-1.1406 6.25 6.25 0 0 0-6.25-6.25 6.25 6.25 0 0 0-1.1406 0.10938l-2.9648-2.9648a10 10 0 0 1 4.1055-0.89453zm-16.803 3.1973c-3.5384 2.8755-5.6973 5.5527-5.6973 5.5527-1.25 1.25 0 2.5 0 2.5s10 12.5 22.5 12.5c1.1712 0 2.3203-0.10968 3.4414-0.30859l-3.4414-3.4414a10 10 0 0 1-10-10z"/>
</svg>
