<?xml version="1.0" encoding="UTF-8"?>
<svg width="50" height="50" version="1.1" viewBox="0 0 50 50" xmlns="http://www.w3.org/2000/svg">
<path d="m23.75 7.5-6.25 6.25v-3.75s0-1.25-1.25-1.25h-2.5c-1.25 0-1.25 1.25-1.25 1.25v8.75l-7.5 7.5s-1.25 1.25 0 2.5l1.25 1.25c1.25 1.25 2.5 0 2.5 0l16.25-16.25 16.25 16.25c1.25 1.25 2.5 0 2.5 0l1.25-1.25c1.25-1.25 0-2.5 0-2.5l-18.75-18.75s-1.25-1.25-2.5 0zm1.25 10-12.5 12.5v12.5h8.75v-8.75s0-1.25 1.25-1.25h5c1.25 0 1.25 1.25 1.25 1.25v8.75h8.75v-12.5z"/>
</svg>
