<?xml version="1.0" encoding="UTF-8"?>
<svg width="50" height="50" version="1.1" viewBox="0 0 50 50" xmlns="http://www.w3.org/2000/svg">
<path d="m6.25 10s-3.75 0-3.75 3.75v22.5c0 3.75 3.75 3.75 3.75 3.75h37.5s3.75 0 3.75-3.75v-22.5s0-3.75-3.75-3.75zm2.5 5h2.5s1.25 0 1.25 1.25v2.5s0 1.25-1.25 1.25h-2.5s-1.25 0-1.25-1.25v-2.5s0-1.25 1.25-1.25zm7.5 0h2.5s1.25 0 1.25 1.25v2.5s0 1.25-1.25 1.25h-2.5s-1.25 0-1.25-1.25v-2.5s0-1.25 1.25-1.25zm7.5 0h2.5s1.25 0 1.25 1.25v2.5s0 1.25-1.25 1.25h-2.5s-1.25 0-1.25-1.25v-2.5s0-1.25 1.25-1.25zm7.5 0h2.5s1.25 0 1.25 1.25v2.5s0 1.25-1.25 1.25h-2.5s-1.25 0-1.25-1.25v-2.5s0-1.25 1.25-1.25zm7.5 0h2.5s1.25 0 1.25 1.25v2.5s0 1.25-1.25 1.25h-2.5s-1.25 0-1.25-1.25v-2.5s0-1.25 1.25-1.25zm-30 7.5h2.5s1.25 0 1.25 1.25v2.5s0 1.25-1.25 1.25h-2.5s-1.25 0-1.25-1.25v-2.5s0-1.25 1.25-1.25zm7.5 0h2.5s1.25 0 1.25 1.25v2.5s0 1.25-1.25 1.25h-2.5s-1.25 0-1.25-1.25v-2.5s0-1.25 1.25-1.25zm7.5 0h2.5s1.25 0 1.25 1.25v2.5s0 1.25-1.25 1.25h-2.5s-1.25 0-1.25-1.25v-2.5s0-1.25 1.25-1.25zm7.5 0h2.5s1.25 0 1.25 1.25v2.5s0 1.25-1.25 1.25h-2.5s-1.25 0-1.25-1.25v-2.5s0-1.25 1.25-1.25zm7.5 0h2.5s1.25 0 1.25 1.25v2.5s0 1.25-1.25 1.25h-2.5s-1.25 0-1.25-1.25v-2.5s0-1.25 1.25-1.25zm-23.75 7.5h20s1.25 0 1.25 1.25v2.5s0 1.25-1.25 1.25h-20s-1.25 0-1.25-1.25v-2.5s0-1.25 1.25-1.25z"/>
</svg>
