<?xml version="1.0" encoding="UTF-8" standalone="no"?>
<svg
   xmlns:dc="http://purl.org/dc/elements/1.1/"
   xmlns:cc="http://creativecommons.org/ns#"
   xmlns:rdf="http://www.w3.org/1999/02/22-rdf-syntax-ns#"
   xmlns:svg="http://www.w3.org/2000/svg"
   xmlns="http://www.w3.org/2000/svg"
   id="svg4"
   viewBox="0 0 50 50"
   version="1.1"
   width="50"
   height="50">
  <metadata
     id="metadata10">
    <rdf:RDF>
      <cc:Work
         rdf:about="">
        <dc:format>image/svg+xml</dc:format>
        <dc:type
           rdf:resource="http://purl.org/dc/dcmitype/StillImage" />
        <dc:title></dc:title>
      </cc:Work>
    </rdf:RDF>
  </metadata>
  <defs
     id="defs8" />
  <path
     id="path816"
     d="M 8.75,5 C 8.75,5 5,5 5,8.75 V 35 H 45 V 8.75 C 45,8.75 45,5 41.25,5 Z m 2.5,3.75 h 27.5 c 2.5,0 2.5,2.5 2.5,2.5 v 17.5 c 0,2.5 -2.5,2.5 -2.5,2.5 h -27.5 c -2.5,0 -2.5,-2.5 -2.5,-2.5 v -17.5 c 0,-2.5 2.5,-2.5 2.5,-2.5 z" />
  <path
     id="path957"
     d="M 0,37.5 V 40 c 0,0 0,5 5,5 h 40 c 0,0 5,0 5,-5 V 37.5 H 30 c 0,0 0,2.5 -2.5,2.5 h -5 c 0,0 -2.5,0 -2.5,-2.5 z" />
</svg>
