<?xml version="1.0" encoding="UTF-8"?>
<svg width="50" height="50" version="1.1" viewBox="0 0 50 50" xmlns="http://www.w3.org/2000/svg">
<path d="m22.5 7.5-15 7.5s-2.5 1.25 0 2.5l15 7.5c2.5 1.25 5 0 5 0l15-7.5s2.5-1.25 0-2.5l-15-7.5c-2.5-1.25-5 0-5 0zm17.5 15-12.5 6.25c-2.5 1.25-5 0-5 0l-12.5-6.25-2.5 1.25c-2.5 1.25 0 2.5 0 2.5l15 7.5s2.5 1.25 5 0l15-7.5c2.5-1.25 0-2.5 0-2.5zm0 8.75-12.5 6.25s-2.5 1.25-5 0l-12.5-6.25-2.5 1.25s-2.5 1.25 0 2.5l15 7.5c2.5 1.25 5 0 5 0l15-7.5s2.5-1.25 0-2.5z"/>
</svg>
