<?xml version="1.0" encoding="UTF-8"?>
<svg width="50" height="50" version="1.1" viewBox="0 0 50 50" xmlns="http://www.w3.org/2000/svg">
<path d="m8.2871 8.25-2.1621 2.0215l1.127 1.2051 0.79688-0.85547 0.015625 4.0547h-1.7031v1.5742h5.3281v-1.5742h-1.7168v-6.4258zm10.463 1.75c-1.25 0-1.25 1.25-1.25 1.25v2.5s0 1.25 1.25 1.25h25c1.25 0 1.25-1.25 1.25-1.25v-2.5s0-1.25-1.25-1.25zm-9.7656 10.812c-0.6042 0-1.1557 0.15027-1.6504 0.44727-0.4949 0.296-0.86513 0.70823-1.1152 1.2402l1.3281 0.92188c0.3645-0.603 0.78652-0.90625 1.2656-0.90625 0.2604 0 0.46413 0.06994 0.61523 0.21094 0.1511 0.141 0.22852 0.34056 0.22852 0.60156 0 0.24-0.12434 0.47412-0.36914 0.70312s-0.53706 0.45764-0.88086 0.68164c-0.3437 0.224-0.68745 0.46923-1.0312 0.74023-0.3438 0.27-0.63997 0.6245-0.88477 1.0625s-0.36523 0.92212-0.36523 1.4531v0.78125h5.7285l0.021484-2.4219h-1.6406v0.9375h-1.9844c0.0104-0.259 0.19343-0.53336 0.55273-0.81836 0.3594-0.287 0.75454-0.55102 1.1816-0.79102 0.4268-0.239 0.81788-0.57481 1.1719-1.0078 0.354-0.432 0.53125-0.90869 0.53125-1.4297 0-0.739-0.26025-1.3238-0.78125-1.7578-0.521-0.432-1.1615-0.64844-1.9219-0.64844zm9.7656 1.6875c-1.25 0-1.25 1.25-1.25 1.25v2.5s0 1.25 1.25 1.25h25c1.25 0 1.25-1.25 1.25-1.25v-2.5s0-1.25-1.25-1.25zm-12.422 10.984v2.375h1.6562v-0.82812c0.1667 0 0.41736-0.0046 0.75586-0.01563 0.3386-0.009995 0.59317-0.01562 0.75977-0.01562v0.01563c-0.198 0.188-0.39062 0.38756-0.57812 0.60156-0.1875 0.214-0.41082 0.49475-0.66602 0.84375-0.2552 0.349-0.42256 0.57569-0.50586 0.67969l0.40625 0.875c1.0937-0.083 1.6406 0.209 1.6406 0.875 0 0.293-0.11399 0.51306-0.33789 0.66406-0.224 0.152-0.48511 0.22656-0.78711 0.22656-0.5938 0-1.1458-0.23512-1.6562-0.70312l-0.89062 1.375c0.6874 0.687 1.5835 1.0312 2.6875 1.0312 0.8438 0 1.5472-0.23975 2.1152-0.71875s0.85156-1.1338 0.85156-1.9688c0-0.53-0.15675-0.989-0.46875-1.375-0.313-0.386-0.73237-0.63962-1.2637-0.76562l1.4805-1.7969v-1.375zm12.422 1.5156c-1.25 0-1.25 1.25-1.25 1.25v2.5s0 1.25 1.25 1.25h25c1.25 0 1.25-1.25 1.25-1.25v-2.5s0-1.25-1.25-1.25z"/>
</svg>
