<?xml version="1.0" encoding="UTF-8"?>
<svg width="50" height="50" version="1.1" viewBox="0 0 50 50" xmlns="http://www.w3.org/2000/svg">
<path d="m8.75 8.75a3.75 3.75 0 0 0 -3.75 3.75 3.75 3.75 0 0 0 3.75 3.75 3.75 3.75 0 0 0 3.75 -3.75 3.75 3.75 0 0 0 -3.75 -3.75zm10 1.25c-1.25 0-1.25 1.25-1.25 1.25v2.5s0 1.25 1.25 1.25h25c1.25 0 1.25-1.25 1.25-1.25v-2.5s0-1.25-1.25-1.25zm-10 11.25a3.75 3.75 0 0 0 -3.75 3.75 3.75 3.75 0 0 0 3.75 3.75 3.75 3.75 0 0 0 3.75 -3.75 3.75 3.75 0 0 0 -3.75 -3.75zm10 1.25c-1.25 0-1.25 1.25-1.25 1.25v2.5s0 1.25 1.25 1.25h25c1.25 0 1.25-1.25 1.25-1.25v-2.5s0-1.25-1.25-1.25zm-10 11.25a3.75 3.75 0 0 0 -3.75 3.75 3.75 3.75 0 0 0 3.75 3.75 3.75 3.75 0 0 0 3.75 -3.75 3.75 3.75 0 0 0 -3.75 -3.75zm10 1.25c-1.25 0-1.25 1.25-1.25 1.25v2.5s0 1.25 1.25 1.25h25c1.25 0 1.25-1.25 1.25-1.25v-2.5s0-1.25-1.25-1.25z"/>
</svg>
