<?xml version="1.0" encoding="UTF-8" standalone="no"?>
<svg
   xmlns:dc="http://purl.org/dc/elements/1.1/"
   xmlns:cc="http://creativecommons.org/ns#"
   xmlns:rdf="http://www.w3.org/1999/02/22-rdf-syntax-ns#"
   xmlns:svg="http://www.w3.org/2000/svg"
   xmlns="http://www.w3.org/2000/svg"
   id="svg4"
   viewBox="0 0 50 50"
   version="1.1"
   width="50"
   height="50">
  <metadata
     id="metadata10">
    <rdf:RDF>
      <cc:Work
         rdf:about="">
        <dc:format>image/svg+xml</dc:format>
        <dc:type
           rdf:resource="http://purl.org/dc/dcmitype/StillImage" />
        <dc:title></dc:title>
      </cc:Work>
    </rdf:RDF>
  </metadata>
  <defs
     id="defs8" />
  <path
     id="path822"
     d="M 2.5,10 C 0,10 0,12.5 0,12.5 v 25 c 0,0 0,2.5 2.5,2.5 h 45 C 50,40 50,37.5 50,37.5 v -25 c 0,0 0,-2.5 -2.5,-2.5 z m 7.5,5 h 30 c 0,5 5,5 5,5 v 10 c 0,0 -5,0 -5,5 H 10 C 10,30 5,30 5,30 V 20 c 0,0 5,0 5,-5 z m 15,2.5 c -3.75,0 -6.25,2.5 -6.25,7.5 0,5 2.5,7.5 6.25,7.5 3.75,0 6.25,-2.5 6.25,-7.5 0,-5 -2.5,-7.5 -6.25,-7.5 z" />
</svg>
