<?xml version="1.0" encoding="UTF-8"?>
<svg width="50" height="50" version="1.1" viewBox="0 0 50 50" xmlns="http://www.w3.org/2000/svg">
<path d="m15 5s-1.25 0-1.25 1.25v3.75h-2.5c-3.75 0-3.75 3.75-3.75 3.75v27.5c0 3.75 3.75 3.75 3.75 3.75h27.5c3.75 0 3.75-3.75 3.75-3.75v-27.5s0-3.75-3.75-3.75h-2.5v-3.75s0-1.25-1.25-1.25h-2.5s-1.25 0-1.25 1.25v3.75h-3.75v-3.75s0-1.25-1.25-1.25h-2.5s-1.3391 0.00318-1.25 1.25v3.75h-3.75v-3.75s0-1.25-1.25-1.25zm-1.25 10h11.25c1.25 0 1.25 1.25 1.25 1.25v2.5c0 1.25-1.25 1.25-1.25 1.25h-11.25c-1.25 0-1.25-1.25-1.25-1.25v-2.5c0-1.25 1.25-1.25 1.25-1.25zm0 8.75h22.5c1.25 0 1.25 1.25 1.25 1.25v2.5c0 1.25-1.25 1.25-1.25 1.25h-22.5c-1.25 0-1.25-1.25-1.25-1.25v-2.5c0-1.25 1.25-1.25 1.25-1.25z"/>
</svg>
