<?xml version="1.0" encoding="UTF-8"?>
<svg width="50" height="50" version="1.1" viewBox="0 0 50 50" xmlns="http://www.w3.org/2000/svg">
<path d="m5 25c0 20 20 20 20 20s5 0 5-5c0-1.25-1.25-2.5-1.25-2.5s-2.5-3.75 1.25-3.75c2.5 0 2.5 1.25 5 1.25 0 0 10 0 10-10 0 0 0-20-20-20s-20 20-20 20zm13.75-15c2.0437 0 3.7501 1.7063 3.75 3.75 0 2.0436-1.7064 3.75-3.75 3.75s-3.75-1.7064-3.75-3.75c-5.5e-5 -2.0437 1.7063-3.75 3.75-3.75zm12.55 0.0497c2.0436 0 3.7003 1.6567 3.7003 3.7003-5.5e-5 2.0436-1.7064 3.75-3.75 3.75s-3.7499-1.7064-3.75-3.75c0-2.0436 1.7561-3.7003 3.7997-3.7003zm-17.55 11.2c2.0436 0 3.75 1.7064 3.75 3.75s-1.7064 3.75-3.75 3.75-3.75-1.7064-3.75-3.75 1.7064-3.75 3.75-3.75zm22.5 0c2.0437 0 3.7501 1.7063 3.75 3.75 0 2.0436-1.7064 3.75-3.75 3.75s-3.7003-1.756-3.7003-3.7996c-5.5e-5 -2.0437 1.6566-3.7004 3.7003-3.7004z"/>
</svg>
