<?xml version="1.0" encoding="UTF-8"?>
<svg width="50" height="50" version="1.1" viewBox="0 0 50 50" xmlns="http://www.w3.org/2000/svg">
<path d="m17.5 5s-1.25 0-1.25 1.25v1.25s0 1.25 1.25 1.25h1.25v8.75s-10 2.5-10 13.75 10 13.75 10 13.75h12.5s10-2.5 10-13.75-10-13.75-10-13.75v-8.75h1.25c1.25 0 1.25-1.25 1.25-1.25v-1.25s0-1.25-1.25-1.25h-7.5zm5 3.75h5v11.25s10 1.25 10 11.25c0 0.41441-0.02645 0.80711-0.0625 1.1914-7.7056-0.58717-10.355-6.1979-17.438-6.1914-3.6794 0.0034-5.8527 0.91179-7.1152 1.834 1.8277-7.1064 9.6152-8.084 9.6152-8.084z"/>
</svg>
