<?xml version="1.0" encoding="UTF-8"?>
<svg width="50" height="50" version="1.1" viewBox="0 0 50 50" xmlns="http://www.w3.org/2000/svg">
<path d="m20 10c0 2.5 1.25 2.5 1.25 5 0 0 0 1.25-1.25 1.25h-8.75s-2.5 0-2.5 2.5v7.5c0 1.25 1.25 1.25 1.25 1.25 2.5 0 2.5-1.25 5-1.25 0 0 5 0 5 5s-5 5-5 5c-2.5 0-2.5-1.25-5-1.25 0 0-1.25 0-1.25 1.25v6.25s0 2.5 2.5 2.5h27.5c2.5 0 2.5-2.5 2.5-2.5v-6.25c0-1.25-1.25-1.25-1.25-1.25-2.5 0-2.5 1.25-5 1.25 0 0-5 0-5-5s5-5 5-5c2.5 0 2.5 1.25 5 1.25 0 0 1.25 0 1.25-1.25v-7.5s0-2.5-2.5-2.5h-8.75c-1.25 0-1.25-1.25-1.25-1.25 0-2.5 1.25-2.5 1.25-5 0 0 0-5-5-5s-5 5-5 5z"/>
</svg>
