<?xml version="1.0" encoding="UTF-8"?>
<svg width="50" height="50" version="1.1" viewBox="0 0 50 50" xmlns="http://www.w3.org/2000/svg">
<path d="m25 5c-7.5 0-10 2.5-13.75 6.25-1.25 1.25 0 2.5 0 2.5l3.75 3.75s1.25 1.25 2.5 0c2.4362-3.1663 4.1465-3.7483 7.5-3.75 2.5 0 5 1.25 5 3.75s-3.75 3.75-3.75 3.75c-3.75 1.25-6.25 5.7703-6.25 8.75v1.25s0 1.25 1.25 1.25h7.5c1.25 0 1.25-1.25 1.25-1.25v-1.25c0-5 10-5 10-12.5s-7.5-12.5-15-12.5zm0 30c-2.7614 0-5 2.2386-5 5s2.2386 5 5 5 5-2.2386 5-5-2.2386-5-5-5z"/>
</svg>
