<?xml version="1.0" encoding="UTF-8"?>
<svg width="50" height="50" version="1.1" viewBox="0 0 50 50" xmlns="http://www.w3.org/2000/svg">
<path d="m7.5 7.5s-2.5 0.166-2.5 2.5v13.75s0 2.5 2.5 2.5h5c2.5 0 2.5 2.5 2.5 2.5v1.25c0 5-5 5-5 5h-1.25c-1.25 0-1.25 1.25-1.25 1.25v5s0 1.25 1.25 1.25h1.25s12.5 0 12.5-12.5v-20c0-2.5-2.5-2.5-2.5-2.5zm22.5 0c-2.5 0-2.5 2.5-2.5 2.5v13.75s0 2.5 2.5 2.5h5s2.5 0 2.5 2.5v1.25c0 5-5 5-5 5h-1.25c-1.25 0-1.25 1.25-1.25 1.25v5s0 1.25 1.25 1.25h1.25s12.5 0 12.5-12.5v-20c0-2.5-2.5-2.5-2.5-2.5z"/>
</svg>
