<?xml version="1.0" encoding="UTF-8"?>
<svg width="50" height="50" version="1.1" viewBox="0 0 50 50" xmlns="http://www.w3.org/2000/svg">
<path d="m41.25 6.25c-18.75 0-26.25 11.25-26.25 11.25-5 0-10 5-10 10 0 0 0 1.25 1.25 1.25 3.75 0 6.25-1.25 6.25-1.25v3.75l6.25 6.25h3.75s-1.25 2.5-1.25 6.25c0 0 0 1.25 1.25 1.25 5 0 10-5 10-10 0 0 11.25-7.5 11.25-26.25 0-2.5 0-2.5-2.5-2.5zm-11.25 10a3.75 3.75 0 0 1 3.75 3.75 3.75 3.75 0 0 1 -3.75 3.75 3.75 3.75 0 0 1 -3.75 -3.75 3.75 3.75 0 0 1 3.75 -3.75zm-20 17.5s-2.5 1.25-2.5 6.25c0 2.5 0 2.5 2.5 2.5 5 0 6.25-2.5 6.25-2.5z"/>
</svg>
