<?xml version="1.0" encoding="UTF-8"?>
<svg width="50" height="50" version="1.1" viewBox="0 0 50 50" xmlns="http://www.w3.org/2000/svg">
<path d="m11.25 7.5s-3.75 0-3.75 3.75v27.5c0 3.75 3.75 3.75 3.75 3.75h27.5c3.75 0 3.75-3.75 3.75-3.75v-23.75l-7.5-7.5h-1.25v8.75s0 2.5-2.5 2.5h-11.25c-2.5 0-2.5-2.5-2.5-2.5v-8.75zm16.25 1.25c-1.25 0-1.25 1.25-1.25 1.25v6.25s0 1.25 1.25 1.25h2.5c1.25 0 1.25-1.25 1.25-1.25v-6.25s0-1.25-1.25-1.25zm-12.5 16.25h20s2.5 0 2.5 2.5v7.5s0 2.5-2.5 2.5h-20s-2.5 0-2.5-2.5v-7.5c0-2.5 2.5-2.5 2.5-2.5z"/>
</svg>
