<?xml version="1.0" encoding="UTF-8"?>
<svg width="50" height="50" version="1.1" viewBox="0 0 50 50" xmlns="http://www.w3.org/2000/svg">
<path d="m20 5c-8.2843 0-15 6.7157-15 15s6.7157 15 15 15c3.1413-0.0045 6.2018-0.99511 8.75-2.832v0.33203s0 1.25 1.25 2.5l8.75 8.75s1.25 1.25 2.5 0l2.5-2.5s1.25-1.25 0-2.5l-8.75-8.75s-1.25-1.25-2.5-1.25h-0.33984c1.8397-2.5472 2.833-5.6079 2.8398-8.75 0-8.2843-6.7157-15-15-15zm0 5c5.5228 0 10 4.4772 10 10s-4.4772 10-10 10-10-4.4772-10-10 4.4772-10 10-10zm-6.25 7.5s-1.25 0-1.25 1.25v2.5s0 1.25 1.25 1.25h12.5s1.25 0 1.25-1.25v-2.5s0-1.25-1.25-1.25z"/>
</svg>
