<?xml version="1.0" encoding="UTF-8" standalone="no"?>
<svg
   xmlns:dc="http://purl.org/dc/elements/1.1/"
   xmlns:cc="http://creativecommons.org/ns#"
   xmlns:rdf="http://www.w3.org/1999/02/22-rdf-syntax-ns#"
   xmlns:svg="http://www.w3.org/2000/svg"
   xmlns="http://www.w3.org/2000/svg"
   id="svg4"
   viewBox="0 0 50 50"
   version="1.1"
   width="50"
   height="50">
  <metadata
     id="metadata10">
    <rdf:RDF>
      <cc:Work
         rdf:about="">
        <dc:format>image/svg+xml</dc:format>
        <dc:type
           rdf:resource="http://purl.org/dc/dcmitype/StillImage" />
        <dc:title></dc:title>
      </cc:Work>
    </rdf:RDF>
  </metadata>
  <defs
     id="defs8" />
  <path
     id="path1403"
     d="M 7.5,7.5 C 7.5,7.5 5,7.5 5,10 v 5 c 0,0 0,2.5 2.5,2.5 h 35 c 0,0 2.5,0 2.5,-2.5 v -5 c 0,0 0,-2.5 -2.5,-2.5 z m 26.875,3.125 c 1.035534,0 1.875,0.839466 1.875,1.875 0,1.035534 -0.839466,1.875 -1.875,1.875 -1.035534,0 -1.875,-0.839466 -1.875,-1.875 0,-1.035534 0.839466,-1.875 1.875,-1.875 z m 6.25,0 c 1.035534,0 1.875,0.839466 1.875,1.875 0,1.035534 -0.839466,1.875 -1.875,1.875 -1.035534,0 -1.875,-0.839466 -1.875,-1.875 0,-1.035534 0.839466,-1.875 1.875,-1.875 z M 7.5,20 C 7.5,20 5,20 5,22.5 v 5 c 0,0 0,2.5 2.5,2.5 h 35 c 0,0 2.5,0 2.5,-2.5 v -5 c 0,0 0,-2.5 -2.5,-2.5 z m 26.875,3.125 c 1.035534,0 1.875,0.839466 1.875,1.875 0,1.035534 -0.839466,1.875 -1.875,1.875 -1.035534,0 -1.875,-0.839466 -1.875,-1.875 0,-1.035534 0.839466,-1.875 1.875,-1.875 z m 6.25,0 c 1.035534,0 1.875,0.839466 1.875,1.875 0,1.035534 -0.839466,1.875 -1.875,1.875 -1.035534,0 -1.875,-0.839466 -1.875,-1.875 0,-1.035534 0.839466,-1.875 1.875,-1.875 z M 7.5,32.5 c 0,0 -2.5,0 -2.5,2.5 v 5 c 0,0 0,2.5 2.5,2.5 h 35 c 0,0 2.5,0 2.5,-2.5 v -5 c 0,0 0,-2.5 -2.5,-2.5 z m 26.875,3.125 c 1.035534,0 1.875,0.839466 1.875,1.875 0,1.035534 -0.839466,1.875 -1.875,1.875 -1.035534,0 -1.875,-0.839466 -1.875,-1.875 0,-1.035534 0.839466,-1.875 1.875,-1.875 z m 6.25,0 c 1.035534,0 1.875,0.839466 1.875,1.875 0,1.035534 -0.839466,1.875 -1.875,1.875 -1.035534,0 -1.875,-0.839466 -1.875,-1.875 0,-1.035534 0.839466,-1.875 1.875,-1.875 z" />
</svg>
