<?xml version="1.0" encoding="UTF-8"?>
<svg width="50" height="50" version="1.1" viewBox="0 0 50 50" xmlns="http://www.w3.org/2000/svg">
<path d="m7.5 7.5s-2.5 0-2.5 2.5v5s0 2.5 2.5 2.5h35s2.5 0 2.5-2.5v-5s0-2.5-2.5-2.5zm26.875 3.125c1.0355 0 1.875 0.83947 1.875 1.875s-0.83947 1.875-1.875 1.875-1.875-0.83947-1.875-1.875 0.83947-1.875 1.875-1.875zm6.25 0c1.0355 0 1.875 0.83947 1.875 1.875s-0.83947 1.875-1.875 1.875-1.875-0.83947-1.875-1.875 0.83947-1.875 1.875-1.875zm-33.125 9.375s-2.5 0-2.5 2.5v5s0 2.5 2.5 2.5h35s2.5 0 2.5-2.5v-5s0-2.5-2.5-2.5zm26.875 3.125c1.0355 0 1.875 0.83947 1.875 1.875s-0.83947 1.875-1.875 1.875-1.875-0.83947-1.875-1.875 0.83947-1.875 1.875-1.875zm6.25 0c1.0355 0 1.875 0.83947 1.875 1.875s-0.83947 1.875-1.875 1.875-1.875-0.83947-1.875-1.875 0.83947-1.875 1.875-1.875zm-33.125 9.375s-2.5 0-2.5 2.5v5s0 2.5 2.5 2.5h35s2.5 0 2.5-2.5v-5s0-2.5-2.5-2.5zm26.875 3.125c1.0355 0 1.875 0.83947 1.875 1.875s-0.83947 1.875-1.875 1.875-1.875-0.83947-1.875-1.875 0.83947-1.875 1.875-1.875zm6.25 0c1.0355 0 1.875 0.83947 1.875 1.875s-0.83947 1.875-1.875 1.875-1.875-0.83947-1.875-1.875 0.83947-1.875 1.875-1.875z"/>
</svg>
