<?xml version="1.0" encoding="UTF-8" standalone="no"?>
<svg
   xmlns:dc="http://purl.org/dc/elements/1.1/"
   xmlns:cc="http://creativecommons.org/ns#"
   xmlns:rdf="http://www.w3.org/1999/02/22-rdf-syntax-ns#"
   xmlns:svg="http://www.w3.org/2000/svg"
   xmlns="http://www.w3.org/2000/svg"
   id="svg4"
   viewBox="0 0 50 50"
   version="1.1"
   width="50"
   height="50">
  <metadata
     id="metadata10">
    <rdf:RDF>
      <cc:Work
         rdf:about="">
        <dc:format>image/svg+xml</dc:format>
        <dc:type
           rdf:resource="http://purl.org/dc/dcmitype/StillImage" />
        <dc:title></dc:title>
      </cc:Work>
    </rdf:RDF>
  </metadata>
  <defs
     id="defs8" />
  <path
     id="path3956"
     d="m 34.802734,5.5058594 c -1.264948,0.08158 -1.96875,1.2988281 -1.96875,1.2988281 l -7.5,12.9902345 c 0,0 -0.498939,0.875134 -0.310546,1.833984 C 25.264618,23.746137 27.5,23.75 27.5,23.75 h 15 c 0,0 2.215982,-0.0023 2.474609,-2.089844 0.191592,-0.961128 -0.308593,-1.839843 -0.308593,-1.839844 l -7.5,-12.9902339 c 0,0 -0.322238,-0.5518021 -0.917969,-0.9375 L 36.25,5.890625 C 36.17563,5.8476873 36.1054,5.8183079 36.033203,5.7832031 35.91385,5.7211378 35.789453,5.6683328 35.652344,5.6269531 35.3477,5.5283455 35.061549,5.4891677 34.802734,5.5058594 Z M 7.5,26.25 c 0,0 -2.5,0 -2.5,2.5 V 42.5 c 0,0 0,2.5 2.5,2.5 h 13.75 c 0,0 2.5,0 2.5,-2.5 V 28.75 c 0,0 0,-2.5 -2.5,-2.5 z m 28.75,1.25 c -4.832491,0 -8.75,3.917509 -8.75,8.75 0,4.832491 3.917509,8.75 8.75,8.75 C 41.082491,45 45,41.082491 45,36.25 45,31.417509 41.082491,27.5 36.25,27.5 Z" />
</svg>
