<?xml version="1.0" encoding="UTF-8"?>
<svg width="50" height="50" version="1.1" viewBox="0 0 50 50" xmlns="http://www.w3.org/2000/svg">
<path d="m34.803 5.5059c-1.2649 0.08158-1.9688 1.2988-1.9688 1.2988l-7.5 12.99s-0.49894 0.87513-0.31055 1.834c0.24118 2.1172 2.4766 2.1211 2.4766 2.1211h15s2.216-0.0023 2.4746-2.0898c0.19159-0.96113-0.30859-1.8398-0.30859-1.8398l-7.5-12.99s-0.32224-0.5518-0.91797-0.9375l0.001953-0.0019531c-0.07437-0.042938-0.1446-0.072317-0.2168-0.10742-0.11935-0.062065-0.24375-0.11487-0.38086-0.15625-0.30464-0.098608-0.5908-0.13779-0.84961-0.12109zm-27.303 20.744s-2.5 0-2.5 2.5v13.75s0 2.5 2.5 2.5h13.75s2.5 0 2.5-2.5v-13.75s0-2.5-2.5-2.5zm28.75 1.25c-4.8325 0-8.75 3.9175-8.75 8.75s3.9175 8.75 8.75 8.75 8.75-3.9175 8.75-8.75-3.9175-8.75-8.75-8.75z"/>
</svg>
