<?xml version="1.0" encoding="UTF-8"?>
<svg width="50" height="50" version="1.1" viewBox="0 0 50 50" xmlns="http://www.w3.org/2000/svg">
<path d="m35 5c-4.1421 0-7.5 3.3579-7.5 7.5 0 0.37232 0.0355 0.73598 0.08789 1.0938l-8.3516 5.2207c-1.2058-0.82735-2.6635-1.3145-4.2363-1.3145-4.1421 0-7.5 3.3579-7.5 7.5s3.3579 7.5 7.5 7.5c1.5728 0 3.0306-0.4871 4.2363-1.3145l8.3516 5.2207c-0.05239 0.35777-0.087891 0.72144-0.087891 1.0938 0 4.1421 3.3579 7.5 7.5 7.5s7.5-3.3579 7.5-7.5-3.3579-7.5-7.5-7.5c-1.5728 0-3.0306 0.4871-4.2363 1.3145l-8.3516-5.2207c0.05239-0.35777 0.087891-0.72144 0.087891-1.0938s-0.0355-0.73598-0.08789-1.0938l8.3516-5.2207c1.2058 0.82735 2.6635 1.3145 4.2363 1.3145 4.1421 0 7.5-3.3579 7.5-7.5s-3.3579-7.5-7.5-7.5z"/>
</svg>
