<?xml version="1.0" encoding="UTF-8"?>
<svg width="50" height="50" version="1.1" viewBox="0 0 50 50" xmlns="http://www.w3.org/2000/svg">
<path d="m25 5c-3.75 0-15 5-15 5s-2.5 1.25-2.5 2.5c0 27.5 16.25 32.5 17.5 32.5s17.5-5 17.5-32.5c0-1.25-2.5-2.5-2.5-2.5s-11.25-5-15-5zm-7.4062 8.1973c0.66729 0.065129 1.1562 0.55273 1.1562 0.55273l6.25 6.25 6.25-6.25s1.25-1.25 2.5 0l1.25 1.25c1.25 1.25 0 2.5 0 2.5l-6.25 6.25 6.25 6.25s1.25 1.25 0 2.5l-1.25 1.25c-1.25 1.25-2.5 0-2.5 0l-6.25-6.25-6.25 6.25s-1.2492 1.2508-2.4824 0.01758l-1.2676-1.2676c-1.25-1.25 0-2.5 0-2.5l6.25-6.25-6.25-6.25s-1.25-1.25 0-2.5l1.2676-1.2676c0.46246-0.46247 0.9258-0.57424 1.3262-0.53516z"/>
</svg>
