<?xml version="1.0" encoding="UTF-8"?>
<svg width="50" height="50" version="1.1" viewBox="0 0 50 50" xmlns="http://www.w3.org/2000/svg">
<path d="m8.75 7.5c-2.5 0-2.5 2.5-2.5 2.5v17.5c0 7.5 7.5 7.5 7.5 7.5h15s7.5 0 7.5-7.5h5c2.5 0 2.5-2.5 2.5-2.5v-12.5c0-2.5-2.5-2.5-2.5-2.5h-5s0-2.5-2.5-2.5h-12.5v3.75s0 2.5-2.5 2.5-2.5-2.5-2.5-2.5v5s0 2.5-2.5 2.5-2.5-2.5-2.5-2.5v-8.75zm27.5 6.25h2.5c1.25 0 1.25 1.25 1.25 1.25v7.5c0 1.25-1.25 1.25-1.25 1.25h-2.5zm-32.5 23.75s-1.25 0-1.25 1.25c0 3.75 3.75 3.75 3.75 3.75h37.5s3.75 0 3.75-3.75c0-1.25-1.25-1.25-1.25-1.25z"/>
</svg>
