<?xml version="1.0" encoding="UTF-8" standalone="no"?>
<svg
   xmlns:dc="http://purl.org/dc/elements/1.1/"
   xmlns:cc="http://creativecommons.org/ns#"
   xmlns:rdf="http://www.w3.org/1999/02/22-rdf-syntax-ns#"
   xmlns:svg="http://www.w3.org/2000/svg"
   xmlns="http://www.w3.org/2000/svg"
   id="svg4"
   viewBox="0 0 50 50"
   version="1.1"
   width="50"
   height="50">
  <metadata
     id="metadata10">
    <rdf:RDF>
      <cc:Work
         rdf:about="">
        <dc:format>image/svg+xml</dc:format>
        <dc:type
           rdf:resource="http://purl.org/dc/dcmitype/StillImage" />
        <dc:title></dc:title>
      </cc:Work>
    </rdf:RDF>
  </metadata>
  <defs
     id="defs8" />
  <path
     id="path1403"
     d="m 8.75,7.5 c -2.5,0 -2.5,2.5 -2.5,2.5 v 17.5 c 0,7.5 7.5,7.5 7.5,7.5 h 15 c 0,0 7.5,0 7.5,-7.5 h 5 c 2.5,0 2.5,-2.5 2.5,-2.5 V 12.5 c 0,-2.5 -2.5,-2.5 -2.5,-2.5 h -5 c 0,0 0,-2.5 -2.5,-2.5 h -12.5 v 3.75 c 0,0 0,2.5 -2.5,2.5 -2.5,0 -2.5,-2.5 -2.5,-2.5 v 5 c 0,0 0,2.5 -2.5,2.5 -2.5,0 -2.5,-2.5 -2.5,-2.5 V 7.5 Z m 27.5,6.25 h 2.5 C 40,13.75 40,15 40,15 v 7.5 c 0,1.25 -1.25,1.25 -1.25,1.25 h -2.5 z M 3.75,37.5 c 0,0 -1.25,0 -1.25,1.25 0,3.75 3.75,3.75 3.75,3.75 h 37.5 c 0,0 3.75,0 3.75,-3.75 0,-1.25 -1.25,-1.25 -1.25,-1.25 z" />
</svg>
