<?xml version="1.0" encoding="UTF-8"?>
<svg width="50" height="50" version="1.1" viewBox="0 0 50 50" xmlns="http://www.w3.org/2000/svg">
<path d="m10 6.25c-3.75 0-3.75 3.75-3.75 3.75v30s0 3.75 3.75 3.75h30c3.75 0 3.75-3.75 3.75-3.75v-30s0-3.75-3.75-3.75zm6.25 7.5c1.7835 0.0028 3.4305 0.95542 4.3223 2.5h15.678c1.25 0 1.25 1.25 1.25 1.25v2.5c0 1.25-1.25 1.25-1.25 1.25h-15.676c-0.89211 1.5452-2.54 2.4979-4.3242 2.5-2.7614 0-5-2.2386-5-5s2.2386-5 5-5zm17.5 12.5c2.7614 0 5 2.2386 5 5s-2.2386 5-5 5c-1.8457 0-3.4404-1.0121-4.3066-2.5h-15.693c-1.25 0-1.25-1.25-1.25-1.25v-2.5c0-1.25 1.25-1.25 1.25-1.25h15.693c0.86622-1.4879 2.4609-2.5 4.3066-2.5z"/>
</svg>
