<?xml version="1.0" encoding="UTF-8" standalone="no"?>
<svg
   height="50"
   width="50"
   version="1.1"
   viewBox="0 0 50 50"
   id="svg4"
   xmlns="http://www.w3.org/2000/svg"
   xmlns:svg="http://www.w3.org/2000/svg"
   xmlns:rdf="http://www.w3.org/1999/02/22-rdf-syntax-ns#"
   xmlns:cc="http://creativecommons.org/ns#"
   xmlns:dc="http://purl.org/dc/elements/1.1/">
  <metadata
     id="metadata10">
    <rdf:RDF>
      <cc:Work
         rdf:about="">
        <dc:format>image/svg+xml</dc:format>
        <dc:type
           rdf:resource="http://purl.org/dc/dcmitype/StillImage" />
      </cc:Work>
    </rdf:RDF>
  </metadata>
  <defs
     id="defs8" />
  <path
     id="path220"
     d="m 12.5,7.5 c 0,0 -5,0 -5,5 v 25 c 0,0 0,5 5,5 h 25 c 0,0 5,0 5,-5 v -25 c 0,0 0,-5 -5,-5 z m 2.5,5 h 20 c 2.5,0 2.5,2.5 2.5,2.5 v 20 c 0,2.5 -2.5,2.5 -2.5,2.5 H 15 c 0,0 -2.5,0 -2.5,-2.5 V 15 c 0,0 0,-2.5 2.5,-2.5 z" />
</svg>
