<?xml version="1.0" encoding="UTF-8"?>
<svg width="50" height="50" version="1.1" viewBox="0 0 50 50" xmlns="http://www.w3.org/2000/svg">
<path d="m24.808 5.0462c-0.50412 0.079853-1.0051 0.26754-1.4503 0.53669-0.2413 0.1462-0.44016 0.353-0.57677 0.59983-1.8004 3.2427-3.3434 6.5621-4.9762 9.774-2.7179 0.34625-5.4348 0.69357-8.1527 1.0397l0.35363-0.0063c-1.1716-0.10935-2.3968 0.10017-3.5154 0.84397-0.55926 0.37189-1.1149 0.93923-1.3662 1.7447-0.25119 0.80553-0.10793 1.7402 0.30312 2.5108 0.063376 0.11792 0.14116 0.22749 0.23155 0.32623 2.4213 2.6641 4.9236 5.2092 7.3401 7.7894-0.48932 2.6143-0.97816 5.2297-1.4672 7.8441l0.03578-0.15152c-0.24431 0.8454-0.61199 2.0895-0.46099 3.4789 0.0755 0.69476 0.31422 1.5106 0.98092 2.1488 0.66672 0.63819 1.6593 0.9053 2.6144 0.84186 0.2037-0.01368 0.40299-0.06589 0.58729-0.15363 3.2007-1.5231 6.2521-3.2332 9.3104-4.8176l8.8851 5.1396-0.0084-0.02316c0.90926 0.56585 1.9144 0.61459 2.8313 0.27149 0.93799-0.35102 1.8743-1.3909 1.8693-2.6434 2.74e-4 -0.064-0.0032-0.12797-0.01056-0.19154-0.46446-3.7632-1.0444-7.4829-1.5724-11.191 1.6892-1.6388 3.3777-3.2778 5.0667-4.9165 0.01501-0.01378 0.02973-0.02779 0.04421-0.0421 0.40591-0.42419 1.5895-1.2981 2.4628-2.4835 0.43668-0.59272 0.8704-1.3548 0.82937-2.3552-0.04103-1.0003-0.69546-1.9595-1.5598-2.5529-0.1832-0.12822-0.39013-0.2155-0.60892-0.25754-3.4789-0.67242-6.9537-1.2393-10.4-1.8481-0.94747-2.1168-1.8963-4.2331-2.8439-6.3498-0.016167-0.037116-0.033732-0.073631-0.052629-0.10944-0.24693-0.45605-0.62464-1.8241-1.3872-3.0539-0.38128-0.61486-0.92901-1.2972-1.8587-1.6312-0.46486-0.16694-0.97358-0.1956-1.4777-0.11576z"/>
</svg>
