<?xml version="1.0" encoding="UTF-8" standalone="no"?>
<svg xmlns:rdf="http://www.w3.org/1999/02/22-rdf-syntax-ns#" xmlns="http://www.w3.org/2000/svg" height="48" width="48" version="1.1" xmlns:cc="http://creativecommons.org/ns#" xmlns:dc="http://purl.org/dc/elements/1.1/" viewBox="0 0 48 48">
<path style="fill:#000000" d="m23.818 5.0439c-0.47892 0.07586-0.95484 0.25416-1.3778 0.50986-0.22924 0.13889-0.41815 0.33535-0.54793 0.56984-1.7104 3.0806-3.1762 6.234-4.7274 9.2853-2.582 0.32894-5.1631 0.65889-7.7451 0.98772l0.33595-0.006c-1.113-0.10388-2.277 0.09516-3.3396 0.80177-0.5313 0.3533-1.0592 0.89227-1.2979 1.6575-0.23863 0.76525-0.10253 1.6532 0.28796 2.3853 0.060208 0.11202 0.1341 0.21612 0.21997 0.30992 2.3002 2.5309 4.6774 4.9487 6.9731 7.3999-0.46485 2.4836-0.92925 4.9682-1.3938 7.4519l0.03399-0.14394c-0.23209 0.80313-0.58139 1.985-0.43794 3.305 0.07172 0.66002 0.29851 1.4351 0.93188 2.0414 0.63338 0.60628 1.5763 0.86004 2.4837 0.79977 0.19352-0.013 0.38284-0.0626 0.55793-0.14595 3.0407-1.4469 5.9395-3.0715 8.8449-4.5767l8.4409 4.8826-0.008-0.022c0.8638 0.53756 1.8187 0.58386 2.6897 0.25792 0.89109-0.33347 1.7806-1.3214 1.7758-2.5112 0.00026-0.0608-0.0031-0.12157-0.01003-0.18196-0.44124-3.575-0.99222-7.1088-1.4938-10.631 1.6047-1.5569 3.2088-3.1139 4.8134-4.6707 0.01425-0.0131 0.02825-0.0264 0.042-0.04 0.38561-0.40298 1.51-1.2332 2.3397-2.3593 0.41485-0.56308 0.82688-1.2871 0.7879-2.2374-0.03898-0.95024-0.66069-1.8615-1.4818-2.4253-0.17406-0.12182-0.37064-0.20474-0.57849-0.24467-3.305-0.6388-6.606-1.1773-9.8803-1.7557-0.90008-2.0109-1.8015-4.0214-2.7017-6.0323-0.01536-0.03526-0.03204-0.06995-0.05-0.10397-0.23457-0.43324-0.59339-1.7329-1.3178-2.9012-0.36222-0.58412-0.88256-1.2323-1.7658-1.5496-0.44162-0.15859-0.9249-0.18582-1.4038-0.10997z"/>
</svg>
