<?xml version="1.0" encoding="UTF-8" standalone="no"?>
<svg
   xmlns:dc="http://purl.org/dc/elements/1.1/"
   xmlns:cc="http://creativecommons.org/ns#"
   xmlns:rdf="http://www.w3.org/1999/02/22-rdf-syntax-ns#"
   xmlns:svg="http://www.w3.org/2000/svg"
   xmlns="http://www.w3.org/2000/svg"
   id="svg4"
   viewBox="0 0 50 50"
   version="1.1"
   width="50"
   height="50">
  <metadata
     id="metadata10">
    <rdf:RDF>
      <cc:Work
         rdf:about="">
        <dc:format>image/svg+xml</dc:format>
        <dc:type
           rdf:resource="http://purl.org/dc/dcmitype/StillImage" />
        <dc:title></dc:title>
      </cc:Work>
    </rdf:RDF>
  </metadata>
  <defs
     id="defs8" />
  <path
     id="path1022"
     d="m 10,40 c 0,0 0,2.5 2.5,2.5 H 15 c 0,0 2.5,0 2.5,-2.5 V 26.25 l 15,15 c 1.25,1.25 2.5,1.25 3.75,1.25 0,0 3.75,0 3.75,-3.75 V 11.25 C 40,7.5 36.25,7.5 36.25,7.5 35,7.5 33.75,7.5 32.5,8.75 l -15,15 V 10 c 0,0 0,-2.5 -2.5,-2.5 h -2.5 c 0,0 -2.5,0 -2.5,2.5 z" />
</svg>
