<?xml version="1.0" encoding="UTF-8"?>
<svg width="50" height="50" version="1.1" viewBox="0 0 50 50" xmlns="http://www.w3.org/2000/svg">
<path d="m24.91 5.7012c-0.67139 0.061035-1.1602 0.54883-1.1602 0.54883l-5 5h-6.25c-1.25 0-1.25 1.25-1.25 1.25v6.25l-5 5c-1.25 1.25 0 2.5 0 2.5l5 5v6.25c0 1.25 1.25 1.25 1.25 1.25h6.25l5 5c1.25 1.25 2.5 0 2.5 0l5-5h6.25c1.25 0 1.25-1.25 1.25-1.25v-6.25l5-5c1.25-1.25 0-2.5 0-2.5l-5-5v-6.25c0-1.25-1.25-1.25-1.25-1.25h-6.25l-5-5c-0.46875-0.46875-0.93701-0.58545-1.3398-0.54883zm0.089844 9.2988a10 10 0 0 1 10 10 10 10 0 0 1-10 10 10 10 0 0 1-10-10 10 10 0 0 1 10-10zm0 3.75a6.25 6.25 0 0 0-6.25 6.25 6.25 6.25 0 0 0 6.25 6.25 6.25 6.25 0 0 0 6.25-6.25 6.25 6.25 0 0 0-6.25-6.25z"/>
</svg>
