<?xml version="1.0" encoding="UTF-8"?>
<svg width="50" height="50" version="1.1" viewBox="0 0 50 50" xmlns="http://www.w3.org/2000/svg">
<path d="m15 7.8125c-0.3125 0-0.625 0.3125-1.25 0.9375l-3.75 3.75-1.25-1.25c-1.25-1.25-1.25-1.25-2.5 0s-1.25 1.25 0 2.5l2.5 2.5c1.25 1.25 1.25 1.25 2.5 0l5-5c1.25-1.25 1.25-1.25 0-2.5-0.625-0.625-0.9375-0.9375-1.25-0.9375zm6.25 2.1875c-1.25 0-1.25 1.25-1.25 1.25v2.5s0 1.25 1.25 1.25h22.5c1.25 0 1.25-1.25 1.25-1.25v-2.5s0-1.25-1.25-1.25h-22.5zm-6.25 10.312c-0.3125 0-0.625 0.3125-1.25 0.9375l-3.75 3.75-1.25-1.25c-1.25-1.25-1.25-1.25-2.5 0s-1.25 1.25 0 2.5l2.5 2.5c1.25 1.25 1.25 1.25 2.5 0l5-5c1.25-1.25 1.25-1.25 0-2.5-0.625-0.625-0.9375-0.9375-1.25-0.9375zm6.25 2.1875c-1.25 0-1.25 1.25-1.25 1.25v2.5s0 1.25 1.25 1.25h22.5c1.25 0 1.25-1.25 1.25-1.25v-2.5s0-1.25-1.25-1.25h-22.5zm-11.25 11.25c-2.0711 0-3.75 1.6789-3.75 3.75s1.6789 3.75 3.75 3.75c2.0711 0 3.75-1.6789 3.75-3.75s-1.6789-3.75-3.75-3.75zm11.25 1.25c-1.25 0-1.25 1.25-1.25 1.25v2.5s0 1.25 1.25 1.25h22.5c1.25 0 1.25-1.25 1.25-1.25v-2.5s0-1.25-1.25-1.25h-22.5z"/>
</svg>
