<?xml version="1.0" encoding="UTF-8"?>
<svg width="50" height="50" version="1.1" viewBox="0 0 50 50" xmlns="http://www.w3.org/2000/svg">
<path d="m6.25 10s-3.75 0-3.75 3.75v22.5c0 3.75 3.75 3.75 3.75 3.75h37.5s3.75 0 3.75-3.75v-22.5c0-3.75-3.75-3.75-3.75-3.75zm6.6582 6.1387c0.41608 0.03783 0.71875 0.33984 0.71875 0.33984l7.7461 7.7461c0.77466 0.77466 0 1.5508 0 1.5508l-7.7461 7.7461c-0.77466 0.77466-1.5488 0-1.5488 0l-0.77539-0.77539c-0.77466-0.77466 0-1.5488 0-1.5488l6.1973-6.1973-6.1973-6.1973c-0.76142-0.78768 0-1.5488 0-1.5488l0.77539-0.77539c0.2905-0.2905 0.58043-0.36254 0.83008-0.33984zm13.342 13.861h11.25c1.25 0 1.25 1.25 1.25 1.25v1.25c0 1.25-1.25 1.25-1.25 1.25h-11.25c-1.25 0-1.25-1.25-1.25-1.25v-1.25c0-1.25 1.25-1.25 1.25-1.25z"/>
</svg>
