<?xml version="1.0" encoding="UTF-8" standalone="no"?>
<svg
   xmlns:dc="http://purl.org/dc/elements/1.1/"
   xmlns:cc="http://creativecommons.org/ns#"
   xmlns:rdf="http://www.w3.org/1999/02/22-rdf-syntax-ns#"
   xmlns:svg="http://www.w3.org/2000/svg"
   xmlns="http://www.w3.org/2000/svg"
   id="svg4"
   viewBox="0 0 50 50"
   version="1.1"
   width="50"
   height="50">
  <metadata
     id="metadata10">
    <rdf:RDF>
      <cc:Work
         rdf:about="">
        <dc:format>image/svg+xml</dc:format>
        <dc:type
           rdf:resource="http://purl.org/dc/dcmitype/StillImage" />
        <dc:title></dc:title>
      </cc:Work>
    </rdf:RDF>
  </metadata>
  <defs
     id="defs8" />
  <path
     id="path3505"
     d="m 6.25,10 c 0,0 -3.75,0 -3.75,3.75 v 22.5 C 2.5,40 6.25,40 6.25,40 h 37.5 c 0,0 3.75,0 3.75,-3.75 V 13.75 C 47.5,10 43.75,10 43.75,10 Z m 6.658203,6.138672 c 0.416077,0.03783 0.71875,0.339844 0.71875,0.339844 l 7.746094,7.746093 c 0.774661,0.774661 0,1.550782 0,1.550782 l -7.746094,7.746093 c -0.77466,0.77466 -1.548828,0 -1.548828,0 l -0.775391,-0.77539 c -0.77466,-0.77466 0,-1.548828 0,-1.548828 L 17.5,25 11.302734,18.802734 c -0.761421,-0.787676 0,-1.548828 0,-1.548828 l 0.775391,-0.77539 c 0.290498,-0.290498 0.580432,-0.362539 0.830078,-0.339844 z M 26.25,30 H 37.5 c 1.25,0 1.25,1.25 1.25,1.25 v 1.25 c 0,1.25 -1.25,1.25 -1.25,1.25 H 26.25 C 25,33.75 25,32.5 25,32.5 V 31.25 C 25,30 26.25,30 26.25,30 Z" />
</svg>
