<?xml version="1.0" encoding="UTF-8"?>
<svg width="50" height="50" version="1.1" viewBox="0 0 50 50" xmlns="http://www.w3.org/2000/svg">
<path d="m8.75 5s-1.25 0-1.25 1.25v8.75s0 1.25 1.25 1.25h2.5c1.25 0 1.25-1.25 1.25-1.25v-1.25s0-2.5 2.5-2.5h3.75s2.5 0 2.5 2.5v21.25s0 3.75-3.75 3.75h-1.25s-1.25 0-1.25 1.25v3.75s0 1.25 1.25 1.25h17.5s1.25 0 1.25-1.25v-3.75s0-1.25-1.25-1.25h-1.25s-3.75 0-3.75-3.75v-21.25s0-2.5 2.5-2.5h3.75s2.5 0 2.5 2.5v1.25s0 1.25 1.25 1.25h2.5s1.25 0 1.25-1.25v-8.75s0-1.25-1.25-1.25z"/>
</svg>
