<?xml version="1.0" encoding="UTF-8"?>
<svg width="50" height="50" version="1.1" viewBox="0 0 50 50" xmlns="http://www.w3.org/2000/svg">
<path d="m29.205 7.2595c-1.7678-1.7678-3.5355 0-3.5355 0l-0.88388 0.88388s-1.7678 1.7678 0 3.5355l2.6516 2.6516-6.1872 4.4194s-4.4194-2.6516-9.7227 2.6517c0 0-0.88388 0.88388 0 1.7678l15.91 15.91c0.88388 0.88388 1.7678 0 1.7678 0 5.3033-5.3033 2.6517-9.7227 2.6517-9.7227l4.4194-6.1872 2.6516 2.6516c1.7678 1.7678 3.5355 0 3.5355 0l0.88388-0.88388s1.7678-1.7678 0-3.5355zm-12.374 24.749s-0.88388-0.88388-1.7678 0c-0.88388 0.88388-7.955 9.7227-7.955 9.7227-0.88388 0.88388 0.88388 2.6516 1.7678 1.7678 0 0 8.8388-7.0711 9.7227-7.955 0.88388-0.88388 0-1.7678 0-1.7678z"/>
</svg>
