<?xml version="1.0" encoding="UTF-8" standalone="no"?>
<svg
   xmlns:dc="http://purl.org/dc/elements/1.1/"
   xmlns:cc="http://creativecommons.org/ns#"
   xmlns:rdf="http://www.w3.org/1999/02/22-rdf-syntax-ns#"
   xmlns:svg="http://www.w3.org/2000/svg"
   xmlns="http://www.w3.org/2000/svg"
   id="svg4"
   viewBox="0 0 50 50"
   version="1.1"
   width="50"
   height="50">
  <metadata
     id="metadata10">
    <rdf:RDF>
      <cc:Work
         rdf:about="">
        <dc:format>image/svg+xml</dc:format>
        <dc:type
           rdf:resource="http://purl.org/dc/dcmitype/StillImage" />
        <dc:title></dc:title>
      </cc:Work>
    </rdf:RDF>
  </metadata>
  <defs
     id="defs8" />
  <path
     id="path912"
     d="m 29.204951,7.2595153 c -1.767767,-1.767767 -3.535534,0 -3.535534,0 l -0.883883,0.8838834 c 0,0 -1.767767,1.767767 0,3.5355343 l 2.65165,2.65165 L 21.25,18.75 c 0,0 -4.419418,-2.65165 -9.722718,2.651651 0,0 -0.883884,0.883883 0,1.767767 L 27.437184,39.07932 c 0.883884,0.883884 1.767767,0 1.767767,0 5.303301,-5.3033 2.651651,-9.722718 2.651651,-9.722718 l 4.419417,-6.187184 2.65165,2.65165 c 1.767767,1.767767 3.535534,0 3.535534,0 l 0.883884,-0.883883 c 0,0 1.767767,-1.767767 0,-3.535534 z M 16.830582,32.008253 c 0,0 -0.883883,-0.883884 -1.767767,0 -0.883883,0.883883 -7.954951,9.722718 -7.954951,9.722718 -0.8838833,0.883883 0.883884,2.65165 1.767767,1.767767 0,0 8.838835,-7.071068 9.722718,-7.954951 0.883884,-0.883884 0,-1.767767 0,-1.767767 z" />
</svg>
