<?xml version="1.0" encoding="UTF-8" standalone="no"?>
<svg
   xmlns:dc="http://purl.org/dc/elements/1.1/"
   xmlns:cc="http://creativecommons.org/ns#"
   xmlns:rdf="http://www.w3.org/1999/02/22-rdf-syntax-ns#"
   xmlns:svg="http://www.w3.org/2000/svg"
   xmlns="http://www.w3.org/2000/svg"
   id="svg4"
   viewBox="0 0 50 50"
   version="1.1"
   width="50"
   height="50">
  <metadata
     id="metadata10">
    <rdf:RDF>
      <cc:Work
         rdf:about="">
        <dc:format>image/svg+xml</dc:format>
        <dc:type
           rdf:resource="http://purl.org/dc/dcmitype/StillImage" />
        <dc:title></dc:title>
      </cc:Work>
    </rdf:RDF>
  </metadata>
  <defs
     id="defs8" />
  <path
     id="path4045"
     d="m 6.25,10 c 0,0 -3.75,0 -3.75,3.75 V 20 c 5,0 5,5 5,5 0,0 0,5 -5,5 v 6.25 C 2.5,40 6.25,40 6.25,40 h 37.5 c 0,0 3.75,0 3.75,-3.75 V 30 c -5,0 -5,-5 -5,-5 0,0 0,-5 5,-5 V 13.75 C 47.5,10 43.75,10 43.75,10 Z m 25,5 h 5 v 5 h -5 z m 0,7.5 h 5 v 5 h -5 z m 0,7.5 h 5 v 5 h -5 z" />
</svg>
