<?xml version="1.0" encoding="UTF-8"?>
<svg width="50" height="50" version="1.1" viewBox="0 0 50 50" xmlns="http://www.w3.org/2000/svg">
<path d="m13.75 5s-6.25 1.25-6.25 7.5c0 0 0 5 5 6.25l-1.25 20s-1.25 6.25 5 6.25 5-6.25 5-6.25l-1.25-20c5-1.25 5-6.25 5-6.25 0-6.25-6.25-7.5-6.25-7.5v7.5h-5zm18.75 0-2.5 7.5 2.5 2.5v10s-5 0-5 5v10s0 5 5 5h5c5 0 5-5 5-5v-10c0-5-5-5-5-5v-10l2.5-2.5-2.5-7.5zm-16.25 32.5a2.5 2.5 0 0 1 2.5 2.5 2.5 2.5 0 0 1-2.5 2.5 2.5 2.5 0 0 1-2.5-2.5 2.5 2.5 0 0 1 2.5-2.5z"/>
</svg>
