<?xml version="1.0" encoding="UTF-8"?>
<svg width="50" height="50" version="1.1" viewBox="0 0 50 50" xmlns="http://www.w3.org/2000/svg">
<path d="m22.5 33.75c-2.5 0-2.5-2.5-2.5-2.5v-10h-5c-3.75 0-3.75-2.5-3.75-3.75s1.25-2.5 1.25-2.5l8.75-8.75c3.75-3.75 7.5 0 7.5 0l8.75 8.75s1.25 1.25 1.25 2.5 0 3.75-3.75 3.75h-5v10c0 2.5-2.5 2.5-2.5 2.5zm-15 11.25s-2.5 0-2.5-2.5v-3.75s0-2.5 2.5-2.5h35s2.5 0 2.5 2.5v3.75s0 2.5-2.5 2.5zm33.125-2.5c1.0355 0 1.875-0.83947 1.875-1.875s-0.83947-1.875-1.875-1.875-1.875 0.83947-1.875 1.875 0.83947 1.875 1.875 1.875z"/>
</svg>
