<?xml version="1.0" encoding="UTF-8" standalone="no"?>
<svg
   xmlns:dc="http://purl.org/dc/elements/1.1/"
   xmlns:cc="http://creativecommons.org/ns#"
   xmlns:rdf="http://www.w3.org/1999/02/22-rdf-syntax-ns#"
   xmlns:svg="http://www.w3.org/2000/svg"
   xmlns="http://www.w3.org/2000/svg"
   id="svg4"
   viewBox="0 0 50 50"
   version="1.1"
   width="50"
   height="50">
  <metadata
     id="metadata10">
    <rdf:RDF>
      <cc:Work
         rdf:about="">
        <dc:format>image/svg+xml</dc:format>
        <dc:type
           rdf:resource="http://purl.org/dc/dcmitype/StillImage" />
        <dc:title></dc:title>
      </cc:Work>
    </rdf:RDF>
  </metadata>
  <defs
     id="defs8" />
  <path
     id="path2181"
     d="m 22.5,33.75 c -2.5,0 -2.5,-2.5 -2.5,-2.5 v -10 h -5 c -3.75,0 -3.75,-2.5 -3.75,-3.75 0,-1.25 1.25,-2.5 1.25,-2.5 l 8.75,-8.75 c 3.75,-3.75 7.5,0 7.5,0 L 37.5,15 c 0,0 1.25,1.25 1.25,2.5 0,1.25 0,3.75 -3.75,3.75 h -5 v 10 c 0,2.5 -2.5,2.5 -2.5,2.5 z M 7.5,45 C 7.5,45 5,45 5,42.5 v -3.75 c 0,0 0,-2.5 2.5,-2.5 h 35 c 0,0 2.5,0 2.5,2.5 v 3.75 c 0,0 0,2.5 -2.5,2.5 z m 33.125,-2.5 c 1.035534,0 1.875,-0.839466 1.875,-1.875 0,-1.035534 -0.839466,-1.875 -1.875,-1.875 -1.035534,0 -1.875,0.839466 -1.875,1.875 0,1.035534 0.839466,1.875 1.875,1.875 z" />
</svg>
