<?xml version="1.0" encoding="UTF-8"?>
<svg width="50" height="50" version="1.1" viewBox="0 0 50 50" xmlns="http://www.w3.org/2000/svg">
<path d="m17.5 5c-7.5 0-10 5-10 11.25s5 11.25 10 11.25c5.9997-0.2207 10-5 10-11.25s-2.5-11.25-10-11.25zm22.5 8.75s-1.25 0-1.25 1.25v5h-5s-1.25 0-1.25 1.25v2.5s0 1.25 1.25 1.25h5v5s0 1.25 1.25 1.25h2.5s1.25 0 1.25-1.25v-5h5s1.25 0 1.25-1.25v-2.5s0-1.25-1.25-1.25h-5v-5s0-1.25-1.25-1.25h-2.5zm-30 13.75s-10 5-10 10v5s0 2.5 2.5 2.5h30c2.5 0 2.5-2.5 2.5-2.5v-5c0-5-10-10-10-10s-2.5 2.5-7.5 2.5-7.5-2.5-7.5-2.5z"/>
</svg>
