<?xml version="1.0" encoding="UTF-8"?>
<svg width="50" height="50" version="1.1" viewBox="0 0 50 50" xmlns="http://www.w3.org/2000/svg">
<path d="m20 7.5s-2.5 0-2.5 2.5v2.5h-6.25c-0.70373-1.4739-2.1953-2.5-3.9375-2.5-2.4162 0-4.375 1.9588-4.375 4.375 0 2.4162 1.9588 4.375 4.375 4.375 1.7422 0 3.2338-1.0261 3.9375-2.5h4.1309c-4.1607 2.1562-8.2541 6.1801-8.998 13.75h-1.3828s-2.5 0-2.5 2.5v7.5c0 2.5 2.5 2.5 2.5 2.5h7.5s2.5 0 2.5-2.5v-7.5s0-2.5-2.5-2.5h-1.082c0.68191-4.9219 3.3682-7.6907 6.1738-9.248 0.44524 1.7432 2.4082 1.748 2.4082 1.748h10s1.963-0.0048 2.4082-1.748c2.8057 1.5573 5.4919 4.3261 6.1738 9.248h-1.082s-2.5 0-2.5 2.5v7.5c0 2.5 2.5 2.5 2.5 2.5h7.5s2.5 0 2.5-2.5v-7.5s0-2.5-2.5-2.5h-1.3828c-0.74395-7.5699-4.8374-11.594-8.998-13.75h3.7559c0.70373 1.4739 2.1953 2.5 3.9375 2.5 2.4162 0 4.375-1.9588 4.375-4.375 0-2.4162-1.9588-4.375-4.375-4.375-1.7422 0-3.2338 1.0261-3.9375 2.5h-5.875v-2.5s0-2.5-2.5-2.5z"/>
</svg>
