<?xml version="1.0" encoding="UTF-8"?>
<svg width="50" height="50" version="1.1" viewBox="0 0 50 50" xmlns="http://www.w3.org/2000/svg">
<path d="m23.75 10c-1.25 0-2.5 1.25-2.5 1.25l-6.25 6.25h-7.5c-2.5 0-2.5 2.5-2.5 2.5v10c0 2.5 2.5 2.5 2.5 2.5h7.5l6.25 6.25s1.25 1.25 2.5 1.25 1.25-1.25 1.25-1.25v-27.5c0-1.25-1.25-1.25-1.25-1.25zm13.611 1.3633a1.2501 1.2501 0 0 0 -0.87109 2.1465c3.0478 3.0478 4.7598 7.18 4.7598 11.49s-1.712 8.4424-4.7598 11.49a1.2501 1.2501 0 1 0 1.7676 1.7676c3.516-3.516 5.4922-8.2855 5.4922-13.258s-1.9762-9.7418-5.4922-13.258a1.2501 1.2501 0 0 0 -0.89648 -0.37891zm-3.5352 3.5352a1.2501 1.2501 0 0 0 -0.87109 2.1465c2.1101 2.1101 3.2949 4.9709 3.2949 7.9551s-1.1848 5.845-3.2949 7.9551a1.2501 1.2501 0 1 0 1.7676 1.7676c2.5783-2.5783 4.0273-6.0764 4.0273-9.7227s-1.4491-7.1444-4.0273-9.7227a1.2501 1.2501 0 0 0 -0.89648 -0.37891zm-3.5352 3.5352a1.2501 1.2501 0 0 0 -0.87109 2.1465c1.1724 1.1724 1.8301 2.7618 1.8301 4.4199s-0.65764 3.2475-1.8301 4.4199a1.2501 1.2501 0 1 0 1.7676 1.7676c1.6406-1.6406 2.5625-3.8673 2.5625-6.1875s-0.9219-4.5469-2.5625-6.1875a1.2501 1.2501 0 0 0 -0.89648 -0.37891z"/>
</svg>
