<?xml version="1.0" encoding="UTF-8" standalone="no"?>
<svg
   xmlns:dc="http://purl.org/dc/elements/1.1/"
   xmlns:cc="http://creativecommons.org/ns#"
   xmlns:rdf="http://www.w3.org/1999/02/22-rdf-syntax-ns#"
   xmlns:svg="http://www.w3.org/2000/svg"
   xmlns="http://www.w3.org/2000/svg"
   id="svg4"
   viewBox="0 0 50 50"
   version="1.1"
   width="50"
   height="50">
  <metadata
     id="metadata10">
    <rdf:RDF>
      <cc:Work
         rdf:about="">
        <dc:format>image/svg+xml</dc:format>
        <dc:type
           rdf:resource="http://purl.org/dc/dcmitype/StillImage" />
        <dc:title></dc:title>
      </cc:Work>
    </rdf:RDF>
  </metadata>
  <defs
     id="defs8" />
  <path
     id="path816"
     d="m 10,10 c 0,0 -5,0 -5,5 v 20 c 0,0 0,5 5,5 h 28.75 c 0,0 3.589433,-0.0034 3.75,-3.75 v -2.5 h -10 C 28.75,33.75 28.75,30 28.75,30 V 20 c 0,0 0,-3.75 3.75,-3.75 h 10 v -2.5 c 0,0 0,-3.75 -3.75,-3.75 z m 25,10 c 0,0 -2.5,0 -2.5,2.5 v 5 c 0,0 0,2.5 2.5,2.5 h 7.5 c 0,0 2.5,0 2.5,-2.5 v -5 c 0,0 0,-2.5 -2.5,-2.5 z m 2.5,2.5 c 1.380712,0 2.5,1.119288 2.5,2.5 0,1.380712 -1.119288,2.5 -2.5,2.5 -1.380712,0 -2.5,-1.119288 -2.5,-2.5 0,-1.380712 1.119288,-2.5 2.5,-2.5 z" />
</svg>
