<?xml version="1.0" encoding="UTF-8" standalone="no"?>
<!-- Created with Inkscape (http://www.inkscape.org/) -->

<svg
   xmlns:dc="http://purl.org/dc/elements/1.1/"
   xmlns:cc="http://creativecommons.org/ns#"
   xmlns:rdf="http://www.w3.org/1999/02/22-rdf-syntax-ns#"
   xmlns:svg="http://www.w3.org/2000/svg"
   xmlns="http://www.w3.org/2000/svg"
   xmlns:sodipodi="http://sodipodi.sourceforge.net/DTD/sodipodi-0.dtd"
   xmlns:inkscape="http://www.inkscape.org/namespaces/inkscape"
   width="100"
   height="100"
   viewBox="0 0 100 100"
   version="1.1"
   id="svg830"
   inkscape:version="0.92.2 5c3e80d, 2017-08-06"
   sodipodi:docname="bullhorn.svg">
  <defs
     id="defs824" />
  <sodipodi:namedview
     id="base"
     pagecolor="#ffffff"
     bordercolor="#666666"
     borderopacity="1.0"
     inkscape:pageopacity="0.0"
     inkscape:pageshadow="2"
     inkscape:zoom="15.839192"
     inkscape:cx="65.560481"
     inkscape:cy="55.81944"
     inkscape:document-units="px"
     inkscape:current-layer="svg830"
     showgrid="true"
     units="px"
     inkscape:window-width="1280"
     inkscape:window-height="755"
     inkscape:window-x="0"
     inkscape:window-y="1"
     inkscape:window-maximized="1">
    <inkscape:grid
       type="xygrid"
       id="grid1375"
       empspacing="5" />
  </sodipodi:namedview>
  <metadata
     id="metadata827">
    <rdf:RDF>
      <cc:Work
         rdf:about="">
        <dc:format>image/svg+xml</dc:format>
        <dc:type
           rdf:resource="http://purl.org/dc/dcmitype/StillImage" />
        <dc:title></dc:title>
      </cc:Work>
    </rdf:RDF>
  </metadata>
  <path
     style="fill:#4e91e4"
     d="m 61,66 c 0,0 0,4 4,4 4,0 4,-4 4,-4 V 24 c 0,0 0,-4 -4,-4 -4,0 -4,4 -4,4 z"
     id="path1080"
     inkscape:connector-curvature="0"
     sodipodi:nodetypes="ccccccc" />
  <path
     style="fill:#4ccdac"
     d="m 79,35 c 0,0 -2,2 -4,0 -2,-2 0,-4 0,-4 l 6,-6 c 0,0 2,-2 4,0 2,2 0,4 0,4 z"
     id="path3013"
     inkscape:connector-curvature="0"
     sodipodi:nodetypes="ccccccc" />
  <path
     style="opacity:0.5;fill:#4e91e4"
     d="M 61,25 31,35 v 20 l 30,10 z"
     id="path3015"
     inkscape:connector-curvature="0"
     sodipodi:nodetypes="ccccc" />
  <path
     style="opacity:1;fill:#4e91e4"
     d="m 31,35 c 0,0 0,-2 -2,-2 H 13 c 0,0 -2,0 -2,2 v 20 c 0,0 0,2 2,2 h 16 c 0,0 2,0 2,-2 z"
     id="path3017"
     inkscape:connector-curvature="0"
     sodipodi:nodetypes="ccccccccc" />
  <path
     style="opacity:0.5;fill:#4e91e4"
     d="M 11,37 H 9 c 0,0 -2,0 -2,2 v 12 c 0,0 0,2 2,2 h 2 z"
     id="path3019"
     inkscape:connector-curvature="0"
     sodipodi:nodetypes="ccccccc" />
  <path
     style="opacity:0.5;fill:#4e91e4"
     d="m 26,57 v 18 c 0,0 0,2 -2,2 h -6 c 0,0 -2,0 -2,-2 V 57 Z"
     id="path3021"
     inkscape:connector-curvature="0"
     sodipodi:nodetypes="ccccccc" />
  <path
     sodipodi:nodetypes="ccccccc"
     inkscape:connector-curvature="0"
     id="path3023"
     d="m 79,55 c 0,0 -2,-2 -4,0 -2,2 0,4 0,4 l 6,6 c 0,0 2,2 4,0 2,-2 0,-4 0,-4 z"
     style="fill:#4ccdac" />
  <path
     sodipodi:nodetypes="ccccccc"
     inkscape:connector-curvature="0"
     id="path3025"
     d="m 80,48 c 0,0 -3,0 -3,-3 0,-3 3,-3 3,-3 h 10 c 0,0 3,0 3,3 0,3 -3,3 -3,3 z"
     style="fill:#4ccdac" />
  <path
     style="opacity:0.5;fill:#4e91e4"
     d="m 69,49 c 0,0 2,-1 2,-4 0,-3 -2,-4 -2,-4 z"
     id="path3048"
     inkscape:connector-curvature="0"
     sodipodi:nodetypes="cccc" />
</svg>
