<?xml version="1.0" encoding="UTF-8" standalone="no"?>
<!-- Created with Inkscape (http://www.inkscape.org/) -->

<svg
   xmlns:dc="http://purl.org/dc/elements/1.1/"
   xmlns:cc="http://creativecommons.org/ns#"
   xmlns:rdf="http://www.w3.org/1999/02/22-rdf-syntax-ns#"
   xmlns:svg="http://www.w3.org/2000/svg"
   xmlns="http://www.w3.org/2000/svg"
   xmlns:sodipodi="http://sodipodi.sourceforge.net/DTD/sodipodi-0.dtd"
   xmlns:inkscape="http://www.inkscape.org/namespaces/inkscape"
   width="100"
   height="100"
   viewBox="0 0 100 100"
   version="1.1"
   id="svg830"
   inkscape:version="0.92.2 5c3e80d, 2017-08-06"
   sodipodi:docname="mobile.svg">
  <defs
     id="defs824" />
  <sodipodi:namedview
     id="base"
     pagecolor="#ffffff"
     bordercolor="#666666"
     borderopacity="1.0"
     inkscape:pageopacity="0.0"
     inkscape:pageshadow="2"
     inkscape:zoom="22.4"
     inkscape:cx="57.714685"
     inkscape:cy="84.987705"
     inkscape:document-units="px"
     inkscape:current-layer="svg830"
     showgrid="true"
     units="px"
     inkscape:window-width="1280"
     inkscape:window-height="755"
     inkscape:window-x="0"
     inkscape:window-y="1"
     inkscape:window-maximized="1">
    <inkscape:grid
       type="xygrid"
       id="grid1375"
       empspacing="5" />
  </sodipodi:namedview>
  <metadata
     id="metadata827">
    <rdf:RDF>
      <cc:Work
         rdf:about="">
        <dc:format>image/svg+xml</dc:format>
        <dc:type
           rdf:resource="http://purl.org/dc/dcmitype/StillImage" />
        <dc:title></dc:title>
      </cc:Work>
    </rdf:RDF>
  </metadata>
  <path
     style="fill:#4e91e4"
     d="m 25,85 c 0,0 0,5 5,5 h 40 c 0,0 5,0 5,-5 V 30 c 0,0 0,-5 -5,-5 H 30 c 0,0 -5,0 -5,5 z"
     id="path1080"
     inkscape:connector-curvature="0"
     sodipodi:nodetypes="ccccccccc" />
  <path
     style="fill:#4ccdac"
     d="m 47,17 c 0,3 3,3 3,3 0,0 3,0 3,-3 V 5 c 0,0 0,-3 -3,-3 -3,0 -3,3 -3,3 z"
     id="path1057"
     inkscape:connector-curvature="0"
     sodipodi:nodetypes="ccccccc" />
  <path
     style="opacity:0.8;fill:#ffffff"
     d="m 53,85 a 3,3 0 0 1 -3,3 3,3 0 0 1 -3,-3 3,3 0 0 1 3,-3 3,3 0 0 1 3,3 z"
     id="path2350"
     inkscape:connector-curvature="0" />
  <path
     sodipodi:nodetypes="ccccccc"
     inkscape:connector-curvature="0"
     id="path2421"
     d="m 36,20 c 0,0 2,2 4,0 2,-2 0,-4 0,-4 l -6,-6 c 0,0 -2,-2 -4,0 -2,2 0,4 0,4 z"
     style="fill:#4ccdac" />
  <path
     style="fill:#4ccdac"
     d="m 64,20 c 0,0 -2,2 -4,0 -2,-2 0,-4 0,-4 l 6,-6 c 0,0 2,-2 4,0 2,2 0,4 0,4 z"
     id="path3013"
     inkscape:connector-curvature="0"
     sodipodi:nodetypes="ccccccc" />
</svg>
