<?xml version="1.0" encoding="UTF-8" standalone="no"?>
<!-- Created with Inkscape (http://www.inkscape.org/) -->

<svg
   xmlns:dc="http://purl.org/dc/elements/1.1/"
   xmlns:cc="http://creativecommons.org/ns#"
   xmlns:rdf="http://www.w3.org/1999/02/22-rdf-syntax-ns#"
   xmlns:svg="http://www.w3.org/2000/svg"
   xmlns="http://www.w3.org/2000/svg"
   xmlns:sodipodi="http://sodipodi.sourceforge.net/DTD/sodipodi-0.dtd"
   xmlns:inkscape="http://www.inkscape.org/namespaces/inkscape"
   width="100"
   height="100"
   viewBox="0 0 100 100"
   version="1.1"
   id="svg830"
   inkscape:version="0.92.2 5c3e80d, 2017-08-06"
   sodipodi:docname="modules.svg">
  <defs
     id="defs824" />
  <sodipodi:namedview
     id="base"
     pagecolor="#ffffff"
     bordercolor="#666666"
     borderopacity="1.0"
     inkscape:pageopacity="0.0"
     inkscape:pageshadow="2"
     inkscape:zoom="5.6"
     inkscape:cx="50"
     inkscape:cy="50"
     inkscape:document-units="px"
     inkscape:current-layer="svg830"
     showgrid="true"
     units="px"
     inkscape:window-width="1280"
     inkscape:window-height="755"
     inkscape:window-x="0"
     inkscape:window-y="1"
     inkscape:window-maximized="1">
    <inkscape:grid
       type="xygrid"
       id="grid1375"
       empspacing="5" />
  </sodipodi:namedview>
  <metadata
     id="metadata827">
    <rdf:RDF>
      <cc:Work
         rdf:about="">
        <dc:format>image/svg+xml</dc:format>
        <dc:type
           rdf:resource="http://purl.org/dc/dcmitype/StillImage" />
        <dc:title></dc:title>
      </cc:Work>
    </rdf:RDF>
  </metadata>
  <path
     style="fill:#4e91e4"
     d="m 10,87 c 0,0 0,3 3,3 h 32 c 0,0 3,0 3,-3 V 58 c 0,0 0,-3 -3,-3 H 13 c 0,0 -3,0 -3,3 z"
     id="path1049"
     inkscape:connector-curvature="0"
     sodipodi:nodetypes="ccccccccc" />
  <path
     style="opacity:0.5;fill:#ffffff"
     d="m 25,55 v 17 h 8 V 55 Z"
     id="path1051"
     inkscape:connector-curvature="0"
     sodipodi:nodetypes="ccccc" />
  <path
     sodipodi:nodetypes="ccccccccc"
     inkscape:connector-curvature="0"
     id="path1053"
     d="m 52,87 c 0,0 0,3 3,3 h 32 c 0,0 3,0 3,-3 V 58 c 0,0 0,-3 -3,-3 H 55 c 0,0 -3,0 -3,3 z"
     style="fill:#4e91e4" />
  <path
     sodipodi:nodetypes="ccccc"
     inkscape:connector-curvature="0"
     id="path1055"
     d="m 67,55 v 17 h 8 V 55 Z"
     style="opacity:0.5;fill:#ffffff" />
  <path
     style="fill:#4ccdac"
     d="m 31,48 c 0,0 0,3 3,3 h 32 c 0,0 3,0 3,-3 V 19 c 0,0 0,-3 -3,-3 H 34 c 0,0 -3,0 -3,3 z"
     id="path1057"
     inkscape:connector-curvature="0"
     sodipodi:nodetypes="ccccccccc" />
  <path
     style="opacity:0.5;fill:#ffffff"
     d="m 46,16 v 17 h 8 V 16 Z"
     id="path1059"
     inkscape:connector-curvature="0"
     sodipodi:nodetypes="ccccc" />
</svg>
