<?xml version="1.0" encoding="UTF-8" standalone="no"?>
<svg
   xmlns:dc="http://purl.org/dc/elements/1.1/"
   xmlns:cc="http://creativecommons.org/ns#"
   xmlns:rdf="http://www.w3.org/1999/02/22-rdf-syntax-ns#"
   xmlns:svg="http://www.w3.org/2000/svg"
   xmlns="http://www.w3.org/2000/svg"
   id="svg8"
   viewBox="0 0 211.66666 105.83334"
   version="1.1"
   height="400"
   width="800">
  <defs
     id="defs12" />
  <metadata
     id="metadata2">
    <rdf:RDF>
      <cc:Work
         rdf:about="">
        <dc:format>image/svg+xml</dc:format>
        <dc:type
           rdf:resource="http://purl.org/dc/dcmitype/StillImage" />
        <dc:title></dc:title>
      </cc:Work>
    </rdf:RDF>
  </metadata>
  <g
     id="g6"
     fill="#546778">
    <path
       id="path4"
       d="m 101.6,49.477084 c -2.38125,0 -2.38125,2.38125 -2.38125,2.38125 0,0.79375 1.32292,0.79375 1.32292,0 C 100.54167,50.8 101.6,50.8 101.6,50.8 c 0,0 1.05833,0 1.05833,1.058334 -8e-5,0.79375 1.32292,0.79375 1.32292,0 0,0 0,-2.38125 -2.38125,-2.38125 z m 8.46667,0 c -2.38125,0 -2.38125,2.38125 -2.38125,2.38125 0,0.79375 1.32291,0.79375 1.32292,0 0,0 0,-1.058334 1.05833,-1.058334 1.05833,0 1.05833,1.058334 1.05833,1.058334 0,0.79375 1.32292,0.79375 1.32292,0 0,0 0,-2.38125 -2.38125,-2.38125 z m -5.82084,3.968753 c 0,0 -0.52916,0 -0.52916,0.529167 0,0 0,2.116667 2.11666,2.116667 2.11667,0 2.11667,-2.116667 2.11667,-2.116667 0,-0.529167 -0.52916,-0.529167 -0.52916,-0.529167 z" />
  </g>
</svg>
