<?xml version="1.0" encoding="UTF-8" standalone="no"?>
<svg
   xmlns:dc="http://purl.org/dc/elements/1.1/"
   xmlns:cc="http://creativecommons.org/ns#"
   xmlns:rdf="http://www.w3.org/1999/02/22-rdf-syntax-ns#"
   xmlns:svg="http://www.w3.org/2000/svg"
   xmlns="http://www.w3.org/2000/svg"
   id="svg4654"
   viewBox="0 0 52.916665 52.91667"
   version="1.1"
   height="200"
   width="200">
  <defs
     id="defs4658" />
  <metadata
     id="metadata4648">
    <rdf:RDF>
      <cc:Work
         rdf:about="">
        <dc:format>image/svg+xml</dc:format>
        <dc:type
           rdf:resource="http://purl.org/dc/dcmitype/StillImage" />
        <dc:title></dc:title>
      </cc:Work>
    </rdf:RDF>
  </metadata>
  <g
     id="g4652"
     fill="#546778">
    <path
       id="path4650"
       d="m 17.991666,19.843746 c -4.762499,0 -4.762499,4.762499 -4.762499,4.762499 0,1.5875 2.645839,1.5875 2.645839,0 0,-2.116667 2.11666,-2.116667 2.11666,-2.116667 0,0 2.116659,0 2.116659,2.116667 -1.6e-4,1.5875 2.64584,1.5875 2.64584,0 0,0 0,-4.762499 -4.762499,-4.762499 z m 16.933336,0 c -4.762499,0 -4.762499,4.762499 -4.762499,4.762499 0,1.5875 2.645819,1.5875 2.645839,0 0,0 0,-2.116667 2.11666,-2.116667 2.116659,0 2.116659,2.116667 2.116659,2.116667 0,1.5875 2.64584,1.5875 2.64584,0 0,0 0,-4.762499 -4.762499,-4.762499 z M 23.283325,27.78125 c 0,0 -1.05832,0 -1.05832,1.058334 0,0 0,4.233333 4.233319,4.233333 4.233339,0 4.233339,-4.233333 4.233339,-4.233333 0,-1.058334 -1.05832,-1.058334 -1.05832,-1.058334 z" />
  </g>
</svg>
