<?xml version="1.0" encoding="UTF-8" standalone="no"?>
<!-- Created with Inkscape (http://www.inkscape.org/) -->

<svg
   xmlns:dc="http://purl.org/dc/elements/1.1/"
   xmlns:cc="http://creativecommons.org/ns#"
   xmlns:rdf="http://www.w3.org/1999/02/22-rdf-syntax-ns#"
   xmlns:svg="http://www.w3.org/2000/svg"
   xmlns="http://www.w3.org/2000/svg"
   xmlns:sodipodi="http://sodipodi.sourceforge.net/DTD/sodipodi-0.dtd"
   xmlns:inkscape="http://www.inkscape.org/namespaces/inkscape"
   width="100"
   height="100"
   viewBox="0 0 100 100"
   version="1.1"
   id="svg830"
   inkscape:version="0.92.2 5c3e80d, 2017-08-06"
   sodipodi:docname="learning.svg">
  <defs
     id="defs824" />
  <sodipodi:namedview
     id="base"
     pagecolor="#ffffff"
     bordercolor="#666666"
     borderopacity="1.0"
     inkscape:pageopacity="0.0"
     inkscape:pageshadow="2"
     inkscape:zoom="11.2"
     inkscape:cx="74.742611"
     inkscape:cy="43.121843"
     inkscape:document-units="px"
     inkscape:current-layer="svg830"
     showgrid="true"
     units="px"
     inkscape:window-width="1280"
     inkscape:window-height="755"
     inkscape:window-x="0"
     inkscape:window-y="1"
     inkscape:window-maximized="1">
    <inkscape:grid
       type="xygrid"
       id="grid1375"
       empspacing="5" />
  </sodipodi:namedview>
  <metadata
     id="metadata827">
    <rdf:RDF>
      <cc:Work
         rdf:about="">
        <dc:format>image/svg+xml</dc:format>
        <dc:type
           rdf:resource="http://purl.org/dc/dcmitype/StillImage" />
        <dc:title></dc:title>
      </cc:Work>
    </rdf:RDF>
  </metadata>
  <path
     style="opacity:0.8;fill:#4e91e4"
     d="m 45,58 c 3,1 7,1 10,0 l 20,-7 4,19 C 80,75 65,80 50,80 35,80 20,75 21,70 l 4,-19 z"
     id="path3254"
     inkscape:connector-curvature="0"
     sodipodi:nodetypes="cccccccc" />
  <path
     style="fill:#4e91e4"
     d="m 5,35 c -3,1 -3,4 0,5 l 40,14 c 3,1 7,1 10,0 L 95,40 c 3,-1 3,-4 0,-5 L 55,21 c -3,-1 -7,-1 -10,0 z"
     id="path814"
     inkscape:connector-curvature="0"
     sodipodi:nodetypes="ccccccccc" />
  <path
     style="fill:#4e91e4"
     d="m 78,40 v 4 c 5.98275,0 6.844357,5.08416 6.970703,6.570312 C 83.795896,51.267131 83,52.535032 83,54 c 0,1.319329 0.647706,2.47844 1.632812,3.207031 L 82,73 c 0,0 0,2 2,2 h 6 c 2,0 2,-2 2,-2 L 89.367188,57.207031 C 90.352294,56.47844 91,55.319329 91,54 91,52.514774 90.180349,51.234917 88.978516,50.544922 88.838342,48.49604 87.676031,40 78,40 Z"
     id="path820"
     inkscape:connector-curvature="0"
     sodipodi:nodetypes="cccsccssccscc" />
</svg>
