<?xml version="1.0" encoding="UTF-8" standalone="no"?>
<svg
   xmlns:dc="http://purl.org/dc/elements/1.1/"
   xmlns:cc="http://creativecommons.org/ns#"
   xmlns:rdf="http://www.w3.org/1999/02/22-rdf-syntax-ns#"
   xmlns:svg="http://www.w3.org/2000/svg"
   xmlns="http://www.w3.org/2000/svg"
   xmlns:sodipodi="http://sodipodi.sourceforge.net/DTD/sodipodi-0.dtd"
   xmlns:inkscape="http://www.inkscape.org/namespaces/inkscape"
   height="400"
   viewBox="0 0 400 400"
   width="400"
   version="1.1"
   id="svg2"
   inkscape:version="0.91 r13725"
   sodipodi:docname="logo.svg"
   inkscape:export-filename="/Users/jmjuanes/workspace/siimple/siimple/media/logo.png"
   inkscape:export-xdpi="221.526"
   inkscape:export-ydpi="221.526">
  <metadata
     id="metadata10">
    <rdf:RDF>
      <cc:Work
         rdf:about="">
        <dc:format>image/svg+xml</dc:format>
        <dc:type
           rdf:resource="http://purl.org/dc/dcmitype/StillImage" />
        <dc:title />
      </cc:Work>
    </rdf:RDF>
  </metadata>
  <defs
     id="defs8" />
  <sodipodi:namedview
     pagecolor="#4894f0"
     bordercolor="#666666"
     borderopacity="1"
     objecttolerance="10"
     gridtolerance="10"
     guidetolerance="10"
     inkscape:pageopacity="0"
     inkscape:pageshadow="2"
     inkscape:window-width="1366"
     inkscape:window-height="833"
     id="namedview6"
     showgrid="false"
     inkscape:zoom="1.0028833"
     inkscape:cx="268.41739"
     inkscape:cy="42.419324"
     inkscape:window-x="48"
     inkscape:window-y="47"
     inkscape:window-maximized="0"
     inkscape:current-layer="layer1" />
  <g
     inkscape:groupmode="layer"
     id="layer1"
     inkscape:label="Fondo">
    <path
       sodipodi:nodetypes="sccccccccccccs"
       inkscape:connector-curvature="0"
       id="path4143"
       d="m 199.46001,31.130331 c 9.01519,-0.10877 17.85293,2.508624 25.35496,7.509149 l 107.36843,71.57895 c 12.44558,8.29776 19.92124,22.26607 19.92186,37.22419 l 0,107.36842 c -6.2e-4,14.95814 -7.47628,28.92646 -19.92186,37.22421 l -107.36843,71.57894 c -15.02719,10.01635 -34.60276,10.01635 -49.62994,0 L 67.816613,292.03525 C 55.371013,283.7375 47.895364,269.76918 47.894737,254.81104 l 0,-107.36842 c 6.28e-4,-14.95812 7.476277,-28.92644 19.921876,-37.22419 L 175.18503,38.63948 c 7.1959,-4.796479 15.62765,-7.404732 24.27498,-7.509149 z"
       style="opacity:1;fill:none;fill-opacity:1;fill-rule:evenodd;stroke:#ffffff;stroke-width:25;stroke-linecap:butt;stroke-linejoin:round;stroke-miterlimit:4;stroke-dasharray:none;stroke-opacity:1" />
    <path
       style="opacity:1;fill:#ffffff;fill-opacity:1;fill-rule:evenodd;stroke:none;stroke-width:4;stroke-linecap:butt;stroke-linejoin:round;stroke-miterlimit:4;stroke-dasharray:none;stroke-opacity:1"
       d="M 250.02539 100.02539 A 8.3341166 8.3341166 0 0 1 250.58594 100.08594 C 250.4004 100.06101 250.21454 100.03787 250.02539 100.02539 z M 165.13867 100.03125 C 160.88372 100.3981 157.5293 103.96905 157.5293 108.33398 C 157.5293 111.92606 159.80507 114.97294 162.98047 116.14648 A 8.3341166 8.3341166 0 0 1 165.16797 100.03125 C 165.15832 100.03205 165.14831 100.03042 165.13867 100.03125 z M 162.98047 116.14648 C 163.22563 116.23709 163.47515 116.31721 163.73047 116.38477 A 8.3341166 8.3341166 0 0 1 162.98047 116.14648 z M 250.8125 100.11523 A 8.3341166 8.3341166 0 0 1 251.47656 100.25391 C 251.25814 100.19977 251.03727 100.15174 250.8125 100.11523 z M 251.59961 100.2832 A 8.3341166 8.3341166 0 0 1 252.30078 100.50391 C 252.07099 100.42072 251.83823 100.34623 251.59961 100.2832 z M 252.37891 100.5332 A 8.3341166 8.3341166 0 0 1 253.11914 100.85156 C 252.87833 100.73379 252.632 100.62773 252.37891 100.5332 z M 253.11914 100.85156 A 8.3341166 8.3341166 0 0 1 250.17578 116.63672 C 254.43986 116.27901 257.80273 112.70549 257.80273 108.33398 C 257.80273 105.03872 255.88642 102.20489 253.11914 100.85156 z M 163.86133 116.41602 C 164.07804 116.4696 164.29657 116.5165 164.51953 116.55273 A 8.3341166 8.3341166 0 0 1 163.86133 116.41602 z M 164.75 116.58594 C 164.93403 116.61059 165.11906 116.63212 165.30664 116.64453 A 8.3341166 8.3341166 0 0 1 164.75 116.58594 z M 199.0957 116.67578 A 8.3341166 8.3341166 0 0 0 198.47656 116.72656 C 198.68145 116.70453 198.88656 116.68276 199.0957 116.67578 z M 198.01758 116.79102 A 8.3341166 8.3341166 0 0 0 197.70508 116.8457 C 197.80844 116.82466 197.91284 116.80821 198.01758 116.79102 z M 197.17969 116.97266 A 8.3341166 8.3341166 0 0 0 196.92188 117.04492 C 197.00707 117.01871 197.09334 116.9962 197.17969 116.97266 z M 196.39844 117.22656 A 8.3341166 8.3341166 0 0 0 196.14453 117.32812 C 196.22824 117.29288 196.31334 117.25913 196.39844 117.22656 z M 195.66016 117.55273 A 8.3341166 8.3341166 0 0 0 195.40625 117.68164 C 195.48954 117.63644 195.57517 117.59515 195.66016 117.55273 z M 194.92383 117.96875 A 8.3341166 8.3341166 0 0 0 194.7207 118.0957 C 194.78695 118.051 194.85624 118.01158 194.92383 117.96875 z M 194.24023 118.45117 A 8.3341166 8.3341166 0 0 0 194.06445 118.58594 C 194.12124 118.53891 194.18219 118.49671 194.24023 118.45117 z M 193.5918 119.01367 A 8.3341166 8.3341166 0 0 0 193.4668 119.12891 C 193.50675 119.08874 193.55103 119.05302 193.5918 119.01367 z M 191.66016 121.85352 A 8.3341166 8.3341166 0 0 0 191.61914 121.96484 C 191.6336 121.928 191.64519 121.8901 191.66016 121.85352 z M 191.39062 122.62305 A 8.3341166 8.3341166 0 0 0 191.3418 122.80859 C 191.3586 122.74701 191.37245 122.68405 191.39062 122.62305 z M 191.19922 123.40039 A 8.3341166 8.3341166 0 0 0 191.15234 123.69531 C 191.16791 123.59705 191.18025 123.49749 191.19922 123.40039 z M 191.08203 124.20117 A 8.3341166 8.3341166 0 0 0 191.06055 124.58984 C 191.06699 124.45973 191.06969 124.32966 191.08203 124.20117 z M 191.04492 125.01367 A 8.3341166 8.3341166 0 0 0 191.06055 125.41797 C 191.05393 125.28353 191.04507 125.14963 191.04492 125.01367 z M 191.08984 125.86133 A 8.3341166 8.3341166 0 0 0 191.13281 126.17773 C 191.11795 126.07264 191.10074 125.9676 191.08984 125.86133 z M 191.21875 126.70117 A 8.3341166 8.3341166 0 0 0 191.27344 126.93555 C 191.25487 126.85746 191.2351 126.78007 191.21875 126.70117 z M 191.42773 127.50586 A 8.3341166 8.3341166 0 0 0 191.50391 127.72461 C 191.47862 127.65149 191.45103 127.57987 191.42773 127.50586 z M 191.70508 128.25586 A 8.3341166 8.3341166 0 0 0 191.82227 128.51562 C 191.7822 128.42963 191.74226 128.34339 191.70508 128.25586 z M 192.05664 128.98047 A 8.3341166 8.3341166 0 0 0 192.20312 129.24023 C 192.15253 129.15475 192.10423 129.06786 192.05664 128.98047 z M 192.4668 129.65625 A 8.3341166 8.3341166 0 0 0 192.67773 129.95508 C 192.60523 129.85713 192.53503 129.75739 192.4668 129.65625 z M 192.9375 130.28516 A 8.3341166 8.3341166 0 0 0 193.17773 130.57031 C 193.09477 130.47795 193.0163 130.38115 192.9375 130.28516 z M 193.49414 130.89844 A 8.3341166 8.3341166 0 0 0 193.74414 131.14258 C 193.65827 131.06373 193.57661 130.98077 193.49414 130.89844 z M 194.125 131.4668 A 8.3341166 8.3341166 0 0 0 194.34961 131.65039 C 194.27242 131.59193 194.20003 131.52784 194.125 131.4668 z M 194.81445 131.97266 A 8.3341166 8.3341166 0 0 0 195.01758 132.10742 C 194.94809 132.06473 194.88255 132.0173 194.81445 131.97266 z M 195.54102 132.39648 A 8.3341166 8.3341166 0 0 0 195.73242 132.5 C 195.66701 132.46819 195.60544 132.42994 195.54102 132.39648 z M 196.33594 132.75977 A 8.3341166 8.3341166 0 0 0 196.48047 132.82031 C 196.43124 132.8021 196.38471 132.77887 196.33594 132.75977 z M 177.37305 132.80664 C 177.35244 132.81431 177.33123 132.82061 177.31055 132.82812 A 8.3341166 8.3341166 0 0 0 177.37305 132.80664 z M 176.59766 133.05273 C 176.55952 133.06279 176.52076 133.07055 176.48242 133.08008 A 8.3341166 8.3341166 0 0 0 176.59766 133.05273 z M 197.81641 133.18359 A 8.3341166 8.3341166 0 0 0 198.08203 133.23828 C 197.99187 133.22424 197.90554 133.20048 197.81641 133.18359 z M 175.80859 133.2207 C 175.73747 133.2322 175.66546 133.24032 175.59375 133.25 A 8.3341166 8.3341166 0 0 0 175.80859 133.2207 z M 175.02539 133.31055 C 174.79694 133.32556 174.56702 133.33779 174.33398 133.33398 A 8.3341166 8.3341166 0 0 0 175.02539 133.31055 z M 233.35938 133.35742 A 8.3341166 8.3341166 0 0 1 233.91992 133.41797 C 233.73438 133.39304 233.54853 133.3699 233.35938 133.35742 z M 156.80469 133.36328 C 152.54974 133.73011 149.19531 137.30108 149.19531 141.66602 C 149.19531 145.25089 151.46154 148.29395 154.62695 149.47266 A 8.3341166 8.3341166 0 0 1 156.83398 133.36328 C 156.82434 133.36408 156.81432 133.36245 156.80469 133.36328 z M 234.14258 133.44727 A 8.3341166 8.3341166 0 0 1 234.86523 133.59961 C 234.62799 133.53908 234.3874 133.48691 234.14258 133.44727 z M 234.90625 133.60938 A 8.3341166 8.3341166 0 0 1 235.68555 133.85547 C 235.43082 133.76135 235.17192 133.67859 234.90625 133.60938 z M 235.68555 133.85547 A 8.3341166 8.3341166 0 0 1 232.66602 150 C 237.32134 150.0759 241.13672 146.32195 241.13672 141.66602 C 241.13672 138.07372 238.86126 135.02885 235.68555 133.85547 z M 154.68945 149.49414 C 154.92283 149.57893 155.15984 149.65477 155.40234 149.71875 A 8.3341166 8.3341166 0 0 1 154.68945 149.49414 z M 155.51758 149.74609 C 155.7375 149.80076 155.95918 149.84994 156.18555 149.88672 A 8.3341166 8.3341166 0 0 1 155.51758 149.74609 z M 156.41602 149.91797 C 156.60004 149.94262 156.78508 149.96415 156.97266 149.97656 A 8.3341166 8.3341166 0 0 1 156.41602 149.91797 z M 191 150 C 195.62104 149.974 199.38086 153.71288 199.38086 158.33398 C 199.38086 162.65138 196.09831 166.19659 191.89844 166.62305 A 8.3341166 8.3341166 0 0 0 191 150 z M 220.16602 150 A 8.3341166 8.3341166 0 0 0 219.37109 150.03711 C 219.6331 150.01378 219.89763 149.99849 220.16602 150 z M 219.21875 150.05273 A 8.3341166 8.3341166 0 0 0 220.16602 166.66797 C 215.54498 166.69397 211.78516 162.95509 211.78516 158.33398 C 211.78516 154.03366 215.04273 150.50203 219.21875 150.05273 z M 191.82812 166.63086 C 191.5555 166.65621 191.27957 166.66954 191 166.66797 A 8.3341166 8.3341166 0 0 0 191.82812 166.63086 z M 233.36133 166.69141 A 8.3341166 8.3341166 0 0 1 233.91406 166.75 C 233.73112 166.72556 233.54778 166.70375 233.36133 166.69141 z M 173.4707 166.69727 C 169.21563 167.06401 165.86328 170.63495 165.86328 175 C 165.86328 178.29535 167.7795 181.13108 170.54688 182.48438 A 8.3341166 8.3341166 0 0 1 173.5 166.69727 C 173.49038 166.69806 173.48032 166.69644 173.4707 166.69727 z M 170.54688 182.48438 C 170.79431 182.60537 171.04822 182.71411 171.30859 182.81055 A 8.3341166 8.3341166 0 0 1 170.54688 182.48438 z M 234.15039 166.7832 A 8.3341166 8.3341166 0 0 1 234.81055 166.91992 C 234.59344 166.86611 234.37378 166.81959 234.15039 166.7832 z M 234.93164 166.94922 A 8.3341166 8.3341166 0 0 1 235.68555 167.18945 C 235.43885 167.09831 235.18862 167.01703 234.93164 166.94922 z M 235.68945 167.18945 A 8.3341166 8.3341166 0 0 1 236.45312 167.51758 C 236.20477 167.39613 235.95084 167.28616 235.68945 167.18945 z M 236.45312 167.51758 A 8.3341166 8.3341166 0 0 1 232.66602 183.33398 C 237.32146 183.40998 241.13672 179.65606 241.13672 175 C 241.13672 171.70465 239.2205 168.87087 236.45312 167.51758 z M 232.66602 183.33398 L 174.33398 183.33398 L 153.5 183.33398 C 146.59676 183.33468 141.00069 188.93075 141 195.83398 L 141 228.43945 L 141 258.33398 L 141 271.56055 C 141.005 278.85633 143.81423 285.87105 148.8457 291.1543 L 148.87305 291.15234 C 154.23064 296.78922 161.66269 299.98649 169.43945 300 L 229.22656 300 C 229.46754 299.995 229.70845 299.98611 229.94922 299.97461 C 230.59235 299.95541 231.23465 299.91431 231.875 299.85156 L 231.87695 299.85156 C 232.30058 299.80966 232.72321 299.75816 233.14453 299.69727 C 233.66239 299.62687 234.17821 299.54219 234.69141 299.44336 C 235.09368 299.36286 235.49417 299.27363 235.89258 299.17578 C 236.44111 299.04487 236.98562 298.89767 237.52539 298.73438 L 237.53516 298.73047 C 237.87579 298.62422 238.21439 298.51157 238.55078 298.39258 C 239.1106 298.19963 239.66426 297.98924 240.21094 297.76172 C 240.53322 297.62441 240.85293 297.48115 241.16992 297.33203 C 241.72279 297.07743 242.26734 296.80517 242.80273 296.51562 C 243.08406 296.36086 243.36274 296.20132 243.63867 296.03711 C 244.18766 295.71605 244.72572 295.37666 245.25195 295.01953 L 245.25781 295.01562 C 245.49872 294.84875 245.73703 294.67815 245.97266 294.50391 C 246.51581 294.1087 247.04478 293.69438 247.55859 293.26172 C 247.74624 293.10203 247.9318 292.9399 248.11523 292.77539 C 248.64018 292.30931 249.14769 291.82395 249.63672 291.32031 L 249.63867 291.31641 C 254.77528 286.02137 257.65357 278.93768 257.66602 271.56055 L 257.66602 267.16406 C 265.39096 262.19249 272.65873 256.95891 278.57617 250.96484 C 285.5295 243.92144 290.92276 235.29098 290.99609 225.09961 C 291.11552 217.12704 288.66727 210.04138 284.02148 205.17383 C 279.36917 200.29946 273.00529 198.0046 266.80469 197.70508 C 263.75676 197.55783 260.68465 197.83316 257.66602 198.49414 L 257.66602 195.83398 C 257.66532 188.93075 252.06925 183.33468 245.16602 183.33398 L 232.66602 183.33398 z M 171.32227 182.81641 C 171.56235 182.90484 171.80682 182.98247 172.05664 183.04883 A 8.3341166 8.3341166 0 0 1 171.32227 182.81641 z M 172.20703 183.08594 C 172.41881 183.13796 172.63187 183.18328 172.84961 183.21875 A 8.3341166 8.3341166 0 0 1 172.20703 183.08594 z M 173.08594 183.25195 C 173.26888 183.27639 173.45222 183.29821 173.63867 183.31055 A 8.3341166 8.3341166 0 0 1 173.08594 183.25195 z M 264.91211 214.34766 C 265.28474 214.33406 265.64717 214.33622 266 214.35352 C 268.82275 214.48987 270.69101 215.34505 271.96484 216.67969 C 273.23869 218.01435 274.40836 220.18526 274.33398 224.86914 C 274.33383 224.89844 274.33383 224.92773 274.33398 224.95703 C 274.31088 229.34279 271.98353 233.9209 266.7168 239.25586 C 264.2326 241.77222 261.14396 244.33774 257.66602 246.92188 L 257.66602 228.43945 L 257.66602 216.14258 C 260.17268 215.04779 262.70215 214.42892 264.91211 214.34766 z M 176 225.99609 C 182.70545 225.99609 188 231.76861 188 238.55078 C 188.0688 243.14897 181.13632 243.14897 181.20508 238.55078 C 181.20508 235.21848 178.7964 232.79102 176 232.79102 C 173.2036 232.79102 170.79492 235.21848 170.79492 238.55078 C 170.86372 243.14897 163.93124 243.14897 164 238.55078 C 164 231.76861 169.29455 225.99609 176 225.99609 z M 222 225.99609 C 228.70545 225.99609 234 231.76861 234 238.55078 C 234.0688 243.14897 227.13632 243.14897 227.20508 238.55078 C 227.20508 235.21848 224.7964 232.79102 222 232.79102 C 219.2036 232.79102 216.79492 235.21848 216.79492 238.55078 C 216.86372 243.14897 209.93124 243.14897 210 238.55078 C 210 231.76861 215.29455 225.99609 222 225.99609 z M 191.11523 250 L 200 250 L 208.88477 250 C 210.60498 250.00068 211.99932 251.39502 212 253.11523 C 212 257.61806 209.84191 261.85208 206.11523 264.22266 C 202.38855 266.59323 197.61145 266.59323 193.88477 264.22266 C 190.15809 261.85208 188 257.61806 188 253.11523 C 188.00068 251.39502 189.39502 250.00068 191.11523 250 z "
       id="rect4140" />
    <path
       inkscape:connector-curvature="0"
       id="path4192"
       d="m 165.99985,100.00119 a 8.3341166,8.3341166 0 1 0 0,16.66657 l 8.33328,0 a 8.3341166,8.3341166 0 1 1 0,16.66658 l -16.66656,0 a 8.3341166,8.3341166 0 1 0 0,16.66657 l 33.33313,0 a 8.3341166,8.3341166 0 1 1 0,16.66657 l -16.66657,0 a 8.3341166,8.3341166 0 1 0 0,16.66655 l 58.33299,0 a 8.3341166,8.3341166 0 1 0 0,-16.66655 l -12.49994,0 a 8.3341166,8.3341166 0 1 1 0,-16.66657 l 12.49994,0 a 8.3341166,8.3341166 0 1 0 0,-16.66657 l -33.99883,0 a 8.3341166,8.3341166 0 0 0 0.23764,-0.008 8.3341166,8.3341166 0 0 1 0.19042,-16.65029 8.3341166,8.3341166 0 0 0 -0.42806,-0.008 l 50.66539,0 a 8.3341166,8.3341166 0 1 0 0,-16.66657 l -83.33283,0 z"
       style="display:inline;color:#000000;font-style:normal;font-variant:normal;font-weight:normal;font-stretch:normal;font-size:medium;line-height:normal;font-family:sans-serif;text-indent:0;text-align:start;text-decoration:none;text-decoration-line:none;text-decoration-style:solid;text-decoration-color:#000000;letter-spacing:normal;word-spacing:normal;text-transform:none;direction:ltr;block-progression:tb;writing-mode:lr-tb;baseline-shift:baseline;text-anchor:start;white-space:normal;clip-rule:nonzero;overflow:visible;visibility:visible;opacity:0.6;isolation:auto;mix-blend-mode:normal;color-interpolation:sRGB;color-interpolation-filters:linearRGB;solid-color:#000000;solid-opacity:1;fill:#ffffff;fill-opacity:1;fill-rule:evenodd;stroke:none;stroke-width:20;stroke-linecap:round;stroke-linejoin:round;stroke-miterlimit:4;stroke-dasharray:none;stroke-dashoffset:0;stroke-opacity:1;color-rendering:auto;image-rendering:auto;shape-rendering:auto;text-rendering:auto;enable-background:accumulate" />
  </g>
</svg>
