<svg xmlns:rdf="http://www.w3.org/1999/02/22-rdf-syntax-ns#" xmlns="http://www.w3.org/2000/svg" version="1.1" xmlns:cc="http://creativecommons.org/ns#" xmlns:dc="http://purl.org/dc/elements/1.1/" viewBox="0 0 400 400" id="ry2ZsTqeX"><style>@-webkit-keyframes H1O2boacxm_Animation{0%{opacity: 0.6;}25%{opacity: 0.6;}75%{opacity: 0.6;}95%{opacity: 0;}100%{opacity: 0;}}@keyframes H1O2boacxm_Animation{0%{opacity: 0.6;}25%{opacity: 0.6;}75%{opacity: 0.6;}95%{opacity: 0;}100%{opacity: 0;}}@-webkit-keyframes H1O2boacxm_S1Rmb09x7_Animation{0%{-webkit-transform: translate(0px, 96px);transform: translate(0px, 96px);}25%{-webkit-transform: translate(0px, 96px);transform: translate(0px, 96px);}100%{-webkit-transform: translate(0px, 0px);transform: translate(0px, 0px);}}@keyframes H1O2boacxm_S1Rmb09x7_Animation{0%{-webkit-transform: translate(0px, 96px);transform: translate(0px, 96px);}25%{-webkit-transform: translate(0px, 96px);transform: translate(0px, 96px);}100%{-webkit-transform: translate(0px, 0px);transform: translate(0px, 0px);}}@-webkit-keyframes B1LnZiacgm_Animation{0%{opacity: 0.6;}20%{opacity: 0;}45%{opacity: 0;}50%{opacity: 0.6;}100%{opacity: 0.6;}}@keyframes B1LnZiacgm_Animation{0%{opacity: 0.6;}20%{opacity: 0;}45%{opacity: 0;}50%{opacity: 0.6;}100%{opacity: 0.6;}}@-webkit-keyframes B1LnZiacgm_BymsgAqeX_Animation{0%{-webkit-transform: translate(0px, 0px);transform: translate(0px, 0px);}25%{-webkit-transform: translate(0px, -32px);transform: translate(0px, -32px);}45%{-webkit-transform: translate(0px, 64px);transform: translate(0px, 64px);}50%{-webkit-transform: translate(0px, 64px);transform: translate(0px, 64px);}100%{-webkit-transform: translate(0px, 0px);transform: translate(0px, 0px);}}@keyframes B1LnZiacgm_BymsgAqeX_Animation{0%{-webkit-transform: translate(0px, 0px);transform: translate(0px, 0px);}25%{-webkit-transform: translate(0px, -32px);transform: translate(0px, -32px);}45%{-webkit-transform: translate(0px, 64px);transform: translate(0px, 64px);}50%{-webkit-transform: translate(0px, 64px);transform: translate(0px, 64px);}100%{-webkit-transform: translate(0px, 0px);transform: translate(0px, 0px);}}@-webkit-keyframes B1Vn-sp5e7_Animation{25%{opacity: 0.6;}45%{opacity: 0;}70%{opacity: 0;}75%{opacity: 0.6;}0%{opacity: 0.6;}100%{opacity: 0.6;}}@keyframes B1Vn-sp5e7_Animation{25%{opacity: 0.6;}45%{opacity: 0;}70%{opacity: 0;}75%{opacity: 0.6;}0%{opacity: 0.6;}100%{opacity: 0.6;}}@-webkit-keyframes B1Vn-sp5e7_BJ1pyC9gX_Animation{0%{-webkit-transform: translate(0px, 0px);transform: translate(0px, 0px);}50%{-webkit-transform: translate(0px, -64px);transform: translate(0px, -64px);}70%{-webkit-transform: translate(0px, 32px);transform: translate(0px, 32px);}75%{-webkit-transform: translate(0px, 32px);transform: translate(0px, 32px);}100%{-webkit-transform: translate(0px, 0px);transform: translate(0px, 0px);}}@keyframes B1Vn-sp5e7_BJ1pyC9gX_Animation{0%{-webkit-transform: translate(0px, 0px);transform: translate(0px, 0px);}50%{-webkit-transform: translate(0px, -64px);transform: translate(0px, -64px);}70%{-webkit-transform: translate(0px, 32px);transform: translate(0px, 32px);}75%{-webkit-transform: translate(0px, 32px);transform: translate(0px, 32px);}100%{-webkit-transform: translate(0px, 0px);transform: translate(0px, 0px);}}@-webkit-keyframes BkfnbipcxQ_Animation{0%{opacity: 0.6;}50%{opacity: 0.6;}70%{opacity: 0;}100%{opacity: 0;}}@keyframes BkfnbipcxQ_Animation{0%{opacity: 0.6;}50%{opacity: 0.6;}70%{opacity: 0;}100%{opacity: 0;}}@-webkit-keyframes BkfnbipcxQ_rk3f10clm_Animation{0%{-webkit-transform: translate(0px, 0px);transform: translate(0px, 0px);}75%{-webkit-transform: translate(0px, -96px);transform: translate(0px, -96px);}100%{-webkit-transform: translate(0px, -96px);transform: translate(0px, -96px);}}@keyframes BkfnbipcxQ_rk3f10clm_Animation{0%{-webkit-transform: translate(0px, 0px);transform: translate(0px, 0px);}75%{-webkit-transform: translate(0px, -96px);transform: translate(0px, -96px);}100%{-webkit-transform: translate(0px, -96px);transform: translate(0px, -96px);}}@-webkit-keyframes r1F3bja5l7_Animation{0%{opacity: 0.6;}25%{opacity: 0.6;}75%{opacity: 0.6;}100%{opacity: 0;}}@keyframes r1F3bja5l7_Animation{0%{opacity: 0.6;}25%{opacity: 0.6;}75%{opacity: 0.6;}100%{opacity: 0;}}@-webkit-keyframes r1F3bja5l7_H1tSpT9gQ_Animation{0%{-webkit-transform: translate(0px, 96px);transform: translate(0px, 96px);}25%{-webkit-transform: translate(0px, 96px);transform: translate(0px, 96px);}100%{-webkit-transform: translate(0px, 0px);transform: translate(0px, 0px);}}@keyframes r1F3bja5l7_H1tSpT9gQ_Animation{0%{-webkit-transform: translate(0px, 96px);transform: translate(0px, 96px);}25%{-webkit-transform: translate(0px, 96px);transform: translate(0px, 96px);}100%{-webkit-transform: translate(0px, 0px);transform: translate(0px, 0px);}}@-webkit-keyframes rJw2biT5g7_Animation{0%{opacity: 0.6;}25%{opacity: 0;}45%{opacity: 0;}50%{opacity: 0.6;}100%{opacity: 0.6;}}@keyframes rJw2biT5g7_Animation{0%{opacity: 0.6;}25%{opacity: 0;}45%{opacity: 0;}50%{opacity: 0.6;}100%{opacity: 0.6;}}@-webkit-keyframes rJw2biT5g7_HkT_h6qxX_Animation{0%{-webkit-transform: translate(0px, 0px);transform: translate(0px, 0px);}25%{-webkit-transform: translate(0px, -32px);transform: translate(0px, -32px);}45%{-webkit-transform: translate(0px, 64px);transform: translate(0px, 64px);}50%{-webkit-transform: translate(0px, 64px);transform: translate(0px, 64px);}100%{-webkit-transform: translate(0px, 0px);transform: translate(0px, 0px);}}@keyframes rJw2biT5g7_HkT_h6qxX_Animation{0%{-webkit-transform: translate(0px, 0px);transform: translate(0px, 0px);}25%{-webkit-transform: translate(0px, -32px);transform: translate(0px, -32px);}45%{-webkit-transform: translate(0px, 64px);transform: translate(0px, 64px);}50%{-webkit-transform: translate(0px, 64px);transform: translate(0px, 64px);}100%{-webkit-transform: translate(0px, 0px);transform: translate(0px, 0px);}}@-webkit-keyframes r1H3ZopceX_Animation{25%{opacity: 0.6;}50%{opacity: 0;}70%{opacity: 0;}75%{opacity: 0.6;}0%{opacity: 0.6;}100%{opacity: 0.6;}}@keyframes r1H3ZopceX_Animation{25%{opacity: 0.6;}50%{opacity: 0;}70%{opacity: 0;}75%{opacity: 0.6;}0%{opacity: 0.6;}100%{opacity: 0.6;}}@-webkit-keyframes r1H3ZopceX_S1nghpcg7_Animation{0%{-webkit-transform: translate(0px, 0px);transform: translate(0px, 0px);}50%{-webkit-transform: translate(0px, -64px);transform: translate(0px, -64px);}70%{-webkit-transform: translate(0px, 32px);transform: translate(0px, 32px);}75%{-webkit-transform: translate(0px, 32px);transform: translate(0px, 32px);}100%{-webkit-transform: translate(0px, 0px);transform: translate(0px, 0px);}}@keyframes r1H3ZopceX_S1nghpcg7_Animation{0%{-webkit-transform: translate(0px, 0px);transform: translate(0px, 0px);}50%{-webkit-transform: translate(0px, -64px);transform: translate(0px, -64px);}70%{-webkit-transform: translate(0px, 32px);transform: translate(0px, 32px);}75%{-webkit-transform: translate(0px, 32px);transform: translate(0px, 32px);}100%{-webkit-transform: translate(0px, 0px);transform: translate(0px, 0px);}}@-webkit-keyframes B172-o6ql7_Animation{0%{opacity: 0.6;}50%{opacity: 0.6;}75%{opacity: 0;}100%{opacity: 0;}}@keyframes B172-o6ql7_Animation{0%{opacity: 0.6;}50%{opacity: 0.6;}75%{opacity: 0;}100%{opacity: 0;}}@-webkit-keyframes B172-o6ql7_rJZXj65lX_Animation{0%{-webkit-transform: translate(0px, 0px);transform: translate(0px, 0px);}75%{-webkit-transform: translate(0px, -96px);transform: translate(0px, -96px);}100%{-webkit-transform: translate(0px, -96px);transform: translate(0px, -96px);}}@keyframes B172-o6ql7_rJZXj65lX_Animation{0%{-webkit-transform: translate(0px, 0px);transform: translate(0px, 0px);}75%{-webkit-transform: translate(0px, -96px);transform: translate(0px, -96px);}100%{-webkit-transform: translate(0px, -96px);transform: translate(0px, -96px);}}#ry2ZsTqeX *{-webkit-animation-duration: 2s;animation-duration: 2s;-webkit-animation-iteration-count: infinite;animation-iteration-count: infinite;-webkit-animation-timing-function: cubic-bezier(0, 0, 1, 1);animation-timing-function: cubic-bezier(0, 0, 1, 1);}#SJxhWsa5em{opacity: .3;color-rendering: auto;-webkit-text-decoration-color: #000000;text-decoration-color: #000000;color: #000000;isolation: auto;mix-blend-mode: normal;fill-rule: evenodd;shape-rendering: auto;solid-color: #000000;block-progression: tb;-webkit-text-decoration-line: none;text-decoration-line: none;image-rendering: auto;white-space: normal;text-indent: 0;text-transform: none;-webkit-text-decoration-style: solid;text-decoration-style: solid;fill: #ffffff;}#HJ-n-oT5lm{fill-rule: evenodd;fill: #ffffff;}#BkfnbipcxQ{color-rendering: auto;-webkit-text-decoration-color: #000000;text-decoration-color: #000000;color: #000000;shape-rendering: auto;solid-color: #000000;-webkit-text-decoration-line: none;text-decoration-line: none;fill: #ffffff;fill-rule: evenodd;mix-blend-mode: normal;block-progression: tb;opacity: .6;text-indent: 0;image-rendering: auto;white-space: normal;-webkit-text-decoration-style: solid;text-decoration-style: solid;isolation: auto;text-transform: none;-webkit-animation-name: BkfnbipcxQ_Animation;animation-name: BkfnbipcxQ_Animation;-webkit-transform-origin: 50% 50%;transform-origin: 50% 50%;transform-box: fill-box;}#B172-o6ql7{color-rendering: auto;-webkit-text-decoration-color: #000000;text-decoration-color: #000000;color: #000000;shape-rendering: auto;solid-color: #000000;-webkit-text-decoration-line: none;text-decoration-line: none;fill: #ffffff;fill-rule: evenodd;mix-blend-mode: normal;block-progression: tb;opacity: 0.6;text-indent: 0;image-rendering: auto;white-space: normal;-webkit-text-decoration-style: solid;text-decoration-style: solid;isolation: auto;text-transform: none;-webkit-animation-name: B172-o6ql7_Animation;animation-name: B172-o6ql7_Animation;-webkit-transform-origin: 50% 50%;transform-origin: 50% 50%;transform-box: fill-box;}#B1Vn-sp5e7{color-rendering: auto;-webkit-text-decoration-color: #000000;text-decoration-color: #000000;color: #000000;shape-rendering: auto;solid-color: #000000;-webkit-text-decoration-line: none;text-decoration-line: none;fill: #ffffff;fill-rule: evenodd;mix-blend-mode: normal;block-progression: tb;text-indent: 0;image-rendering: auto;white-space: normal;-webkit-text-decoration-style: solid;text-decoration-style: solid;isolation: auto;text-transform: none;-webkit-transform-origin: 50% 50%;transform-origin: 50% 50%;transform-box: fill-box;-webkit-animation-name: B1Vn-sp5e7_Animation;animation-name: B1Vn-sp5e7_Animation;}#r1H3ZopceX{color-rendering: auto;-webkit-text-decoration-color: #000000;text-decoration-color: #000000;color: #000000;shape-rendering: auto;solid-color: #000000;-webkit-text-decoration-line: none;text-decoration-line: none;fill: #ffffff;fill-rule: evenodd;mix-blend-mode: normal;block-progression: tb;opacity: .6;text-indent: 0;image-rendering: auto;white-space: normal;-webkit-text-decoration-style: solid;text-decoration-style: solid;isolation: auto;text-transform: none;-webkit-animation-name: r1H3ZopceX_Animation;animation-name: r1H3ZopceX_Animation;-webkit-transform-origin: 50% 50%;transform-origin: 50% 50%;transform-box: fill-box;}#B1LnZiacgm{color-rendering: auto;-webkit-text-decoration-color: #000000;text-decoration-color: #000000;color: #000000;shape-rendering: auto;solid-color: #000000;-webkit-text-decoration-line: none;text-decoration-line: none;fill: #ffffff;fill-rule: evenodd;mix-blend-mode: normal;block-progression: tb;opacity: .6;text-indent: 0;image-rendering: auto;white-space: normal;-webkit-text-decoration-style: solid;text-decoration-style: solid;isolation: auto;text-transform: none;-webkit-animation-name: B1LnZiacgm_Animation;animation-name: B1LnZiacgm_Animation;-webkit-transform-origin: 50% 50%;transform-origin: 50% 50%;transform-box: fill-box;}#rJw2biT5g7{color-rendering: auto;-webkit-text-decoration-color: #000000;text-decoration-color: #000000;color: #000000;shape-rendering: auto;solid-color: #000000;-webkit-text-decoration-line: none;text-decoration-line: none;fill: #ffffff;fill-rule: evenodd;mix-blend-mode: normal;block-progression: tb;text-indent: 0;image-rendering: auto;white-space: normal;-webkit-text-decoration-style: solid;text-decoration-style: solid;isolation: auto;text-transform: none;-webkit-transform-origin: 50% 50%;transform-origin: 50% 50%;transform-box: fill-box;-webkit-animation-name: rJw2biT5g7_Animation;animation-name: rJw2biT5g7_Animation;}#H1O2boacxm{color-rendering: auto;-webkit-text-decoration-color: #000000;text-decoration-color: #000000;color: #000000;shape-rendering: auto;solid-color: #000000;-webkit-text-decoration-line: none;text-decoration-line: none;fill: #ffffff;fill-rule: evenodd;mix-blend-mode: normal;block-progression: tb;opacity: .6;text-indent: 0;image-rendering: auto;white-space: normal;-webkit-text-decoration-style: solid;text-decoration-style: solid;isolation: auto;text-transform: none;-webkit-animation-name: H1O2boacxm_Animation;animation-name: H1O2boacxm_Animation;-webkit-transform-origin: 50% 50%;transform-origin: 50% 50%;transform-box: fill-box;}#r1F3bja5l7{color-rendering: auto;-webkit-text-decoration-color: #000000;text-decoration-color: #000000;color: #000000;shape-rendering: auto;solid-color: #000000;-webkit-text-decoration-line: none;text-decoration-line: none;fill: #ffffff;fill-rule: evenodd;mix-blend-mode: normal;block-progression: tb;text-indent: 0;image-rendering: auto;white-space: normal;-webkit-text-decoration-style: solid;text-decoration-style: solid;isolation: auto;text-transform: none;-webkit-transform-origin: 50% 50%;transform-origin: 50% 50%;transform-box: fill-box;-webkit-animation-name: r1F3bja5l7_Animation;animation-name: r1F3bja5l7_Animation;}#B172-o6ql7_rJZXj65lX{-webkit-animation-name: B172-o6ql7_rJZXj65lX_Animation;animation-name: B172-o6ql7_rJZXj65lX_Animation;-webkit-transform-origin: 50% 50%;transform-origin: 50% 50%;transform-box: fill-box;-webkit-transform: translate(0px, 0px);transform: translate(0px, 0px);}#B1Vn-sp5e7_B1WRop9e7{-webkit-transform-origin: 50% 50%;transform-origin: 50% 50%;transform-box: fill-box;}#r1H3ZopceX_S1nghpcg7{-webkit-animation-name: r1H3ZopceX_S1nghpcg7_Animation;animation-name: r1H3ZopceX_S1nghpcg7_Animation;-webkit-transform-origin: 50% 50%;transform-origin: 50% 50%;transform-box: fill-box;}#rJw2biT5g7_HkT_h6qxX{-webkit-transform-origin: 50% 50%;transform-origin: 50% 50%;transform-box: fill-box;-webkit-animation-name: rJw2biT5g7_HkT_h6qxX_Animation;animation-name: rJw2biT5g7_HkT_h6qxX_Animation;}#r1F3bja5l7_B13JTaceQ{-webkit-transform-origin: 50% 50%;transform-origin: 50% 50%;transform-box: fill-box;}#r1F3bja5l7_H1tSpT9gQ{-webkit-animation-name: r1F3bja5l7_H1tSpT9gQ_Animation;animation-name: r1F3bja5l7_H1tSpT9gQ_Animation;-webkit-transform-origin: 50% 50%;transform-origin: 50% 50%;transform-box: fill-box;}#BkfnbipcxQ_rk3f10clm{-webkit-animation-name: BkfnbipcxQ_rk3f10clm_Animation;animation-name: BkfnbipcxQ_rk3f10clm_Animation;-webkit-transform-origin: 50% 50%;transform-origin: 50% 50%;transform-box: fill-box;}#B1Vn-sp5e7_BJ1pyC9gX{-webkit-animation-name: B1Vn-sp5e7_BJ1pyC9gX_Animation;animation-name: B1Vn-sp5e7_BJ1pyC9gX_Animation;-webkit-transform-origin: 50% 50%;transform-origin: 50% 50%;transform-box: fill-box;}#B1LnZiacgm_BymsgAqeX{-webkit-animation-name: B1LnZiacgm_BymsgAqeX_Animation;animation-name: B1LnZiacgm_BymsgAqeX_Animation;-webkit-transform-origin: 50% 50%;transform-origin: 50% 50%;transform-box: fill-box;}#H1O2boacxm_S1Rmb09x7{-webkit-animation-name: H1O2boacxm_S1Rmb09x7_Animation;animation-name: H1O2boacxm_S1Rmb09x7_Animation;-webkit-transform-origin: 50% 50%;transform-origin: 50% 50%;transform-box: fill-box;}</style>
<path d="m201.86 30.025c-12.986-0.34497-25.812 2.9302-37.043 9.459l-86 50c-21.56 12.536-34.822 35.586-34.823 60.516v100c0.0014 24.932 13.263 47.983 34.816 60.516l86 50c21.752 12.645 48.616 12.645 70.367 0l86-50c21.55-12.54 34.81-35.59 34.81-60.52v-100c0-24.94-13.26-47.99-34.82-60.52l-86-50c-10.14-5.8948-21.599-9.1474-33.324-9.459z" id="SJxhWsa5em"/>
<path d="m153.5 183.33c-6.9 0-12.5 5.6-12.5 12.5v75.73c0 7.3 2.81 14.31 7.85 19.59h0.02c5.36 5.64 12.79 8.84 20.57 8.85h59.79c0.24 0 0.48-0.01 0.72-0.03 0.64-0.01 1.28-0.06 1.93-0.12 0.42-0.04 0.84-0.09 1.26-0.15 0.52-0.07 1.04-0.16 1.55-0.26 0.4-0.08 0.8-0.17 1.2-0.26 0.55-0.14 1.1-0.28 1.64-0.45h0.01c0.34-0.11 0.67-0.22 1.01-0.34 0.56-0.19 1.11-0.4 1.66-0.63 0.32-0.14 0.64-0.28 0.96-0.43 0.55-0.25 1.1-0.52 1.63-0.81l0.84-0.48c0.55-0.32 1.09-0.66 1.61-1.02h0.01c0.24-0.17 0.48-0.34 0.71-0.52 0.55-0.39 1.07-0.81 1.59-1.24 0.19-0.16 0.37-0.32 0.56-0.48 0.52-0.47 1.03-0.96 1.52-1.46 5.14-5.3 8.01-12.38 8.03-19.76v-4.4c7.72-4.97 14.99-10.2 20.91-16.2 6.95-7.04 12.34-15.67 12.42-25.86 0.12-7.97-2.33-15.06-6.98-19.93s-11.01-7.17-17.22-7.46c-3.04-0.15-6.12 0.12-9.13 0.78v-2.66c0-6.9-5.6-12.5-12.5-12.5h-91.67zm111.41 31.02c0.37-0.02 0.74-0.01 1.09 0 2.82 0.14 4.69 1 5.96 2.33 1.28 1.33 2.45 3.51 2.37 8.19v0.09c-0.02 4.38-2.35 8.96-7.61 14.3-2.49 2.51-5.58 5.08-9.05 7.66v-30.78c2.5-1.09 5.03-1.71 7.24-1.79zm-88.91 11.65c6.71 0 12 5.77 12 12.55 0.07 4.6-6.86 4.6-6.79 0 0-3.33-2.41-5.76-5.21-5.76s-5.21 2.43-5.21 5.76c0.07 4.6-6.86 4.6-6.79 0 0-6.78 5.29-12.55 12-12.55zm46 0c6.71 0 12 5.77 12 12.55 0.07 4.6-6.86 4.6-6.79 0 0-3.33-2.41-5.76-5.21-5.76s-5.21 2.43-5.21 5.76c0.07 4.6-6.86 4.6-6.79 0 0-6.78 5.29-12.55 12-12.55zm-30.88 24h17.76c1.72 0 3.12 1.4 3.12 3.12 0 4.5-2.16 8.73-5.88 11.1-3.73 2.37-8.51 2.37-12.24 0-3.72-2.37-5.88-6.6-5.88-11.1 0-1.72 1.4-3.12 3.12-3.12z" id="HJ-n-oT5lm"/>
<g id="BkfnbipcxQ_rk3f10clm" data-animator-group="true" data-animator-type="0"><path d="m179.94 199.29a8.0008 8.0008 0 1 1 0 16h25a8.0008 8.0008 0 1 1 0 -16h-25z" id="BkfnbipcxQ"/></g>
<g id="B172-o6ql7_rJZXj65lX" data-animator-group="true" data-animator-type="0"><path d="m174.94 183.29a8.0008 8.0008 0 1 0 0 16h60a8.0008 8.0008 0 1 0 0 -16h-60z" id="B172-o6ql7"/></g>
<g id="B1Vn-sp5e7_BJ1pyC9gX" data-animator-group="true" data-animator-type="0"><path d="m199.94 167.29a8.0008 8.0008 0 1 1 0 16h25a8.0008 8.0008 0 1 1 0 -16h-25z" id="B1Vn-sp5e7"/></g>
<g id="r1H3ZopceX_S1nghpcg7" data-animator-group="true" data-animator-type="0"><path d="m154.94 151.29a8.0008 8.0008 0 1 0 0 16h80a8.0008 8.0008 0 1 0 0 -16h-80z" id="r1H3ZopceX"/></g>
<g id="B1LnZiacgm_BymsgAqeX" data-animator-group="true" data-animator-type="0"><path d="m174.94 135.29a8.0008 8.0008 0 1 1 0 16h25a8.0008 8.0008 0 1 1 0 -16h-25z" id="B1LnZiacgm"/></g>
<g id="rJw2biT5g7_HkT_h6qxX" data-animator-group="true" data-animator-type="0"><path d="m164.94 119.29a8.0008 8.0008 0 1 0 0 16h80a8.0008 8.0008 0 1 0 0 -16h-80z" id="rJw2biT5g7"/></g>
<g id="H1O2boacxm_S1Rmb09x7" data-animator-group="true" data-animator-type="0"><path d="m189.94 103.29a8.0008 8.0008 0 1 1 0 16h25a8.0008 8.0008 0 1 1 0 -16h-25z" id="H1O2boacxm"/></g>
<g id="r1F3bja5l7_H1tSpT9gQ" data-animator-group="true" data-animator-type="0"><path d="m174.94 87.29a8.0008 8.0008 0 1 0 0 16h40a8.0008 8.0008 0 1 0 0 -16h-40zm60 0a8.0008 8.0008 0 1 0 0 16h5a8.0008 8.0008 0 1 0 0 -16h-5z" id="r1F3bja5l7"/></g>
<script>(function(){var a=document.querySelector('#ry2ZsTqeX'),b=a.querySelectorAll('style'),c=function(d){b.forEach(function(f){var g=f.textContent;g&amp;&amp;(f.textContent=g.replace(/transform-box:[^;\r\n]*/gi,'transform-box: '+d))})};c('initial'),window.requestAnimationFrame(function(){return c('fill-box')})})();</script></svg>