<?xml version="1.0" encoding="UTF-8" standalone="no"?>
<svg xmlns:rdf="http://www.w3.org/1999/02/22-rdf-syntax-ns#" xmlns="http://www.w3.org/2000/svg" height="400" width="400" version="1.1" xmlns:cc="http://creativecommons.org/ns#" xmlns:dc="http://purl.org/dc/elements/1.1/" viewBox="0 0 400 400">
<path style="opacity:0.30;color-rendering:auto;text-decoration-color:#000000;color:#000000;isolation:auto;mix-blend-mode:normal;fill-rule:evenodd;shape-rendering:auto;solid-color:#000000;block-progression:tb;text-decoration-line:none;image-rendering:auto;white-space:normal;text-indent:0;text-transform:none;text-decoration-style:solid;fill:#ffffff" d="m201.86 30.025c-12.986-0.34497-25.812 2.9302-37.043 9.459l-86 50c-21.557 12.536-34.819 35.586-34.82 60.516v100c0.0014 24.932 13.263 47.983 34.816 60.516l86 50c21.752 12.645 48.616 12.645 70.367 0l86-50c21.55-12.54 34.81-35.59 34.81-60.52v-100c-0.001-24.932-13.263-47.983-34.816-60.516l-86-50c-10.14-5.8948-21.599-9.1474-33.324-9.459z"/>
<path style="fill:#ffffff;fill-rule:evenodd" d="m250.03 100.03a8.3341 8.3341 0 0 1 0.56 0.06c-0.19-0.03-0.38-0.05-0.56-0.06zm-84.89 0c-4.26 0.37-7.61 3.94-7.61 8.3 0 3.6 2.28 6.64 5.45 7.82a8.3341 8.3341 0 0 1 2.19 -16.12h-0.03zm-2.16 16.12c0.25 0.09 0.5 0.17 0.75 0.23a8.3341 8.3341 0 0 1 -0.75 -0.23zm87.83-16.03a8.3341 8.3341 0 0 1 0.67 0.13c-0.22-0.05-0.44-0.1-0.67-0.13zm0.79 0.16a8.3341 8.3341 0 0 1 0.7 0.22c-0.23-0.08-0.46-0.15-0.7-0.22zm0.78 0.25a8.3341 8.3341 0 0 1 0.74 0.32c-0.24-0.12-0.49-0.22-0.74-0.32zm0.74 0.32a8.3341 8.3341 0 0 1 -2.94 15.79c4.26-0.36 7.62-3.93 7.62-8.31 0-3.29-1.91-6.13-4.68-7.48zm-89.26 15.57c0.22 0.05 0.44 0.1 0.66 0.13a8.3341 8.3341 0 0 1 -0.66 -0.13zm0.89 0.17c0.18 0.02 0.37 0.04 0.56 0.05a8.3341 8.3341 0 0 1 -0.56 -0.05zm34.35 0.09a8.3341 8.3341 0 0 0 -0.62 0.05c0.2-0.03 0.41-0.05 0.62-0.05zm-1.08 0.11a8.3341 8.3341 0 0 0 -0.31 0.06c0.1-0.03 0.2-0.04 0.31-0.06zm-0.84 0.18a8.3341 8.3341 0 0 0 -0.26 0.07c0.09-0.02 0.17-0.04 0.26-0.07zm-0.78 0.26a8.3341 8.3341 0 0 0 -0.26 0.1c0.09-0.04 0.17-0.07 0.26-0.1zm-0.74 0.32a8.3341 8.3341 0 0 0 -0.25 0.13c0.08-0.04 0.17-0.08 0.25-0.13zm-0.74 0.42a8.3341 8.3341 0 0 0 -0.2 0.13c0.07-0.05 0.14-0.09 0.2-0.13zm-0.68 0.48a8.3341 8.3341 0 0 0 -0.18 0.14c0.06-0.05 0.12-0.09 0.18-0.14zm-0.65 0.56a8.3341 8.3341 0 0 0 -0.12 0.12l0.12-0.12zm-1.93 2.84a8.3341 8.3341 0 0 0 -0.04 0.11c0.01-0.03 0.03-0.07 0.04-0.11zm-0.27 0.77a8.3341 8.3341 0 0 0 -0.05 0.19c0.02-0.06 0.03-0.13 0.05-0.19zm-0.19 0.78a8.3341 8.3341 0 0 0 -0.05 0.3c0.02-0.1 0.03-0.2 0.05-0.3zm-0.12 0.8a8.3341 8.3341 0 0 0 -0.02 0.39c0.01-0.13 0.01-0.26 0.02-0.39zm-0.04 0.81a8.3341 8.3341 0 0 0 0.02 0.41c-0.01-0.14-0.01-0.27-0.02-0.41zm0.05 0.85a8.3341 8.3341 0 0 0 0.04 0.32c-0.01-0.11-0.03-0.21-0.04-0.32zm0.13 0.84a8.3341 8.3341 0 0 0 0.05 0.24c-0.02-0.08-0.03-0.16-0.05-0.24zm0.21 0.81a8.3341 8.3341 0 0 0 0.07 0.21c-0.02-0.07-0.05-0.14-0.07-0.21zm0.28 0.75a8.3341 8.3341 0 0 0 0.11 0.26c-0.04-0.09-0.08-0.18-0.11-0.26zm0.35 0.72a8.3341 8.3341 0 0 0 0.14 0.26c-0.05-0.09-0.1-0.17-0.14-0.26zm0.41 0.68a8.3341 8.3341 0 0 0 0.21 0.3l-0.21-0.3zm0.47 0.63a8.3341 8.3341 0 0 0 0.24 0.28c-0.09-0.09-0.16-0.19-0.24-0.28zm0.55 0.61a8.3341 8.3341 0 0 0 0.25 0.24c-0.08-0.08-0.16-0.16-0.25-0.24zm0.63 0.57a8.3341 8.3341 0 0 0 0.23 0.18c-0.08-0.06-0.15-0.12-0.23-0.18zm0.69 0.5a8.3341 8.3341 0 0 0 0.21 0.14c-0.07-0.05-0.14-0.09-0.21-0.14zm0.73 0.43a8.3341 8.3341 0 0 0 0.19 0.1c-0.06-0.03-0.12-0.07-0.19-0.1zm0.8 0.36a8.3341 8.3341 0 0 0 0.14 0.06c-0.05-0.02-0.1-0.04-0.14-0.06zm-18.97 0.05c-0.02 0-0.04 0.01-0.06 0.02a8.3341 8.3341 0 0 0 0.06 -0.02zm-0.77 0.24l-0.12 0.03a8.3341 8.3341 0 0 0 0.12 -0.03zm21.22 0.13a8.3341 8.3341 0 0 0 0.26 0.06c-0.09-0.02-0.17-0.04-0.26-0.06zm-22.01 0.04c-0.07 0.01-0.14 0.02-0.22 0.03a8.3341 8.3341 0 0 0 0.22 -0.03zm-0.78 0.09c-0.23 0.02-0.46 0.03-0.7 0.02a8.3341 8.3341 0 0 0 0.7 -0.02zm58.33 0.05a8.3341 8.3341 0 0 1 0.56 0.06c-0.19-0.03-0.37-0.05-0.56-0.06zm-76.56 0c-4.25 0.37-7.6 3.94-7.6 8.31 0 3.58 2.26 6.62 5.43 7.8a8.3341 8.3341 0 0 1 2.2 -16.11h-0.03zm77.34 0.09a8.3341 8.3341 0 0 1 0.73 0.15c-0.24-0.06-0.48-0.11-0.73-0.15zm0.77 0.16a8.3341 8.3341 0 0 1 0.78 0.25c-0.26-0.1-0.52-0.18-0.78-0.25zm0.78 0.25a8.3341 8.3341 0 0 1 -3.02 16.14c4.65 0.08 8.47-3.68 8.47-8.33 0-3.6-2.28-6.64-5.45-7.81zm-81 15.63c0.23 0.09 0.47 0.16 0.71 0.23a8.3341 8.3341 0 0 1 -0.71 -0.23zm0.83 0.26c0.22 0.05 0.44 0.1 0.67 0.14a8.3341 8.3341 0 0 1 -0.67 -0.14zm0.9 0.17c0.18 0.02 0.37 0.04 0.55 0.06a8.3341 8.3341 0 0 1 -0.55 -0.06zm34.58 0.08c4.62-0.03 8.38 3.71 8.38 8.33 0 4.32-3.28 7.87-7.48 8.29a8.3341 8.3341 0 0 0 -0.9 -16.62zm29.17 0a8.3341 8.3341 0 0 0 -0.8 0.04c0.26-0.03 0.53-0.04 0.8-0.04zm-0.95 0.05a8.3341 8.3341 0 0 0 0.95 16.62c-4.63 0.02-8.38-3.71-8.38-8.34 0-4.3 3.25-7.83 7.43-8.28zm-27.39 16.58c-0.27 0.03-0.55 0.04-0.83 0.04a8.3341 8.3341 0 0 0 0.83 -0.04zm41.53 0.06a8.3341 8.3341 0 0 1 0.55 0.06c-0.18-0.02-0.36-0.05-0.55-0.06zm-59.89 0.01c-4.25 0.36-7.61 3.93-7.61 8.3 0 3.3 1.92 6.13 4.69 7.48a8.3341 8.3341 0 0 1 2.95 -15.78h-0.03zm-2.92 15.78c0.24 0.13 0.5 0.23 0.76 0.33a8.3341 8.3341 0 0 1 -0.76 -0.33zm63.6-15.7a8.3341 8.3341 0 0 1 0.66 0.14c-0.22-0.05-0.44-0.1-0.66-0.14zm0.78 0.17a8.3341 8.3341 0 0 1 0.76 0.24c-0.25-0.09-0.5-0.17-0.76-0.24zm0.76 0.24a8.3341 8.3341 0 0 1 0.76 0.33c-0.25-0.12-0.5-0.23-0.76-0.33zm0.76 0.33a8.3341 8.3341 0 0 1 -3.78 15.81c4.65 0.08 8.47-3.67 8.47-8.33 0-3.3-1.92-6.13-4.69-7.48zm-3.78 15.81h-79.17c-6.9 0-12.5 5.6-12.5 12.5v75.73c0 7.3 2.81 14.31 7.85 19.59h0.02c5.36 5.64 12.79 8.84 20.57 8.85h59.79c0.24 0 0.48-0.01 0.72-0.03 0.64-0.01 1.28-0.06 1.93-0.12 0.42-0.04 0.84-0.09 1.26-0.15 0.52-0.07 1.04-0.16 1.55-0.26 0.4-0.08 0.8-0.17 1.2-0.26 0.55-0.14 1.1-0.28 1.64-0.45h0.01c0.34-0.11 0.67-0.22 1.01-0.34 0.56-0.19 1.11-0.4 1.66-0.63 0.32-0.14 0.64-0.28 0.96-0.43 0.55-0.25 1.1-0.52 1.63-0.81l0.84-0.48c0.55-0.32 1.09-0.66 1.61-1.02h0.01c0.24-0.17 0.48-0.34 0.71-0.52 0.55-0.39 1.07-0.81 1.59-1.24 0.19-0.16 0.37-0.32 0.56-0.48 0.52-0.47 1.03-0.96 1.52-1.46 5.14-5.3 8.01-12.38 8.03-19.76v-4.4c7.72-4.97 14.99-10.2 20.91-16.2 6.95-7.04 12.34-15.67 12.42-25.86 0.12-7.97-2.33-15.06-6.98-19.93s-11.01-7.17-17.22-7.46c-3.04-0.15-6.12 0.12-9.13 0.78v-2.66c0-6.9-5.6-12.5-12.5-12.5h-12.5zm-61.35-0.51c0.24 0.08 0.49 0.16 0.74 0.23a8.3341 8.3341 0 0 1 -0.74 -0.23zm0.89 0.27c0.21 0.05 0.42 0.09 0.64 0.13a8.3341 8.3341 0 0 1 -0.64 -0.13zm0.88 0.16c0.18 0.03 0.36 0.05 0.55 0.06a8.3341 8.3341 0 0 1 -0.55 -0.06zm91.82 31.1c0.37-0.02 0.74-0.01 1.09 0 2.82 0.14 4.69 1 5.96 2.33 1.28 1.33 2.45 3.51 2.37 8.19v0.09c-0.02 4.38-2.35 8.96-7.61 14.3-2.49 2.51-5.58 5.08-9.05 7.66v-30.78c2.5-1.09 5.03-1.71 7.24-1.79zm-88.91 11.65c6.71 0 12 5.77 12 12.55 0.07 4.6-6.86 4.6-6.79 0 0-3.33-2.41-5.76-5.21-5.76s-5.21 2.43-5.21 5.76c0.07 4.6-6.86 4.6-6.79 0 0-6.78 5.29-12.55 12-12.55zm46 0c6.71 0 12 5.77 12 12.55 0.07 4.6-6.86 4.6-6.79 0 0-3.33-2.41-5.76-5.21-5.76s-5.21 2.43-5.21 5.76c0.07 4.6-6.86 4.6-6.79 0 0-6.78 5.29-12.55 12-12.55zm-30.88 24h17.76c1.72 0 3.12 1.4 3.12 3.12 0 4.5-2.16 8.73-5.88 11.1-3.73 2.37-8.51 2.37-12.24 0-3.72-2.37-5.88-6.6-5.88-11.1 0-1.72 1.4-3.12 3.12-3.12z"/>
<path style="opacity:.6;color-rendering:auto;text-decoration-color:#000000;color:#000000;isolation:auto;mix-blend-mode:normal;fill-rule:evenodd;shape-rendering:auto;solid-color:#000000;block-progression:tb;text-decoration-line:none;image-rendering:auto;white-space:normal;text-indent:0;text-transform:none;text-decoration-style:solid;fill:#ffffff" d="m166 100a8.3341 8.3341 0 1 0 0 16.667h8.3333a8.3341 8.3341 0 1 1 0 16.667h-16.667a8.3341 8.3341 0 1 0 0 16.667h33.333a8.3341 8.3341 0 1 1 0 16.667h-16.667a8.3341 8.3341 0 1 0 0 16.667h58.333a8.3341 8.3341 0 1 0 0 -16.667h-12.5a8.3341 8.3341 0 1 1 0 -16.667h12.5a8.3341 8.3341 0 1 0 0 -16.667h-33.999a8.3341 8.3341 0 0 0 0.23764 -0.008 8.3341 8.3341 0 0 1 0.19042 -16.65 8.3341 8.3341 0 0 0 -0.42806 -0.008h50.665a8.3341 8.3341 0 1 0 0 -16.667h-83.333z"/>
</svg>
