<?xml version="1.0" encoding="UTF-8" standalone="no"?>
<svg
   xmlns:dc="http://purl.org/dc/elements/1.1/"
   xmlns:cc="http://creativecommons.org/ns#"
   xmlns:rdf="http://www.w3.org/1999/02/22-rdf-syntax-ns#"
   xmlns:svg="http://www.w3.org/2000/svg"
   xmlns="http://www.w3.org/2000/svg"
   width="600"
   height="250"
   viewBox="0 0 600 250"
   id="svg4282"
   version="1.1">
  <defs
     id="defs4284" />
  <metadata
     id="metadata4287">
    <rdf:RDF>
      <cc:Work
         rdf:about="">
        <dc:format>image/svg+xml</dc:format>
        <dc:type
           rdf:resource="http://purl.org/dc/dcmitype/StillImage" />
        <dc:title></dc:title>
      </cc:Work>
    </rdf:RDF>
  </metadata>
  <path
     id="path2803"
     d="M 80 30 C 80 30 70 30 70 40 C 70 50 80 50 80 50 L 240 50 C 240 50 250 50 250 60 C 250 70 240 70 240 70 L 160 70 C 160 70 150 70 150 80 C 150 90 160 90 160 90 L 180 90 C 180 90 190 90 190 100 C 190 110 180 110 180 110 L 70 110 C 70 110 60 110 60 120 C 60 130 70 130 70 130 L 140 130 C 140 130 150 130 150 140 C 150 150 140 150 140 150 L 100 150 C 100 150 90 150 90 160 C 90 170 100 170 100 170 L 160 170 C 160 170 170 170 170 180 C 170 190 160 190 160 190 L 50 190 C 50 190 40 190 40 200 C 40 210 50 210 50 210 L 220 210 C 220 210 230 210 230 220 C 230 230 220 230 220 230 L 130 230 C 130 230 120 230 120 240 C 120 250 130 250 130 250 L 420 250 C 420 250 430 250 430 240 C 430 230 420 230 420 230 L 380 230 C 380 230 370 230 370 220 C 370 210 380 210 380 210 L 450 210 C 450 210 460 210 460 200 C 460 190 450 190 450 190 L 390 190 C 390 190 380 190 380 180 C 380 170 390 170 390 170 L 500 170 C 500 170 510 170 510 160 C 510 150 500 150 500 150 L 440 150 C 440 150 430 150 430 140 C 430 130 440 130 440 130 L 540 130 C 540 130 550 130 550 120 C 550 110 540 110 540 110 L 460 110 C 460 110 450 110 450 100 C 450 90 460 90 460 90 L 500 90 C 500 90 510 90 510 80 C 510 70 500 70 500 70 L 320 70 C 320 70 310 70 310 60 C 310 50 320 50 320 50 L 330 50 C 330 50 340 50 340 40 C 340 30 330 30 330 30 L 80 30 z M 390 30 C 390 30 380 30 380 40 C 380 50 390 50 390 50 L 440 50 C 440 50 450 50 450 40 C 450 30 440 30 440 30 L 390 30 z M 90 70 C 90 70 80 70 80 80 C 80 90 90 90 90 90 L 110 90 C 110 90 120 90 120 80 C 120 70 110 70 110 70 L 90 70 z M 20 110 C 20 110 10 110 10 120 C 10 130 20 130 20 130 L 30 130 C 30 130 40 130 40 120 C 40 110 30 110 30 110 L 20 110 z M 540 150 C 540 150 530 150 530 160 C 530 170 540 170 540 170 L 550 170 C 550 170 560 170 560 160 C 560 150 550 150 550 150 L 540 150 z "
     style="opacity:0.1;fill:#4e91e4" />
  <path
     style="opacity:0.3;fill:#4e91e4"
     d="m 80,160 c 0,0 0,-5 -5,-5 H 60.000008 c 0,0 -5,0 -5,-5 0,-5 5,-5 5,-5 H 80 c 0,0 5,0 5,-5 0,-5 -5,-5 -5,-5 H 50.000008 c 0,0 -5,0 -5,-5 0,-5 5,-5 5,-5 h 15 c 0,0 4.999992,0 4.999992,-5 0,-5 -4.999992,-5 -4.999992,-5 h -10 c 0,0 -5,0 -5,-5 0,-5 5,-5 5,-5 H 95 c 0,0 5,0 5,5 0,5 -5,5 -5,5 H 85 c 0,0 -5,0 -5,5 0,5 5,5 5,5 h 30 c 0,0 5,0 5,5 0,5 -5,5 -5,5 h -10 c 0,0 -5,0 -5,5 0,5 5,5 5,5 h 5 c 0,0 5,0 5,5 0,5 -5,5 -5,5 H 95 c 0,0 -5,0 -5,5 z"
     id="path1471" />
  <path
     d="m 60.000005,160 c 0,0 -20,0 -20,20 -1e-6,20 19.999997,20 19.999997,20 0,0 -3.1e-5,10 9.999997,10 H 85 100 c 0,0 10,0 10,-10 v -35 c 0,0 1e-5,-5 -5,-5 z m 0,10 v 20 c 0,0 -10,0 -10,-10 0,-10 10,-10 10,-10 z"
     id="path1465"
     style="opacity:0.9;fill:#546778" />
  <path
     d="m 335,200 h -15 v -20 h -40 v 20 h -15 c 0,0 -5,0 -5,5 v 5 h 80 v -5 c 0,-5 -5,-5 -5,-5 z"
     id="path875"
     style="opacity:0.9;fill:#546778" />
  <path
     d="m 200,170 c 0,0 0,10 10,10 h 180 c 10,0 10,-10 10,-10 V 70 c 0,0 0,-10 -10,-10 H 210 c 0,0 -10,2.1e-5 -10,10 z"
     id="path878"
     style="opacity:0.75;fill:#546778;fill-opacity:1" />
  <path
     style="opacity:0.85;fill:#ffffff"
     d="m 210,65 c 0,0 -5,0 -5,5 v 85 c 0,0 0,5 5,5 h 180 c 0,0 5,0 5,-5 V 70 c 0,0 0,-5 -5,-5 z"
     id="path881" />
  <path
     d="m 55,210 c 0,0 -5,0 -5,5 0,5 5,5 5,5 h 490 c 0,0 5,0 5,-5 0,-5 -5,-5 -5,-5 z"
     id="path825"
     style="opacity:0.75;fill:#4e91e4" />
  <path
     id="path2096"
     d="m 215,75 v 30 H 385 V 75 Z"
     style="opacity:0.6;fill:#4e91e4" />
  <path
     style="opacity:0.4;fill:#4e91e4"
     id="path2110"
     d="m 215,110 v 40 h 50 v -40 z m 60,0 v 40 h 50 v -40 z m 60,0 v 40 h 50 v -40 z" />
  <path
     id="path2796"
     d="m 380,200 c 0,0 0,10 10,10 10,0 90,0 90,0 0,0 10,0 10,-10 0,-10 0,-110 0,-110 0,0 0,-10 -10,-10 -10,0 -90,0 -90,0 0,0 -10,0 -10,10 0,10 0,110 0,110 z"
     style="fill:#4e91e4" />
  <path
     id="path2798"
     d="m 390,85 c 0,0 -5,0 -5,5 0,5 0,95 0,95 0,0 0,5 5,5 5,0 90,0 90,0 0,0 5,0 5,-5 0,-5 0,-95 0,-95 0,0 0,-5 -5,-5 -5,0 -90,0 -90,0 z"
     style="opacity:0.85;fill:#ffffff" />
  <path
     id="path2800"
     d="m 440,200 a 5,5 0 0 1 -5,5 5,5 0 0 1 -5,-5 5,5 0 0 1 5,-5 5,5 0 0 1 5,5 z"
     style="opacity:0.7;fill:#ffffff" />
</svg>
