<?xml version="1.0" encoding="UTF-8" standalone="no"?>
<!-- Created with Inkscape (http://www.inkscape.org/) -->

<svg
   xmlns:dc="http://purl.org/dc/elements/1.1/"
   xmlns:cc="http://creativecommons.org/ns#"
   xmlns:rdf="http://www.w3.org/1999/02/22-rdf-syntax-ns#"
   xmlns:svg="http://www.w3.org/2000/svg"
   xmlns="http://www.w3.org/2000/svg"
   xmlns:sodipodi="http://sodipodi.sourceforge.net/DTD/sodipodi-0.dtd"
   xmlns:inkscape="http://www.inkscape.org/namespaces/inkscape"
   width="100"
   height="100"
   viewBox="0 0 100 100"
   version="1.1"
   id="svg830"
   inkscape:version="0.92.2 5c3e80d, 2017-08-06"
   sodipodi:docname="header.svg">
  <defs
     id="defs824" />
  <sodipodi:namedview
     id="base"
     pagecolor="#ffffff"
     bordercolor="#666666"
     borderopacity="1.0"
     inkscape:pageopacity="0.0"
     inkscape:pageshadow="2"
     inkscape:zoom="15.839192"
     inkscape:cx="27.249002"
     inkscape:cy="19.73033"
     inkscape:document-units="px"
     inkscape:current-layer="svg830"
     showgrid="true"
     units="px"
     inkscape:window-width="1280"
     inkscape:window-height="755"
     inkscape:window-x="0"
     inkscape:window-y="1"
     inkscape:window-maximized="1">
    <inkscape:grid
       type="xygrid"
       id="grid1375"
       empspacing="5" />
  </sodipodi:namedview>
  <metadata
     id="metadata827">
    <rdf:RDF>
      <cc:Work
         rdf:about="">
        <dc:format>image/svg+xml</dc:format>
        <dc:type
           rdf:resource="http://purl.org/dc/dcmitype/StillImage" />
        <dc:title />
      </cc:Work>
    </rdf:RDF>
  </metadata>
  <path
     style="opacity:0.1;fill:#4e91e4"
     d="m 20,33 v 30 c 0,0 0,3 3,3 h 44 c 0,0 3,0 3,-3 V 33 Z"
     id="path832"
     inkscape:connector-curvature="0"
     sodipodi:nodetypes="ccscscc" />
  <path
     style="fill:#4e91e4"
     d="m 20,33 v -3 c 0,0 6e-6,-3 3,-3 h 44 c 0,0 3,0 3,3 v 3 z"
     id="path834"
     inkscape:connector-curvature="0"
     sodipodi:nodetypes="ccscscc" />
  <path
     style="opacity:0.8;fill:#ffffff"
     d="m 23,29 c -0.552285,0 -1,0.447715 -1,1 0,0.552285 0.447715,1 1,1 0.552285,0 1,-0.447715 1,-1 0,-0.552285 -0.447715,-1 -1,-1 z m 4,0 c -0.552285,0 -1,0.447715 -1,1 0,0.552285 0.447715,1 1,1 0.552285,0 1,-0.447715 1,-1 0,-0.552285 -0.447715,-1 -1,-1 z m 4,0 c -0.552285,0 -1,0.447715 -1,1 0,0.552285 0.447715,1 1,1 0.552285,0 1,-0.447715 1,-1 0,-0.552285 -0.447715,-1 -1,-1 z"
     id="path836"
     inkscape:connector-curvature="0"
     sodipodi:nodetypes="sssssssssssssss" />
  <path
     style="opacity:0.6;fill:#4e91e4"
     d="m 26,55 c 0,0 -2,0 -2,2 v 3 c 0,0 0,2 2,2 h 3 c 0,0 2,0 2,-2 v -3 c 0,0 0,-2 -2,-2 z m 8,1 c 0,0 -1,0 -1,1 0,1 1,1 1,1 h 8 c 0,0 1,0 1,-1 0,-1 -1,-1 -1,-1 z m 0,3 c 0,0 -1,0 -1,1 0,1 1,1 1,1 h 5 c 0,0 1,0 1,-1 0,-1 -1,-1 -1,-1 z"
     id="path843"
     inkscape:connector-curvature="0"
     sodipodi:nodetypes="cscscscsccsccscccsccscc" />
  <path
     style="opacity:0.6;fill:#4e91e4"
     d="m 49,55 c 0,0 -2,0 -2,2 v 3 c 0,0 0,2 2,2 h 3 c 0,0 2,0 2,-2 v -3 c 0,0 0,-2 -2,-2 z m 8,1 c 0,0 -1,0 -1,1 0,1 1,1 1,1 h 4 c 0,0 1,0 1,-1 0,-1 -1,-1 -1,-1 z m 0,3 c 0,0 -1,0 -1,1 0,1 1,1 1,1 h 8 c 0,0 1,0 1,-1 0,-1 -1,-1 -1,-1 z"
     id="path845"
     inkscape:connector-curvature="0"
     sodipodi:nodetypes="cscscscsccsccscccsccscc" />
  <path
     style="opacity:1;fill:#4ccdac"
     d="m 35,36 c -1.656854,0 -3,1.343146 -3,3 0,1.656854 1.343146,3 3,3 1.656854,0 3,-1.343146 3,-3 0,-1.656854 -1.343146,-3 -3,-3 z m 8.072266,2.560547 C 42.75,38.53125 42.375,38.625 42,39 l -7,7 -3,-3 c 0,0 -1,-1 -2,0 l -6,6 v 3 h 42 v -5 l -6,-6 c 0,0 -1,-1 -2,0 l -6,6 -8,-8 c 0,0 -0.390625,-0.390625 -0.927734,-0.439453 z"
     id="path920"
     inkscape:connector-curvature="0"
     sodipodi:nodetypes="sssssssccscccccsccs" />
  <path
     style="fill:#4e91e4"
     d="m 19,18 c 0,0 0,-1 -1,-1 0,0 -2,0 -2,-1 0,-1 2,-1 2,-1 0,0 1,0 1,-1 0,0 0,-2 1,-2 1,0 1,2 1,2 0,0 0,1 1,1 0,0 2,0 2,1 0,1 -2,1 -2,1 0,0 -1,0 -1,1 0,0 0,2 -1,2 -1,0 -1,-2 -1,-2 z"
     id="path933"
     inkscape:connector-curvature="0"
     sodipodi:nodetypes="ccccccccccccc" />
  <path
     style="opacity:0.5;fill:#4e91e4"
     d="m 70,13 c -1.656854,0 -3,1.343146 -3,3 0,1.656854 1.343146,3 3,3 1.656854,0 3,-1.343146 3,-3 0,-1.656854 -1.343146,-3 -3,-3 z m 0,2 c 0.552285,0 1,0.447715 1,1 0,0.552285 -0.447715,1 -1,1 -0.552285,0 -1,-0.447715 -1,-1 0,-0.552285 0.447715,-1 1,-1 z"
     id="path943"
     inkscape:connector-curvature="0"
     sodipodi:nodetypes="cccccccccc" />
  <path
     style="opacity:1;fill:#4e91e4"
     d="m 22,77 c 0,1.104569 -0.895431,2 -2,2 -1.104569,0 -2,-0.895431 -2,-2 0,-1.104569 0.895431,-2 2,-2 1.104569,0 2,0.895431 2,2 z"
     id="path950"
     inkscape:connector-curvature="0"
     sodipodi:nodetypes="ccccc" />
  <path
     sodipodi:nodetypes="ccccccccccccc"
     inkscape:connector-curvature="0"
     id="path953"
     d="m 49,86 c 0,0 0,-1 -1,-1 0,0 -2,0 -2,-1 0,-1 2,-1 2,-1 0,0 1,0 1,-1 0,0 0,-2 1,-2 1,0 1,2 1,2 0,0 0,1 1,1 0,0 2,0 2,1 0,1 -2,1 -2,1 0,0 -1,0 -1,1 0,0 0,2 -1,2 -1,0 -1,-2 -1,-2 z"
     style="opacity:0.7;fill:#4e91e4" />
  <path
     sodipodi:nodetypes="cccccccccc"
     inkscape:connector-curvature="0"
     id="path955"
     d="m 10,45 c -1.656854,0 -3,1.343146 -3,3 0,1.656854 1.343146,3 3,3 1.656854,0 3,-1.343146 3,-3 0,-1.656854 -1.343146,-3 -3,-3 z m 0,2 c 0.552285,0 1,0.447715 1,1 0,0.552285 -0.447715,1 -1,1 -0.552285,0 -1,-0.447715 -1,-1 0,-0.552285 0.447715,-1 1,-1 z"
     style="opacity:0.9;fill:#4e91e4" />
  <path
     style="opacity:0.8;fill:#4e91e4"
     d="m 85,40 a 1,1 0 0 1 -1,1 1,1 0 0 1 -1,-1 1,1 0 0 1 1,-1 1,1 0 0 1 1,1 z"
     id="path957"
     inkscape:connector-curvature="0" />
  <path
     style="fill:#4e91e4"
     d="m 62,57 c 0,0 -2,0 -2,2 v 11 c 0,0 0,2 2,2 h 16 c 0,0 2,0 2,-2 V 59 c 0,0 0,-2 -2,-2 z"
     id="path1443"
     inkscape:connector-curvature="0"
     sodipodi:nodetypes="cscscscsc" />
  <path
     style="opacity:0.9;fill:#ffffff"
     d="m 65.499999,61 c -2.25,2.25 0,4.500001 0,4.500001 l 3.375002,3.375 c 1.124999,1.125001 2.249999,0 2.249999,0 l 3.374999,-3.375 c 0,0 2.25,-2.250001 0,-4.500001 C 72.250001,58.750001 70,61 70,61 c 0,0 -2.25,-2.249999 -4.500001,0 z"
     id="path1445"
     inkscape:connector-curvature="0"
     sodipodi:nodetypes="sccccscs" />
</svg>
