<?xml version="1.0" encoding="UTF-8" standalone="no"?>
<!-- Created with Inkscape (http://www.inkscape.org/) -->

<svg
   xmlns:dc="http://purl.org/dc/elements/1.1/"
   xmlns:cc="http://creativecommons.org/ns#"
   xmlns:rdf="http://www.w3.org/1999/02/22-rdf-syntax-ns#"
   xmlns:svg="http://www.w3.org/2000/svg"
   xmlns="http://www.w3.org/2000/svg"
   xmlns:sodipodi="http://sodipodi.sourceforge.net/DTD/sodipodi-0.dtd"
   xmlns:inkscape="http://www.inkscape.org/namespaces/inkscape"
   width="100"
   height="100"
   viewBox="0 0 100 100"
   version="1.1"
   id="svg830"
   inkscape:version="0.92.2 5c3e80d, 2017-08-06"
   sodipodi:docname="header.svg">
  <defs
     id="defs824" />
  <sodipodi:namedview
     id="base"
     pagecolor="#ffffff"
     bordercolor="#666666"
     borderopacity="1.0"
     inkscape:pageopacity="0.0"
     inkscape:pageshadow="2"
     inkscape:zoom="5.6"
     inkscape:cx="35.714286"
     inkscape:cy="35.714286"
     inkscape:document-units="px"
     inkscape:current-layer="svg830"
     showgrid="true"
     units="px"
     inkscape:window-width="1280"
     inkscape:window-height="755"
     inkscape:window-x="0"
     inkscape:window-y="1"
     inkscape:window-maximized="1">
    <inkscape:grid
       type="xygrid"
       id="grid1375"
       empspacing="5" />
  </sodipodi:namedview>
  <metadata
     id="metadata827">
    <rdf:RDF>
      <cc:Work
         rdf:about="">
        <dc:format>image/svg+xml</dc:format>
        <dc:type
           rdf:resource="http://purl.org/dc/dcmitype/StillImage" />
        <dc:title></dc:title>
      </cc:Work>
    </rdf:RDF>
  </metadata>
  <path
     style="opacity:0.1;fill:#4e91e4"
     d="m 25,35 v 30 c 0,0 0,3 3,3 3,0 44,0 44,0 0,0 3,0 3,-3 0,-3 0,-30 0,-30 z"
     id="path832"
     inkscape:connector-curvature="0" />
  <path
     style="fill:#4e91e4"
     d="m 25,35 v -3 c 0,0 6e-6,-3 3,-3 h 44 c 0,0 2.954134,3.51e-4 3,3 v 3 z"
     id="path834"
     inkscape:connector-curvature="0"
     sodipodi:nodetypes="ccscscc" />
  <path
     style="opacity:0.8;fill:#ffffff"
     d="m 28,31 c -0.552285,0 -1,0.447715 -1,1 0,0.552285 0.447715,1 1,1 0.552285,0 1,-0.447715 1,-1 0,-0.552285 -0.447715,-1 -1,-1 z m 4,0 c -0.552285,0 -1,0.447715 -1,1 0,0.552285 0.447715,1 1,1 0.552285,0 1,-0.447715 1,-1 0,-0.552285 -0.447715,-1 -1,-1 z m 4,0 c -0.552285,0 -1,0.447715 -1,1 0,0.552285 0.447715,1 1,1 0.552285,0 1,-0.447715 1,-1 0,-0.552285 -0.447715,-1 -1,-1 z"
     id="path836"
     inkscape:connector-curvature="0" />
  <path
     style="opacity:1;fill:#4e91e4"
     d="M 31 57 C 31 57 29 57 29 59 L 29 62 C 29 62 29 64 31 64 L 34 64 C 34 64 36 64 36 62 L 36 59 C 36 59 36 57 34 57 L 31 57 z M 39 58 C 39 58 38 58 38 59 C 38 60 39 60 39 60 L 47 60 C 47 60 48 60 48 59 C 48 58 47 58 47 58 L 39 58 z M 39 61 C 39 61 38 61 38 62 C 38 63 39 63 39 63 L 44 63 C 44 63 45 63 45 62 C 45 61 44 61 44 61 L 39 61 z "
     id="path843" />
  <path
     style="opacity:1;fill:#4e91e4"
     d="M 54 57 C 54 57 52 57 52 59 L 52 62 C 52 62 52 64 54 64 L 57 64 C 57 64 59 64 59 62 L 59 59 C 59 59 59 57 57 57 L 54 57 z M 62 58 C 62 58 61 58 61 59 C 61 60 62 60 62 60 L 66 60 C 66 60 67 60 67 59 C 67 58 66 58 66 58 L 62 58 z M 62 61 C 62 61 61 61 61 62 C 61 63 62 63 62 63 L 70 63 C 70 63 71 63 71 62 C 71 61 70 61 70 61 L 62 61 z "
     id="path845" />
  <path
     style="opacity:1;fill:#4ccdac"
     d="m 40,38 c -1.656854,0 -3,1.343146 -3,3 0,1.656854 1.343146,3 3,3 1.656854,0 3,-1.343146 3,-3 0,-1.656854 -1.343146,-3 -3,-3 z m 8.072266,2.560547 C 47.75,40.53125 47.375,40.625 47,41 l -7,7 -3,-3 c 0,0 -1,-1 -2,0 l -6,6 v 3 h 42 v -5 l -6,-6 c 0,0 -1,-1 -2,0 l -6,6 -8,-8 c 0,0 -0.390625,-0.390625 -0.927734,-0.439453 z"
     id="path920"
     inkscape:connector-curvature="0" />
  <path
     style="fill:#4e91e4"
     d="m 19,17 c 0,0 0,-1 -1,-1 0,0 -2,0 -2,-1 0,-1 2,-1 2,-1 0,0 1,0 1,-1 0,0 0,-2 1,-2 1,0 1,2 1,2 0,0 0,1 1,1 0,0 2,0 2,1 0,1 -2,1 -2,1 0,0 -1,0 -1,1 0,0 0,2 -1,2 -1,0 -1,-2 -1,-2 z"
     id="path933"
     inkscape:connector-curvature="0"
     sodipodi:nodetypes="ccccccccccccc" />
  <path
     style="opacity:0.5;fill:#4e91e4"
     d="m 58,15 c -1.656854,0 -3,1.343146 -3,3 0,1.656854 1.343146,3 3,3 1.656854,0 3,-1.343146 3,-3 0,-1.656854 -1.343146,-3 -3,-3 z m 0,2 c 0.552285,0 1,0.447715 1,1 0,0.552285 -0.447715,1 -1,1 -0.552285,0 -1,-0.447715 -1,-1 0,-0.552285 0.447715,-1 1,-1 z"
     id="path943"
     inkscape:connector-curvature="0"
     sodipodi:nodetypes="cccccccccc" />
  <path
     style="opacity:1;fill:#4e91e4"
     d="m 82,78 c 0,1.104569 -0.895431,2 -2,2 -1.104569,0 -2,-0.895431 -2,-2 0,-1.104569 0.895431,-2 2,-2 1.104569,0 2,0.895431 2,2 z"
     id="path950"
     inkscape:connector-curvature="0"
     sodipodi:nodetypes="ccccc" />
  <path
     sodipodi:nodetypes="ccccccccccccc"
     inkscape:connector-curvature="0"
     id="path953"
     d="m 39,83 c 0,0 0,-1 -1,-1 0,0 -2,0 -2,-1 0,-1 2,-1 2,-1 0,0 1,0 1,-1 0,0 0,-2 1,-2 1,0 1,2 1,2 0,0 0,1 1,1 0,0 2,0 2,1 0,1 -2,1 -2,1 0,0 -1,0 -1,1 0,0 0,2 -1,2 -1,0 -1,-2 -1,-2 z"
     style="opacity:0.7;fill:#4e91e4" />
  <path
     sodipodi:nodetypes="cccccccccc"
     inkscape:connector-curvature="0"
     id="path955"
     d="m 12,49 c -1.656854,0 -3,1.343146 -3,3 0,1.656854 1.343146,3 3,3 1.656854,0 3,-1.343146 3,-3 0,-1.656854 -1.343146,-3 -3,-3 z m 0,2 c 0.552285,0 1,0.447715 1,1 0,0.552285 -0.447715,1 -1,1 -0.552285,0 -1,-0.447715 -1,-1 0,-0.552285 0.447715,-1 1,-1 z"
     style="opacity:0.9;fill:#4e91e4" />
  <path
     style="opacity:0.8;fill:#4e91e4"
     d="m 87,35 a 1,1 0 0 1 -1,1 1,1 0 0 1 -1,-1 1,1 0 0 1 1,-1 1,1 0 0 1 1,1 z"
     id="path957"
     inkscape:connector-curvature="0" />
</svg>
