<?xml version="1.0" encoding="UTF-8" standalone="no"?>
<svg xmlns:rdf="http://www.w3.org/1999/02/22-rdf-syntax-ns#" xmlns="http://www.w3.org/2000/svg" height="48" width="48" version="1.1" xmlns:cc="http://creativecommons.org/ns#" xmlns:dc="http://purl.org/dc/elements/1.1/" viewBox="0 0 47.999192 47.999261">
<path style="fill:#ffffff" d="m24.522 0.00073177c-11.946-0.091908-22.383 8.4794-24.236 20.346-1.9776 12.659 6.5031 24.636 19.241 27.173 12.738 2.5378 25.272-5.252 28.44-17.673 0.14788-0.56085-0.22652-1.1253-0.8071-1.2169-0.29932-0.07516-0.62269-0.01552-0.87795 0.16188-2.2178 1.4936-5.2196 1.5186-7.4547 0.03702s-3.1762-4.1102-2.3758-6.5352c0.27672-0.79966-0.56449-1.5049-1.3738-1.1519-2.213 0.29342-4.4417-0.52103-5.7997-2.128-1.3615-1.6108-1.6336-3.7393-0.74755-5.5737 0.0599-0.12172 0.09111-0.25292 0.09147-0.38458 0.06125-0.3992-0.14512-0.8-0.51711-1.0044-1.858-1.042-3.078-2.9262-3.216-4.9774-0.139-2.0512 0.819-3.9641 2.521-5.0718 0.319-0.2014 0.484-0.5628 0.426-0.9306-0.022-0.49132-0.409-0.891-0.906-0.93533-0.807-0.08472-1.611-0.12929-2.407-0.13542zm11.979 4.5411c-0.19577-0.00152-0.39854 0.0007857-0.60917 0.0046-0.84251 0.015375-1.7743 0.081665-2.6502 0.16246-1.7517 0.1616-3.2845 0.38362-3.2845 0.38362-0.57878 0.083778-0.96021 0.63856-0.82462 1.1994l1.3209 5.4599c0.04662 0.19262 0.15122 0.36686 0.30011 0.49986 1.3563 1.2117 2.8997 1.5659 4.1735 1.1515 1.2738-0.41452 2.1853-1.4095 2.8559-2.4858 0.67068-1.0765 1.1069-2.2679 1.2958-3.3124 0.09448-0.52224 0.13271-1.0035 0.06617-1.4729-0.06654-0.46944-0.26203-1.0857-0.93049-1.3667-0.03697-0.015542-0.07486-0.028865-0.11347-0.039897-0.48807-0.13955-1.0127-0.179-1.6-0.18356zm-21.476 5.444a2.4158 2.3809 0 0 1 2.2966 2.421 2.4158 2.3809 0 0 1 -2.384 2.3376 2.4158 2.3809 0 0 1 -2.4448 -2.2759 2.4158 2.3809 0 0 1 2.2321 -2.479l0.30011-0.00384zm27.441 4.0338c-0.31324 0.0059-0.66585 0.14424-0.90013 0.35447-0.02967 0.02663-0.05768 0.05501-0.08388 0.08498-0.44239 0.50583-0.74795 1.1441-1.0843 1.9056-0.33629 0.76149-0.6627 1.6242-0.95248 2.4427-0.57957 1.6371-1.0124 3.1034-1.0124 3.1034-0.16344 0.55358 0.18981 1.1261 0.7637 1.2379l5.5874 1.0874c0.27244 0.05298 0.55496-0.0085 0.77947-0.16956 0.97723-0.70114 1.1903-1.8877 1.123-2.98-0.06729-1.0923-0.40577-2.2362-0.85206-3.2938-0.44628-1.0576-0.99357-2.0141-1.5837-2.717-0.29504-0.35142-0.58724-0.64875-1.0058-0.86373-0.20929-0.10749-0.46564-0.19829-0.77888-0.19239zm-20.06 4.3265a3.423 3.3735 0 0 1 3.2541 3.4306 3.423 3.3735 0 0 1 -3.378 3.3122 3.423 3.3735 0 0 1 -3.4641 -3.2247 3.423 3.3735 0 0 1 3.1626 -3.5127l0.42544-0.0054zm-11.273 2.2816a4.1281 4.0684 0 0 1 3.9242 4.1372 4.1281 4.0684 0 0 1 -4.0739 3.9945 4.1281 4.0684 0 0 1 -4.1776 -3.889 4.1281 4.0684 0 0 1 3.8142 -4.2362l0.51302-0.0065zm15.404 8.1211a4.5309 4.4655 0 0 1 4.3074 4.5409 4.5309 4.4655 0 0 1 -4.4714 4.3843 4.5309 4.4655 0 0 1 -4.5853 -4.2686 4.5309 4.4655 0 0 1 4.1864 -4.6493l0.56304-0.0073zm10.181 4.4296a2.4158 2.3809 0 0 1 2.2966 2.421 2.4158 2.3809 0 0 1 -2.3841 2.3376 2.4158 2.3809 0 0 1 -2.4448 -2.2759 2.4158 2.3809 0 0 1 2.2321 -2.479l0.3003-0.0038zm-20.181 3.0837a2.4158 2.3809 0 0 1 2.2966 2.4212 2.4158 2.3809 0 0 1 -2.3841 2.3376 2.4158 2.3809 0 0 1 -2.4448 -2.2759 2.4158 2.3809 0 0 1 2.2321 -2.4792l0.3003-0.0038z"/>
</svg>
