<?xml version="1.0" encoding="UTF-8" standalone="no"?>
<svg xmlns:rdf="http://www.w3.org/1999/02/22-rdf-syntax-ns#" xmlns="http://www.w3.org/2000/svg" height="400" width="400" version="1.1" xmlns:cc="http://creativecommons.org/ns#" xmlns:dc="http://purl.org/dc/elements/1.1/" viewBox="0 0 400 400">
<path style="opacity:.3;color-rendering:auto;text-decoration-color:#000000;color:#000000;isolation:auto;mix-blend-mode:normal;fill-rule:evenodd;shape-rendering:auto;solid-color:#000000;block-progression:tb;text-decoration-line:none;image-rendering:auto;white-space:normal;text-indent:0;text-transform:none;text-decoration-style:solid;fill:#ffffff" d="m201.86 30.025c-12.986-0.34497-25.812 2.9302-37.043 9.459l-86 50c-21.557 12.536-34.819 35.586-34.82 60.516v100c0.0014 24.932 13.263 47.983 34.816 60.516l86 50c21.752 12.645 48.616 12.645 70.367 0l86-50c21.55-12.54 34.81-35.59 34.81-60.52v-100c-0.001-24.932-13.263-47.983-34.816-60.516l-86-50c-10.14-5.8948-21.599-9.1474-33.324-9.459z"/>
<path style="fill-rule:evenodd;fill:#ffffff" d="m153.5 183.33c-6.9 0-12.5 5.6-12.5 12.5v75.73c0 7.3 2.81 14.31 7.85 19.59h0.02c5.36 5.64 12.79 8.84 20.57 8.85h59.79c0.24 0 0.48-0.01 0.72-0.03 0.64-0.01 1.28-0.06 1.93-0.12 0.42-0.04 0.84-0.09 1.26-0.15 0.52-0.07 1.04-0.16 1.55-0.26 0.4-0.08 0.8-0.17 1.2-0.26 0.55-0.14 1.1-0.28 1.64-0.45h0.01c0.34-0.11 0.67-0.22 1.01-0.34 0.56-0.19 1.11-0.4 1.66-0.63 0.32-0.14 0.64-0.28 0.96-0.43 0.55-0.25 1.1-0.52 1.63-0.81l0.84-0.48c0.55-0.32 1.09-0.66 1.61-1.02h0.01c0.24-0.17 0.48-0.34 0.71-0.52 0.55-0.39 1.07-0.81 1.59-1.24 0.19-0.16 0.37-0.32 0.56-0.48 0.52-0.47 1.03-0.96 1.52-1.46 5.14-5.3 8.01-12.38 8.03-19.76v-4.4c7.72-4.97 14.99-10.2 20.91-16.2 6.95-7.04 12.34-15.67 12.42-25.86 0.12-7.97-2.33-15.06-6.98-19.93s-11.01-7.17-17.22-7.46c-3.04-0.15-6.12 0.12-9.13 0.78v-2.66c0-6.9-5.6-12.5-12.5-12.5h-91.67zm111.41 31.02c0.37-0.02 0.74-0.01 1.09 0 2.82 0.14 4.69 1 5.96 2.33 1.28 1.33 2.45 3.51 2.37 8.19v0.09c-0.02 4.38-2.35 8.96-7.61 14.3-2.49 2.51-5.58 5.08-9.05 7.66v-30.78c2.5-1.09 5.03-1.71 7.24-1.79zm-88.91 11.65c6.71 0 12 5.77 12 12.55 0.07 4.6-6.86 4.6-6.79 0 0-3.33-2.41-5.76-5.21-5.76s-5.21 2.43-5.21 5.76c0.07 4.6-6.86 4.6-6.79 0 0-6.78 5.29-12.55 12-12.55zm46 0c6.71 0 12 5.77 12 12.55 0.07 4.6-6.86 4.6-6.79 0 0-3.33-2.41-5.76-5.21-5.76s-5.21 2.43-5.21 5.76c0.07 4.6-6.86 4.6-6.79 0 0-6.78 5.29-12.55 12-12.55zm-30.88 24h17.76c1.72 0 3.12 1.4 3.12 3.12 0 4.5-2.16 8.73-5.88 11.1-3.73 2.37-8.51 2.37-12.24 0-3.72-2.37-5.88-6.6-5.88-11.1 0-1.72 1.4-3.12 3.12-3.12z"/>
<path style="opacity:.6;color-rendering:auto;text-decoration-color:#000000;color:#000000;isolation:auto;mix-blend-mode:normal;fill-rule:evenodd;shape-rendering:auto;solid-color:#000000;block-progression:tb;text-decoration-line:none;image-rendering:auto;white-space:normal;text-indent:0;text-transform:none;text-decoration-style:solid;fill:#ffffff" d="m166 100a8.3341 8.3341 0 1 0 0 16.667h8.3333a8.3341 8.3341 0 1 1 0 16.667h-16.667a8.3341 8.3341 0 1 0 0 16.667h33.333a8.3341 8.3341 0 1 1 0 16.667h-16.667a8.3341 8.3341 0 1 0 0 16.667h58.333a8.3341 8.3341 0 1 0 0 -16.667h-12.5a8.3341 8.3341 0 1 1 0 -16.667h12.5a8.3341 8.3341 0 1 0 0 -16.667h-33.999a8.3341 8.3341 0 0 0 0.23764 -0.008 8.3341 8.3341 0 0 1 0.19042 -16.65 8.3341 8.3341 0 0 0 -0.42806 -0.008h50.665a8.3341 8.3341 0 1 0 0 -16.667h-83.333z"/>
</svg>
