<?xml version="1.0" encoding="UTF-8"?>
<svg width="50" height="50" version="1.1" viewBox="0 0 50 50" xmlns="http://www.w3.org/2000/svg">
<path d="m43.75 7.5c-1.25 0-1.25 1.25-1.25 1.25v1.25l-35 10s0-2.5-2.5-2.5-2.5 2.5-2.5 2.5v10s0 2.5 2.5 2.5 2.5-2.5 2.5-2.5l5.0664 1.4473c-0.035392 0.33742-0.066406 0.679-0.066406 1.0527 0 0 0 7.5 7.5 7.5 4.2297 0 6.0727-2.3846 6.877-4.4648l15.623 4.4648v1.25c0 1.25 1.25 1.25 1.25 1.25h2.5c1.25 0 1.25-1.25 1.25-1.25v-32.5c0-1.25-1.25-1.25-1.25-1.25zm-28.473 24.723 9.1602 2.6172c-0.59664 1.302-1.8286 2.6602-4.4375 2.6602-5 0-5-5-5-5z"/>
</svg>
