<?xml version="1.0" encoding="UTF-8"?>
<svg width="50" height="50" version="1.1" viewBox="0 0 50 50" xmlns="http://www.w3.org/2000/svg">
<path d="m22.5 22.5h-7.5v-3.75s0-2.5-2.5-2.5c-1.25 0-2.5 1.25-2.5 1.25l-5 5s-2.5 2.5 0 5l5 5s1.25 1.25 2.5 1.25c2.5 0 2.5-2.5 2.5-2.5v-3.75h7.5v7.5h-3.75s-2.5 0-2.5 2.5c0 1.25 1.25 2.5 1.25 2.5l5 5s2.5 2.5 5 0l5-5s1.25-1.25 1.25-2.5c0-2.5-2.5-2.5-2.5-2.5h-3.75v-7.5h7.5v3.75s0 2.5 2.5 2.5c1.25 0 2.5-1.25 2.5-1.25l5-5s2.5-2.5 0-5l-5-5s-1.25-1.25-2.5-1.25c-2.5 0-2.5 2.5-2.5 2.5v3.75h-7.5v-7.5h3.75s2.5 0 2.5-2.5c0-1.25-1.25-2.5-1.25-2.5l-5-5s-2.5-2.5-5 0l-5 5s-1.25 1.25-1.25 2.5c0 2.5 2.5 2.5 2.5 2.5h3.75z"/>
</svg>
