<?xml version="1.0" encoding="UTF-8"?>
<svg width="50" height="50" version="1.1" viewBox="0 0 50 50" xmlns="http://www.w3.org/2000/svg">
<path d="m25 7.5l5 10 17.5 2.5-5-10-17.5-2.5zl-17.5 2.5-5 10 17.5-2.5 5-10zm0 5l-4.1094 7.5c-0.89055 1.25-0.92918 1.2539-2.1406 1.375l-11.25 1.125v16.25c0 1.25 1.2617 1.4297 1.2617 1.4297l13.717 1.9609c2.522 0.36029 2.5223 0.35929 5.0371 0l13.75-1.9648s1.2344-0.17517 1.2344-1.4648v-16.211l-11.256-1.125c-1.2449-0.12449-1.2434-0.12526-1.9844-1.4219l-4.2598-7.4531z"/>
</svg>
