<?xml version="1.0" encoding="UTF-8" standalone="no"?>
<svg
   xmlns:dc="http://purl.org/dc/elements/1.1/"
   xmlns:cc="http://creativecommons.org/ns#"
   xmlns:rdf="http://www.w3.org/1999/02/22-rdf-syntax-ns#"
   xmlns:svg="http://www.w3.org/2000/svg"
   xmlns="http://www.w3.org/2000/svg"
   xmlns:sodipodi="http://sodipodi.sourceforge.net/DTD/sodipodi-0.dtd"
   xmlns:inkscape="http://www.inkscape.org/namespaces/inkscape"
   height="50"
   width="50"
   version="1.1"
   viewBox="0 0 50 50"
   id="svg4"
   sodipodi:docname="cart.svg"
   inkscape:version="0.92.2 5c3e80d, 2017-08-06">
  <metadata
     id="metadata10">
    <rdf:RDF>
      <cc:Work
         rdf:about="">
        <dc:format>image/svg+xml</dc:format>
        <dc:type
           rdf:resource="http://purl.org/dc/dcmitype/StillImage" />
        <dc:title></dc:title>
      </cc:Work>
    </rdf:RDF>
  </metadata>
  <defs
     id="defs8" />
  <sodipodi:namedview
     pagecolor="#ffffff"
     bordercolor="#666666"
     borderopacity="1"
     objecttolerance="10"
     gridtolerance="10"
     guidetolerance="10"
     inkscape:pageopacity="0"
     inkscape:pageshadow="2"
     inkscape:window-width="1280"
     inkscape:window-height="755"
     id="namedview6"
     showgrid="true"
     inkscape:zoom="11.18"
     inkscape:cx="25"
     inkscape:cy="25"
     inkscape:window-x="0"
     inkscape:window-y="1"
     inkscape:window-maximized="1"
     inkscape:current-layer="svg4"
     showguides="false"
     inkscape:measure-start="0,0"
     inkscape:measure-end="0,0">
    <inkscape:grid
       type="xygrid"
       id="grid817"
       spacingx="1.25"
       spacingy="1.25"
       snapvisiblegridlinesonly="false"
       empspacing="2"
       empcolor="#3f26ff"
       empopacity="0.25098039"
       color="#ff4f84"
       opacity="0.19607843"
       enabled="true" />
    <inkscape:grid
       type="xygrid"
       id="grid829"
       color="#5aff00"
       opacity="0.1254902"
       empspacing="1"
       spacingx="0.625"
       spacingy="0.625"
       snapvisiblegridlinesonly="false"
       empcolor="#ff3f26"
       empopacity="0.25098039"
       enabled="false"
       dotted="false" />
  </sodipodi:namedview>
  <path
     d="m 6.25,6.25 c 0,0 -2.5,0 -2.5,2.5 0,2.5 2.5,2.5 2.5,2.5 h 5 L 15,35 c -0.235671,0.261761 2.5,-1.25 2.5,-1.25 -5,0 -5,5 -5,5 0,0 0,5 5,5 5,0 5,-5 5,-5 0,0 0,-5 -5,-5 l 3.75,2.5 h 12.5 l 2.5,-2.5 c -5,0 -5,5 -5,5 0,0 0,5 5,5 5,0 5,-5 5,-5 0,0 0,-5 -5,-5 l 2.5,2.5 c 0,0 2.5,0 2.5,-2.5 0,-2.5 -2.5,-2.5 -2.5,-2.5 H 20 L 19.595523,28.75 40,27.5 c 1.934729,0 2.5,-1.25 2.5,-1.25 L 46.25,15 c 0.428902,-0.884543 0,-2.5 -1.25,-2.5 H 16.25 L 15,6.25 Z"
     id="path1451"
     inkscape:connector-curvature="0" />
</svg>
