<?xml version="1.0" encoding="UTF-8" standalone="no"?>
<svg
   xmlns:dc="http://purl.org/dc/elements/1.1/"
   xmlns:cc="http://creativecommons.org/ns#"
   xmlns:rdf="http://www.w3.org/1999/02/22-rdf-syntax-ns#"
   xmlns:svg="http://www.w3.org/2000/svg"
   xmlns="http://www.w3.org/2000/svg"
   id="svg4"
   viewBox="0 0 50 50"
   version="1.1"
   width="50"
   height="50">
  <metadata
     id="metadata10">
    <rdf:RDF>
      <cc:Work
         rdf:about="">
        <dc:format>image/svg+xml</dc:format>
        <dc:type
           rdf:resource="http://purl.org/dc/dcmitype/StillImage" />
        <dc:title></dc:title>
      </cc:Work>
    </rdf:RDF>
  </metadata>
  <defs
     id="defs8" />
  <path
     id="path816"
     d="M 18.75 5 C 15 5 15 8.75 15 8.75 L 15 31.25 C 15 35 18.75 35 18.75 35 L 41.25 35 C 45 35 45 31.25 45 31.25 L 45 8.75 C 45 5 41.25 5 41.25 5 L 18.75 5 z M 8.75 15 C 5 15 5 18.75 5 18.75 L 5 41.25 C 5 45 8.75 45 8.75 45 L 31.25 45 C 35 45 35 41.25 35 41.25 L 35 37.5 L 18.75 37.5 C 12.5 37.5 12.5 31.25 12.5 31.25 L 12.5 15 L 8.75 15 z " />
</svg>
