<?xml version="1.0" encoding="UTF-8" standalone="no"?>
<svg
   xmlns:dc="http://purl.org/dc/elements/1.1/"
   xmlns:cc="http://creativecommons.org/ns#"
   xmlns:rdf="http://www.w3.org/1999/02/22-rdf-syntax-ns#"
   xmlns:svg="http://www.w3.org/2000/svg"
   xmlns="http://www.w3.org/2000/svg"
   id="svg4"
   viewBox="0 0 50 50"
   version="1.1"
   width="50"
   height="50">
  <metadata
     id="metadata10">
    <rdf:RDF>
      <cc:Work
         rdf:about="">
        <dc:format>image/svg+xml</dc:format>
        <dc:type
           rdf:resource="http://purl.org/dc/dcmitype/StillImage" />
        <dc:title></dc:title>
      </cc:Work>
    </rdf:RDF>
  </metadata>
  <defs
     id="defs8" />
  <path
     id="path816"
     d="m 1.25,26.25 c 0,0 -1.25,-1.25 0,-2.5 l 10,-10 c 0,0 1.25,-1.25 2.5,0 l 2.5,2.5 c 1.25,1.25 0,2.5 0,2.5 L 10,25 l 6.25,6.25 c 0,0 1.25,1.25 0,2.5 l -2.5,2.5 c -1.25,1.25 -2.5,0 -2.5,0 z" />
  <path
     d="m 48.75,26.25 c 0,0 1.25,-1.25 0,-2.5 l -10,-10 c 0,0 -1.25,-1.25 -2.5,0 l -2.5,2.5 c -1.25,1.25 0,2.5 0,2.5 L 40,25 33.75,31.25 c 0,0 -1.25,1.25 0,2.5 l 2.5,2.5 c 1.25,1.25 2.5,0 2.5,0 z"
     id="path820" />
  <path
     id="path822"
     d="m 27.438043,6.2418431 c 0,0 -1.207408,-0.3235238 -1.530932,0.8838835 L 16.848445,40.933131 c 0,0 -0.323524,1.207407 0.883883,1.530931 l 4.829629,1.294095 c 0,0 1.207408,0.323524 1.530932,-0.883884 L 33.151555,9.0668695 c 0,0 0.323524,-1.2074073 -0.883883,-1.5309311 z" />
</svg>
