<?xml version="1.0" encoding="UTF-8"?>
<svg width="50" height="50" version="1.1" viewBox="0 0 50 50" xmlns="http://www.w3.org/2000/svg">
<path d="m30 27.5c-2.5 0-2.5 2.5-2.5 2.5v7.5c0 2.5 2.5 2.5 3.75 1.25l2.5-2.5 6.25 6.25s1.25 1.25 2.5 0 0-2.5 0-2.5l-6.25-6.25 2.5-2.5c1.25-1.25 1.25-3.75-1.25-3.75zm-17.5 0c-2.5 0-2.5 2.5-1.25 3.75l2.5 2.5-6.25 6.25s-1.25 1.25 0 2.5 2.5 0 2.5 0l6.25-6.25 2.5 2.5c1.25 1.25 3.75 1.25 3.75-1.25v-7.5s0-2.5-2.5-2.5zm27.5-20-6.25 6.25-2.5-2.5c-1.25-1.25-3.75-1.25-3.75 1.25v7.5s0 2.5 2.5 2.5h7.5c2.5 0 2.5-2.5 1.25-3.75l-2.5-2.5 6.25-6.25s1.25-1.25 0-2.5-2.5 0-2.5 0zm-30 0s-1.25-1.25-2.5 0 0 2.5 0 2.5l6.25 6.25-2.5 2.5c-1.25 1.25-1.25 3.75 1.25 3.75h7.5s2.5 0 2.5-2.5v-7.5c0-2.5-2.5-2.5-3.75-1.25l-2.5 2.5z"/>
</svg>
