<?xml version="1.0" encoding="UTF-8" standalone="no"?>
<svg
   xmlns:dc="http://purl.org/dc/elements/1.1/"
   xmlns:cc="http://creativecommons.org/ns#"
   xmlns:rdf="http://www.w3.org/1999/02/22-rdf-syntax-ns#"
   xmlns:svg="http://www.w3.org/2000/svg"
   xmlns="http://www.w3.org/2000/svg"
   id="svg4"
   viewBox="0 0 50 50"
   version="1.1"
   width="50"
   height="50">
  <metadata
     id="metadata10">
    <rdf:RDF>
      <cc:Work
         rdf:about="">
        <dc:format>image/svg+xml</dc:format>
        <dc:type
           rdf:resource="http://purl.org/dc/dcmitype/StillImage" />
        <dc:title></dc:title>
      </cc:Work>
    </rdf:RDF>
  </metadata>
  <defs
     id="defs8" />
  <path
     id="path7912"
     d="m 31.25,27.5 c 0,0 -3.75,0 -3.75,3.75 v 7.5 c 0,0 0,1.25 1.25,2.5 1.25,1.25 2.5,0 2.5,0 L 33.75,39.023438 40,45 c 0,0 1.25,1.25 2.5,0 L 45,42.5 C 46.25,41.25 45,40 45,40 l -6.25,-6.25 2.5,-2.5 c 0,0 1.25,-1.25 0,-2.5 C 40,27.5 38.75,27.5 38.75,27.5 Z M 5,40 c 0,0 -1.25,1.25 0,2.5 L 7.5,45 c 1.25,1.25 2.5,0 2.5,0 l 6.25,-6.25 2.5,2.5 c 0,0 1.25,1.25 2.5,0 1.25,-1.25 1.25,-2.5 1.25,-2.5 v -7.5 c 0,0 0,-3.75 -3.75,-3.75 h -7.5 c 0,0 -1.25,0 -2.5,1.25 -1.25,1.25 0,2.5 0,2.5 l 2.5,2.5 z M 10,5 C 10,5 8.75,3.75 7.5,5 L 5,7.5 C 3.75,8.75 5,10 5,10 l 6.25,6.25 -2.5,2.5 c 0,0 -1.25,1.25 0,2.5 1.25,1.25 2.5,1.25 2.5,1.25 h 7.5 c 0,0 3.75,0 3.75,-3.75 v -7.5 c 0,0 0,-1.25 -1.25,-2.5 -1.25,-1.25 -2.5,0 -2.5,0 l -2.5,2.5 z m 35,5 c 0,0 1.25,-1.25 0,-2.5 L 42.5,5 C 41.25,3.75 40,5 40,5 l -6.25,6.25 -2.5,-2.5 c 0,0 -1.25,-1.25 -2.5,0 -1.25,1.25 -1.25,2.5 -1.25,2.5 v 7.5 c 0,0 0,3.75 3.75,3.75 h 7.5 c 0,0 1.25,0 2.5,-1.25 1.25,-1.25 0,-2.5 0,-2.5 l -2.5,-2.5 z" />
</svg>
