<?xml version="1.0" encoding="UTF-8" standalone="no"?>
<svg
   xmlns:dc="http://purl.org/dc/elements/1.1/"
   xmlns:cc="http://creativecommons.org/ns#"
   xmlns:rdf="http://www.w3.org/1999/02/22-rdf-syntax-ns#"
   xmlns:svg="http://www.w3.org/2000/svg"
   xmlns="http://www.w3.org/2000/svg"
   id="svg4"
   viewBox="0 0 50 50"
   version="1.1"
   width="50"
   height="50">
  <metadata
     id="metadata10">
    <rdf:RDF>
      <cc:Work
         rdf:about="">
        <dc:format>image/svg+xml</dc:format>
        <dc:type
           rdf:resource="http://purl.org/dc/dcmitype/StillImage" />
        <dc:title></dc:title>
      </cc:Work>
    </rdf:RDF>
  </metadata>
  <defs
     id="defs8" />
  <path
     id="path855"
     d="m 40,42.5 c 0,0 0,2.5 -2.5,2.5 H 35 c 0,0 -2.5,0 -2.5,-2.5 v -25 H 20 V 10 h 17.5 c 0,0 2.5,0 2.5,2.5 v 20 h 2.5 c 0,0 2.5,0 2.5,2.5 v 2.5 c 0,0 0,2.5 -2.5,2.5 H 40 Z" />
  <path
     d="M 10,7.5 C 10,7.5 10,5 12.5,5 H 15 c 0,0 2.5,0 2.5,2.5 v 25 H 30 V 40 H 12.5 c 0,0 -2.5,0 -2.5,-2.5 v -20 H 7.5 C 7.5,17.5 5,17.5 5,15 V 12.5 C 5,12.5 5,10 7.5,10 H 10 Z"
     id="path857" />
</svg>
