<?xml version="1.0" encoding="UTF-8"?>
<svg width="50" height="50" version="1.1" viewBox="0 0 50 50" xmlns="http://www.w3.org/2000/svg">
<path d="m25 22.5 8.75-8.75-2.5-2.5c-1.25-1.25-1.25-3.75 1.25-3.75h7.5c2.5 0 2.5 2.5 2.5 2.5v7.5c0 2.5-2.5 2.5-3.75 1.25l-2.5-2.5-8.75 8.75 8.75 8.75 2.5-2.5c1.25-1.25 3.75-1.25 3.75 1.25v7.5c0 2.5-2.5 2.5-2.5 2.5h-7.5c-2.5 0-2.5-2.5-1.25-3.75l2.5-2.5-8.75-8.75-8.75 8.75 2.5 2.5c1.25 1.25 1.25 3.75-1.25 3.75h-7.5c-2.5 0-2.5-2.5-2.5-2.5v-7.5c0-2.5 2.5-2.5 3.75-1.25l2.5 2.5 8.75-8.75-8.75-8.75-2.5 2.5c-1.25 1.25-3.75 1.25-3.75-1.25v-7.5s0-2.5 2.5-2.5h7.5c2.5 0 2.5 2.5 1.25 3.75l-2.5 2.5z"/>
</svg>
