<?xml version="1.0" encoding="UTF-8" standalone="no"?>
<svg
   xmlns:dc="http://purl.org/dc/elements/1.1/"
   xmlns:cc="http://creativecommons.org/ns#"
   xmlns:rdf="http://www.w3.org/1999/02/22-rdf-syntax-ns#"
   xmlns:svg="http://www.w3.org/2000/svg"
   xmlns="http://www.w3.org/2000/svg"
   id="svg4"
   viewBox="0 0 50 50"
   version="1.1"
   width="50"
   height="50">
  <metadata
     id="metadata10">
    <rdf:RDF>
      <cc:Work
         rdf:about="">
        <dc:format>image/svg+xml</dc:format>
        <dc:type
           rdf:resource="http://purl.org/dc/dcmitype/StillImage" />
        <dc:title></dc:title>
      </cc:Work>
    </rdf:RDF>
  </metadata>
  <defs
     id="defs8" />
  <path
     id="path5838"
     d="m 25,5 c 0,0 -12.5,0 -12.5,12.5 0,6.25 3.75,10 3.75,10 0,0 2.5,2.5 2.5,5 0,0 0,1.25 1.25,1.25 h 10 c 1.25,0 1.25,-1.25 1.25,-1.25 0,-2.5 2.5,-5 2.5,-5 0,0 3.75,-3.75 3.75,-10 C 37.5,5 25,5 25,5 Z m 0,3.75 c 0,0 1.25,0 1.25,1.25 0,1.25 -1.25,1.25 -1.25,1.25 -6.25,0 -6.25,6.25 -6.25,6.25 0,0 0,1.25 -1.25,1.25 -1.25,0 -1.25,-1.25 -1.25,-1.25 C 16.25,8.75 25,8.75 25,8.75 Z m -5,27.5 c -1.25,0 -1.25,1.25 -1.25,1.25 V 40 c 0,0 0,5 6.25,5 6.25,0 6.25,-5 6.25,-5 v -2.5 c 0,0 0,-1.25 -1.25,-1.25 z" />
</svg>
