<?xml version="1.0" encoding="UTF-8"?>
<svg width="50" height="50" version="1.1" viewBox="0 0 50 50" xmlns="http://www.w3.org/2000/svg">
<path d="m25 5s-12.5 0-12.5 12.5c0 7.5 5 10 5 10 1.25 1.25 1.25 2.5 1.25 2.5h12.5s0-1.25 1.25-2.5c0 0 5-2.5 5-10 0-12.5-12.5-12.5-12.5-12.5zm0 2.5c1.25 0 1.25 1.25 1.25 1.25s0 1.25-1.25 1.25c-7.5 0-7.5 6.25-7.5 6.25s0 1.25-1.25 1.25-1.25-1.25-1.25-1.25 0-8.75 10-8.75zm-6.25 23.75c-1.25 0-1.25 1.25-1.25 1.25s0 1.25 1.25 1.25h12.5c1.25 0 1.25-1.25 1.25-1.25s0-1.25-1.25-1.25zm0 3.75c-1.25 0-1.25 1.25-1.25 1.25s0 1.25 1.25 1.25h12.5c1.25 0 1.25-1.25 1.25-1.25s0-1.25-1.25-1.25zm1.25 5s-0.0025 4.97 5 5c5 0 5-5 5-5s0-1.25-1.25-1.25h-7.6856c-1.0644 0-1.0644 1.25-1.0644 1.25z"/>
</svg>
