<?xml version="1.0" encoding="UTF-8"?>
<svg width="50" height="50" version="1.1" viewBox="0 0 50 50" xmlns="http://www.w3.org/2000/svg">
<path d="m16.25 15c-1.25 0-10 0-10 10s10 10 10 10h5s10 0 10-10c0 0 0-1.25-1.25-1.25h-2.5c-1.25 0-1.25 1.25-1.25 1.25s0 5-5 5h-5s-5 0-5-5 5-5 5-5c1.25 0 3.75-2.5 3.75-3.75s-1.25-1.25-1.25-1.25zm12.5 0s-10 0-10 10c0 0 0 1.25 1.25 1.25h2.5c1.25 0 1.25-1.25 1.25-1.25s0-5 5-5h5s5 0 5 5-5 5-5 5c-1.25 0-3.75 2.5-3.75 3.75 0 0 0 1.25 1.25 1.25h2.5c1.25 0 10 0 10-10s-10-10-10-10z"/>
</svg>
