<?xml version="1.0" encoding="UTF-8" standalone="no"?>
<svg
   xmlns:dc="http://purl.org/dc/elements/1.1/"
   xmlns:cc="http://creativecommons.org/ns#"
   xmlns:rdf="http://www.w3.org/1999/02/22-rdf-syntax-ns#"
   xmlns:svg="http://www.w3.org/2000/svg"
   xmlns="http://www.w3.org/2000/svg"
   id="svg4"
   viewBox="0 0 50 50"
   version="1.1"
   width="50"
   height="50">
  <metadata
     id="metadata10">
    <rdf:RDF>
      <cc:Work
         rdf:about="">
        <dc:format>image/svg+xml</dc:format>
        <dc:type
           rdf:resource="http://purl.org/dc/dcmitype/StillImage" />
        <dc:title></dc:title>
      </cc:Work>
    </rdf:RDF>
  </metadata>
  <defs
     id="defs8" />
  <path
     id="path816"
     d="m 23.75,5 h -5 C 18.75,5 15,5 15,8.75 h -5 c -2.5,0 -2.5,2.5 -2.5,2.5 V 37.5 C 7.5,40 10,40 10,40 h 7.5 V 22.5 c 0,-5 5,-5 5,-5 H 35 v -6.25 c 0,-2.5 -2.5,-2.5 -2.5,-2.5 h -5 C 27.5,5 23.75,5 23.75,5 Z m -5,2.5 h 5 c 0,0 1.25,0 1.25,1.25 C 25,10 23.75,10 23.75,10 h -5 c 0,0 -1.25,0 -1.25,-1.25 0,-1.25 1.25,-1.25 1.25,-1.25 z m 5,13.75 c 0,0 -2.5,0 -2.5,2.5 V 42.5 c 0,0 0,2.5 2.5,2.5 H 40 c 0,0 2.5,0 2.5,-2.5 V 23.75 c 0,0 0,-2.5 -2.5,-2.5 z" />
</svg>
