<?xml version="1.0" encoding="UTF-8"?>
<svg width="50" height="50" version="1.1" viewBox="0 0 50 50" xmlns="http://www.w3.org/2000/svg">
<path d="m20 5c-3.75 0-3.75 3.75-3.75 3.75h-6.25c-2.5 0-2.5 2.5-2.5 2.5v26.25c0 2.5 2.5 2.5 2.5 2.5h7.5v-20c0-5 5-5 5-5h10v-3.75c0-2.5-2.5-2.5-2.5-2.5h-6.25s0-3.75-3.75-3.75zm0 2.5a1.25 1.25 0 0 1 1.25 1.25 1.25 1.25 0 0 1 -1.25 1.25 1.25 1.25 0 0 1 -1.25 -1.25 1.25 1.25 0 0 1 1.25 -1.25zm2.5 10s-2.5 0-2.5 2.5v22.5s0 2.5 2.5 2.5h17.5s2.5 0 2.5-2.5v-15h-7.5s-2.5 0-2.5-2.5v-7.5h-10zm12.5 0v5s0 2.5 2.5 2.5h5l-7.5-7.5z"/>
</svg>
