<?xml version="1.0" encoding="UTF-8" standalone="no"?>
<svg
   xmlns:dc="http://purl.org/dc/elements/1.1/"
   xmlns:cc="http://creativecommons.org/ns#"
   xmlns:rdf="http://www.w3.org/1999/02/22-rdf-syntax-ns#"
   xmlns:svg="http://www.w3.org/2000/svg"
   xmlns="http://www.w3.org/2000/svg"
   id="svg4"
   viewBox="0 0 50 50"
   version="1.1"
   width="50"
   height="50">
  <metadata
     id="metadata10">
    <rdf:RDF>
      <cc:Work
         rdf:about="">
        <dc:format>image/svg+xml</dc:format>
        <dc:type
           rdf:resource="http://purl.org/dc/dcmitype/StillImage" />
        <dc:title></dc:title>
      </cc:Work>
    </rdf:RDF>
  </metadata>
  <defs
     id="defs8" />
  <path
     id="path3653"
     d="m 35,5 c -4.142136,0 -7.5,3.357864 -7.5,7.5 0,0.372315 0.0355,0.735977 0.08789,1.09375 l -8.351563,5.220703 C 18.030577,17.987103 16.572783,17.5 15,17.5 c -4.142136,0 -7.5,3.357864 -7.5,7.5 0,4.142136 3.357864,7.5 7.5,7.5 1.572783,0 3.030577,-0.487103 4.236328,-1.314453 l 8.351563,5.220703 C 27.535501,36.764023 27.5,37.127685 27.5,37.5 c 0,4.142136 3.357864,7.5 7.5,7.5 4.142136,0 7.5,-3.357864 7.5,-7.5 0,-4.142136 -3.357864,-7.5 -7.5,-7.5 -1.572783,0 -3.030577,0.487103 -4.236328,1.314453 L 22.412109,26.09375 C 22.464499,25.735977 22.5,25.372315 22.5,25 c 0,-0.372315 -0.0355,-0.735977 -0.08789,-1.09375 l 8.351563,-5.220703 C 31.969423,19.512897 33.427217,20 35,20 39.142136,20 42.5,16.642136 42.5,12.5 42.5,8.357864 39.142136,5 35,5 Z" />
</svg>
