<?xml version="1.0" encoding="UTF-8"?>
<svg width="50" height="50" version="1.1" viewBox="0 0 50 50" xmlns="http://www.w3.org/2000/svg">
<path d="m25 5c-3.75 0-15 5-15 5s-2.5 1.25-2.5 2.5c0 27.5 16.25 32.5 17.5 32.5s17.5-5 17.5-32.5c0-1.25-2.5-2.5-2.5-2.5s-11.25-5-15-5zm8.6602 11.951c0.40283-0.036621 0.87109 0.080078 1.3398 0.54883l1.25 1.25c1.25 1.25 0 2.5 0 2.5l-12.5 12.5s-1.25 1.25-2.5 0l-6.25-6.25s-1.25-1.25 0-2.5l1.2676-1.2676c1.2332-1.2332 2.4824 0.017578 2.4824 0.017578l3.75 3.75 10-10s0.48877-0.48779 1.1602-0.54883z"/>
</svg>
