<?xml version="1.0" encoding="UTF-8" standalone="no"?>
<svg
   xmlns:dc="http://purl.org/dc/elements/1.1/"
   xmlns:cc="http://creativecommons.org/ns#"
   xmlns:rdf="http://www.w3.org/1999/02/22-rdf-syntax-ns#"
   xmlns:svg="http://www.w3.org/2000/svg"
   xmlns="http://www.w3.org/2000/svg"
   id="svg4"
   viewBox="0 0 50 50"
   version="1.1"
   width="50"
   height="50">
  <metadata
     id="metadata10">
    <rdf:RDF>
      <cc:Work
         rdf:about="">
        <dc:format>image/svg+xml</dc:format>
        <dc:type
           rdf:resource="http://purl.org/dc/dcmitype/StillImage" />
        <dc:title></dc:title>
      </cc:Work>
    </rdf:RDF>
  </metadata>
  <defs
     id="defs8" />
  <path
     id="path1022"
     d="m 37.5,37.5 c 0,0 0,2.5 -2.5,2.5 h -2.5 c 0,0 -2.5,0 -2.5,-2.5 V 26.25 l -12.5,12.5 c 0,0 -1.25,1.25 -2.5,1.25 0,0 -2.5,0 -2.5,-2.5 v -25 C 12.5,10 15,10 15,10 c 1.25,0 2.5,1.25 2.5,1.25 L 30,23.75 V 12.5 c 0,0 0,-2.5 2.5,-2.5 H 35 c 0,0 2.5,0 2.5,2.5 z" />
</svg>
