<?xml version="1.0" encoding="UTF-8" standalone="no"?>
<svg
   xmlns:dc="http://purl.org/dc/elements/1.1/"
   xmlns:cc="http://creativecommons.org/ns#"
   xmlns:rdf="http://www.w3.org/1999/02/22-rdf-syntax-ns#"
   xmlns:svg="http://www.w3.org/2000/svg"
   xmlns="http://www.w3.org/2000/svg"
   id="svg4"
   viewBox="0 0 50 50"
   version="1.1"
   width="50"
   height="50">
  <metadata
     id="metadata10">
    <rdf:RDF>
      <cc:Work
         rdf:about="">
        <dc:format>image/svg+xml</dc:format>
        <dc:type
           rdf:resource="http://purl.org/dc/dcmitype/StillImage" />
        <dc:title></dc:title>
      </cc:Work>
    </rdf:RDF>
  </metadata>
  <defs
     id="defs8" />
  <path
     id="path816"
     d="M 25.117188,5.1425781 C 24.341736,5.0687256 23.75,6.25 23.75,6.25 L 20,13.75 13.75,11.25 C 13.28125,11.09375 12.891113,11.015137 12.566406,10.998047 10.293457,10.878418 11.25,13.75 11.25,13.75 l 2.5,6.25 -7.5,3.75 c -2.5168457,1.215724 0,2.5 0,2.5 l 7.5,3.75 -2.5,6.25 c 0,0 -0.956543,2.871582 1.316406,2.751953 C 12.891113,38.984863 13.28125,38.90625 13.75,38.75 l 6.25,-2.5 3.75,7.5 c 1.131694,2.555732 2.5,0 2.5,0 l 3.75,-7.5 6.25,2.5 c 0,0 3.75,1.25 2.5,-2.5 l -2.5,-6.25 7.5,-3.75 c 2.508364,-1.233129 0,-2.5 0,-2.5 L 36.25,20 38.75,13.75 C 40,10 36.25,11.25 36.25,11.25 L 30,13.75 26.25,6.25 C 25.859375,5.46875 25.469666,5.1761475 25.117188,5.1425781 Z M 25,17.5 A 7.5,7.5 0 0 1 32.5,25 7.5,7.5 0 0 1 25,32.5 7.5,7.5 0 0 1 17.5,25 7.5,7.5 0 0 1 25,17.5 Z" />
</svg>
