<?xml version="1.0" encoding="UTF-8"?>
<svg width="50" height="50" version="1.1" viewBox="0 0 50 50" xmlns="http://www.w3.org/2000/svg">
<path d="m22.5 5s-1.25 0-1.25 1.25v1.25h-11.25c-1.25 0-1.25 1.25-1.25 1.25v2.5c0 1.25 1.25 1.25 1.25 1.25h30c1.25 0 1.25-1.25 1.25-1.25v-2.5s0-1.25-1.25-1.25h-11.25v-1.25c0-1.25-1.25-1.25-1.25-1.25zm-10 10v26.25s0 3.75 3.75 3.75h17.5c3.75 0 3.75-3.75 3.75-3.75v-26.25zm6.25 5h2.5s1.25 0 1.25 1.25v17.5s0 1.25-1.25 1.25h-2.5s-1.25 0-1.25-1.25v-17.5c0-1.25 1.25-1.25 1.25-1.25zm10 0h2.5s1.25 0 1.25 1.25v17.5c0 1.25-1.25 1.25-1.25 1.25h-2.5s-1.25 0-1.25-1.25v-17.5c0-1.25 1.25-1.25 1.25-1.25z"/>
</svg>
