<?xml version="1.0" encoding="UTF-8" standalone="no"?>
<svg xmlns:rdf="http://www.w3.org/1999/02/22-rdf-syntax-ns#" xmlns="http://www.w3.org/2000/svg" height="48" width="48" version="1.1" xmlns:cc="http://creativecommons.org/ns#" xmlns:dc="http://purl.org/dc/elements/1.1/" viewBox="0 0 48 48">
<path style="fill:#000000;" d="m12.791 6c0.6925 0 1.25 0.5575 1.25 1.25v4.2383c4.108-3.2679 9.64-4.3696 14.771-2.7517 6.164 1.9435 10.566 7.4287 11.129 13.867 0.5633 6.4385-2.8199 12.606-8.5527 15.59-5.5327 2.8802-12.231 2.2573-17.143-1.5234-0.08107-0.0455-0.15849-0.09616-0.23242-0.1582l-0.575-0.485c-0.63658-0.53416-0.7197-1.4767-0.18555-2.1133l1.9277-2.2969c0.53416-0.63658 1.4767-0.7197 2.1133-0.18555l0.27734 0.23242 0.002-0.0039c3.1053 2.6056 7.4493 3.0807 11.045 1.209 3.5956-1.8718 5.699-5.704 5.3457-9.7422s-3.089-7.4471-6.9551-8.666c-3.1154-0.98227-6.4434-0.37653-8.9824 1.5195h4.7246c0.6925 0 1.25 0.5575 1.25 1.25v2.5c0 0.6925-0.5575 1.25-1.25 1.25h-9.7656c-0.064 0.01-0.128 0.02-0.194 0.02h-2.5c-0.182 0-0.3523-0.042-0.5078-0.111-0.4598-0.185-0.7832-0.631-0.7832-1.159v-2.5c0-0.10532 0.01671-0.2071 0.04102-0.30469v-9.6758c0-0.6925 0.5575-1.25 1.25-1.25z"/>
</svg>
