<?xml version="1.0" encoding="UTF-8"?>
<svg width="50" height="50" version="1.1" viewBox="0 0 50 50" xmlns="http://www.w3.org/2000/svg">
<path d="m23.75 10c-1.25 0-2.5 1.25-2.5 1.25l-6.25 6.25h-7.5c-2.5 0-2.5 2.5-2.5 2.5v10c0 2.5 2.5 2.5 2.5 2.5h7.5l6.25 6.25s1.25 1.25 2.5 1.25 1.25-1.25 1.25-1.25v-27.5c0-1.25-1.25-1.25-1.25-1.25zm6.541 8.4336c-1.1221 2.82e-4 -1.6757 1.3643-0.87109 2.1465 1.1724 1.1724 1.8301 2.7618 1.8301 4.4199s-0.65764 3.2475-1.8301 4.4199c-1.2271 1.1781 0.58944 2.9946 1.7676 1.7676 1.6406-1.6406 2.5625-3.8673 2.5625-6.1875s-0.9219-4.5469-2.5625-6.1875c-0.23538-0.24222-0.55874-0.37889-0.89648-0.37891z"/>
</svg>
