<?xml version="1.0" encoding="UTF-8" standalone="no"?>
<svg
   xmlns:dc="http://purl.org/dc/elements/1.1/"
   xmlns:cc="http://creativecommons.org/ns#"
   xmlns:rdf="http://www.w3.org/1999/02/22-rdf-syntax-ns#"
   xmlns:svg="http://www.w3.org/2000/svg"
   xmlns="http://www.w3.org/2000/svg"
   id="svg4"
   viewBox="0 0 50 50"
   version="1.1"
   width="50"
   height="50">
  <metadata
     id="metadata10">
    <rdf:RDF>
      <cc:Work
         rdf:about="">
        <dc:format>image/svg+xml</dc:format>
        <dc:type
           rdf:resource="http://purl.org/dc/dcmitype/StillImage" />
        <dc:title></dc:title>
      </cc:Work>
    </rdf:RDF>
  </metadata>
  <defs
     id="defs8" />
  <path
     id="path967"
     d="m 10,10 c 0,0 -5,0 -5,5 v 20 c 0,0 0,5 5,5 h 28.75 c 0,0 3.589433,-0.0034 3.75,-3.75 V 30 h -10 C 30,30 30,27.5 30,27.5 v -5 c 0,0 0,-2.5 2.5,-2.5 h 10 v -6.25 c 0,0 0,-3.75 -3.75,-3.75 z m 22.5,11.25 c 0,0 -1.25,0 -1.25,1.25 v 5 c 0,0 0,1.25 1.25,1.25 h 11.25 c 0,0 1.25,0 1.25,-1.25 v -5 c 0,0 0,-1.25 -1.25,-1.25 z M 35,22.5 A 2.5,2.5 0 0 1 37.5,25 2.5,2.5 0 0 1 35,27.5 2.5,2.5 0 0 1 32.5,25 2.5,2.5 0 0 1 35,22.5 Z" />
</svg>
