<svg stroke-miterlimit="10" style="fill-rule:nonzero;clip-rule:evenodd;stroke-linecap:round;stroke-linejoin:round;" version="1.1" viewBox="0 0 48 48" xml:space="preserve" xmlns="http://www.w3.org/2000/svg" xmlns:xlink="http://www.w3.org/1999/xlink">
<defs/>
<g id="Layer-1">
<path d="M11 20L9 24L13 29L16 34L19 36L20 41L24 45L29 36L31 37L34 28L37 29L38 24L37 20L11 20Z" fill="#81a1c1" fill-rule="evenodd" opacity="1" stroke="none"/>
<path d="M11 20L13 15L16 14L21 4L25 6L28 11L31 9L35 15L37 20L11 20Z" fill="#88c0d0" fill-rule="evenodd" opacity="1" stroke="none"/>
<path d="M5 20L42 20" fill="none" fill-rule="evenodd" opacity="1" stroke="#5e81ac" stroke-linecap="round" stroke-linejoin="round" stroke-width="2"/>
<path d="M11 20L13 15L16 14L21 4L25 6L28 11L31 9L35 15L37 20" fill="none" fill-rule="evenodd" opacity="1" stroke="#5e81ac" stroke-linecap="round" stroke-linejoin="round" stroke-width="2"/>
<path d="M11 20L9 24L13 29L16 34L19 36L18 31L20 41L24 45L29 36L31 37L34 28L37 29L38 24L37 20" fill="none" fill-rule="evenodd" opacity="1" stroke="#5e81ac" stroke-linecap="round" stroke-linejoin="round" stroke-width="2"/>
<path d="M19 20L21 16" fill="none" fill-rule="evenodd" opacity="1" stroke="#5e81ac" stroke-linecap="round" stroke-linejoin="round" stroke-width="2"/>
<path d="M21 25L23 31" fill="none" fill-rule="evenodd" opacity="1" stroke="#5e81ac" stroke-linecap="round" stroke-linejoin="round" stroke-width="2"/>
<path d="M30 14L32 17" fill="none" fill-rule="evenodd" opacity="1" stroke="#5e81ac" stroke-linecap="round" stroke-linejoin="round" stroke-width="2"/>
<path d="M4 6L9 6" fill="none" fill-rule="evenodd" opacity="1" stroke="#d8dee9" stroke-linecap="round" stroke-linejoin="round" stroke-width="2"/>
<path d="M9 9L12 9" fill="none" fill-rule="evenodd" opacity="1" stroke="#d8dee9" stroke-linecap="round" stroke-linejoin="round" stroke-width="2"/>
<path d="M39 5L43 5" fill="none" fill-rule="evenodd" opacity="1" stroke="#d8dee9" stroke-linecap="round" stroke-linejoin="round" stroke-width="2"/>
<path d="M34 5L36 5" fill="none" fill-rule="evenodd" opacity="1" stroke="#d8dee9" stroke-linecap="round" stroke-linejoin="round" stroke-width="2"/>
</g>
</svg>
