<?xml version="1.0" encoding="UTF-8" standalone="no"?>
<!-- Created with Inkscape (http://www.inkscape.org/) -->

<svg
   xmlns:dc="http://purl.org/dc/elements/1.1/"
   xmlns:cc="http://creativecommons.org/ns#"
   xmlns:rdf="http://www.w3.org/1999/02/22-rdf-syntax-ns#"
   xmlns:svg="http://www.w3.org/2000/svg"
   xmlns="http://www.w3.org/2000/svg"
   xmlns:sodipodi="http://sodipodi.sourceforge.net/DTD/sodipodi-0.dtd"
   xmlns:inkscape="http://www.inkscape.org/namespaces/inkscape"
   width="200"
   height="200"
   viewBox="0 0 52.916665 52.916668"
   version="1.1"
   id="svg833"
   inkscape:version="0.92.2 5c3e80d, 2017-08-06"
   sodipodi:docname="box.svg">
  <defs
     id="defs827" />
  <sodipodi:namedview
     id="base"
     pagecolor="#ffffff"
     bordercolor="#666666"
     borderopacity="1.0"
     inkscape:pageopacity="0.0"
     inkscape:pageshadow="2"
     inkscape:zoom="5.6"
     inkscape:cx="154.97904"
     inkscape:cy="95.785392"
     inkscape:document-units="px"
     inkscape:current-layer="svg833"
     showgrid="true"
     units="px"
     inkscape:window-width="1280"
     inkscape:window-height="755"
     inkscape:window-x="0"
     inkscape:window-y="1"
     inkscape:window-maximized="1">
    <inkscape:grid
       type="xygrid"
       id="grid1378"
       snapvisiblegridlinesonly="false"
       spacingx="1.3229167"
       spacingy="1.3229167" />
    <inkscape:grid
       type="xygrid"
       id="grid1418"
       snapvisiblegridlinesonly="false"
       spacingx="0.66145833"
       spacingy="0.66145833"
       color="#c53f13"
       opacity="0.1254902"
       empcolor="#c53f13"
       empopacity="0.1254902"
       enabled="false" />
  </sodipodi:namedview>
  <metadata
     id="metadata830">
    <rdf:RDF>
      <cc:Work
         rdf:about="">
        <dc:format>image/svg+xml</dc:format>
        <dc:type
           rdf:resource="http://purl.org/dc/dcmitype/StillImage" />
        <dc:title></dc:title>
      </cc:Work>
    </rdf:RDF>
  </metadata>
  <g
     id="layer1"
     style="fill:#4e91e4">
    <path
       style="opacity:0.1"
       d="M 30 25 C 30 25 25 25 25 30 C 25 35 30 35 30 35 L 60 35 C 60 35 65 35 65 30 C 65 25 60 25 60 25 L 30 25 z M 110 25 C 110 25 105 25 105 30 C 105 35 110 35 110 35 L 125 35 C 125 35 130 34.999999 130 40 C 130 45.000001 125 45 125 45 L 75 45 C 75 45 70 45.000003 70 50 C 70 55.000001 75 55 75 55 L 90 55 C 90 55 95 54.999999 95 60 C 95 64.999997 90 65 90 65 L 45 65 C 45 65 40 64.999999 40 70 L 55 70 L 140 70 L 145 75 L 165 75 C 165 75 170 75.000001 170 70 C 170 64.999999 165 65 165 65 L 145 65 C 145 65 140 64.999997 140 60 C 140 54.999999 145 55 145 55 L 180 55 C 180 55 185 55.000001 185 50 C 185 45.000003 180 45 180 45 L 170 45 C 170 45 165 45.000001 165 40 C 165 34.999999 170 35 170 35 L 190 35 C 190 35 195 35 195 30 C 195 25 190 25 190 25 L 110 25 z M 35 85 C 35 85 30 84.999999 30 90 C 30 95.000001 35 95 35 95 L 40 95 L 40 85 L 35 85 z M 140 85 L 140 90 L 165 90 L 165 95 L 166.25 95 L 167.5 90 L 172.5 90 L 172 95 L 180 95 C 180 95 185 95.000001 185 90 C 185 84.999999 180 85 180 85 L 140 85 z M 20 105 C 20 105 15 105 15 110 C 15 115 20 115 20 115 L 25 115 C 25 115 30 115 30 110 C 30 105 25 105 25 105 L 20 105 z M 10 125 C 10 125 5 125 5 130 C 5 135 10 135 10 135 L 40 135 L 40 125 L 10 125 z M 140 125 L 140 135 L 170 135 C 170 135 175 135 175 130 C 175 125 170 125 170 125 L 140 125 z M 25 145 C 25 145 20 145 20 150 C 20 155 25 155 25 155 L 100 155 C 100 155 105 155 105 160 C 105 165 100 165 100 165 L 70 165 C 70 165 65 165 65 170 C 65 175 70 175 70 175 L 145 175 C 145 175 150 175 150 170 C 150 165 145 165 145 165 C 145 165 140 165 140 160 C 140 155 145 155 145 155 L 160 155 C 160 155 165 155 165 150 C 165 145 160 145 160 145 L 140 145 L 135 145 L 75 145 L 55 145 L 40 145 L 25 145 z "
       transform="scale(0.26458333)"
       id="path1444" />
    <path
       d="M 10.583334,38.364583 V 18.520832 h 3.96875 v 19.843751 z"
       id="path1399"
       style="opacity:0.6"
       inkscape:connector-curvature="0" />
    <path
       style="opacity:0.3"
       d="M 55 70 L 55 145 L 140 145 L 140 115 L 130 115 L 127.5 90 L 140 90 L 140 80 L 65 80 L 55 70 z "
       transform="scale(0.26458333)"
       id="path1402" />
    <path
       style="opacity:0.8"
       d="m 14.552085,18.520832 2.645833,2.645833 h 22.489583 l -2.645833,-2.645833 z"
       id="path1410"
       inkscape:connector-curvature="0" />
    <path
       style="opacity:1"
       d="m 10.583334,18.520832 -2.6458344,2.645833 h 3.9687514 l 2.645833,-2.645833 z"
       id="path1405"
       inkscape:connector-curvature="0" />
    <path
       style="opacity:0.6"
       d="m 34.395833,30.427083 -0.661458,-6.614583 9.921876,-1e-6 v 2.645834 L 44.317708,23.8125 h 1.322917 l -0.661459,6.614583 z"
       id="path1423"
       inkscape:connector-curvature="0" />
    <path
       style="fill:#546778"
       d="m 130,115 v 5 c 0,0 0,5 5,5 h 5 c 0,0 5,0 5,5 v 10 c 0,0 0,5 5,5 5,0 5,-5 5,-5 v -10 c 0,0 0,-5 5,-5 h 5 c 0,0 5,0 5,-5 v -5 z m 20,22.5 a 2.4999999,2.4999999 0 0 1 2.5,2.5 2.4999999,2.4999999 0 0 1 -2.5,2.5 2.4999999,2.4999999 0 0 1 -2.5,-2.5 2.4999999,2.4999999 0 0 1 2.5,-2.5 z"
       transform="scale(0.26458333)"
       id="path1415"
       inkscape:connector-curvature="0" />
    <path
       style="opacity:0.9"
       d="m 33.734375,23.8125 c 0,0 0,0.661458 0.661459,0.661458 0.661458,0 0.661458,0 0.661458,0 0,0 0.661458,-2e-6 0.661458,0.661458 0,0.661459 0,1.322917 0.661459,1.322917 0.661458,0 0.661458,-0.661458 0.661458,-0.661458 0,0 2e-6,-0.661459 0.661458,-0.661459 0.661458,0 0.661458,0.661459 0.661458,0.661459 v 1.322916 c 0,0 0,0.661459 0.661459,0.661459 0.661458,0 0.661458,-0.661459 0.661458,-0.661459 v -1.322916 c 0,0 0,-0.661459 0.661458,-0.661459 0.661459,0 0.661459,0.661459 0.661459,0.661459 v 0.661458 c 0,0 2e-6,0.661458 0.661458,0.661458 0.661458,0 0.661458,-0.661459 0.661458,-0.661459 V 23.8125 Z"
       id="path1420"
       inkscape:connector-curvature="0" />
  </g>
</svg>
