<?xml version="1.0" encoding="UTF-8" standalone="no"?>
<!-- Created with Inkscape (http://www.inkscape.org/) -->

<svg
   xmlns:dc="http://purl.org/dc/elements/1.1/"
   xmlns:cc="http://creativecommons.org/ns#"
   xmlns:rdf="http://www.w3.org/1999/02/22-rdf-syntax-ns#"
   xmlns:svg="http://www.w3.org/2000/svg"
   xmlns="http://www.w3.org/2000/svg"
   xmlns:sodipodi="http://sodipodi.sourceforge.net/DTD/sodipodi-0.dtd"
   xmlns:inkscape="http://www.inkscape.org/namespaces/inkscape"
   width="200"
   height="200"
   viewBox="0 0 52.916665 52.916668"
   version="1.1"
   id="svg1467"
   inkscape:version="0.92.2 5c3e80d, 2017-08-06"
   sodipodi:docname="interfaces.svg">
  <defs
     id="defs1461" />
  <sodipodi:namedview
     id="base"
     pagecolor="#ffffff"
     bordercolor="#666666"
     borderopacity="1.0"
     inkscape:pageopacity="0.0"
     inkscape:pageshadow="2"
     inkscape:zoom="3.959798"
     inkscape:cx="98.22172"
     inkscape:cy="91.272676"
     inkscape:document-units="px"
     inkscape:current-layer="svg1467"
     showgrid="true"
     units="px"
     inkscape:window-width="1280"
     inkscape:window-height="755"
     inkscape:window-x="0"
     inkscape:window-y="1"
     inkscape:window-maximized="1">
    <inkscape:grid
       type="xygrid"
       id="grid2012"
       snapvisiblegridlinesonly="false"
       spacingx="1.3229167"
       spacingy="1.3229167" />
  </sodipodi:namedview>
  <metadata
     id="metadata1464">
    <rdf:RDF>
      <cc:Work
         rdf:about="">
        <dc:format>image/svg+xml</dc:format>
        <dc:type
           rdf:resource="http://purl.org/dc/dcmitype/StillImage" />
        <dc:title></dc:title>
      </cc:Work>
    </rdf:RDF>
  </metadata>
  <g
     id="layer1"
     style="fill:#4e91e4">
    <path
       style="opacity:0.1"
       d="M 70 35 C 70 35 65 34.999999 65 40 C 65 45.000001 70 45 70 45 L 85 45 C 85 45 90 45.000003 90 50 C 90 55.000001 85 55 85 55 L 35 55 C 35 55 30 54.999999 30 60 C 30 64.999997 35 65 35 65 L 65 65 C 65 65 70 64.999999 70 70 C 70 75.000001 65 75 65 75 L 55 75 L 55 85 L 70 85 L 70 95 L 45 95 L 45 105 L 90 105 C 90 105 95 105 95 110 C 95 115 90 115 90 115 L 70 115 C 70 115 65 115 65 120 C 65 125 70 125 70 125 L 75 125 C 75 125 80 125 80 130 C 80 135 75 135 75 135 L 50 135 C 50 135 45 135 45 140 C 45 145 50 145 50 145 L 110 145 C 110 145 115 145 115 150 C 115 155 110 155 110 155 L 80 155 C 80 155 75 155 75 160 C 75 165 80 165 80 165 L 120 165 C 120 165 125 165 125 170 C 125 175 120 175 120 175 L 115 175 C 115 175 110 175 110 180 C 110 185 115 185 115 185 L 150 185 C 150 185 155 185 155 180 C 155 175 150 175 150 175 L 140 175 C 140 175 135 175 135 170 C 135 165 140 165 140 165 L 175 165 C 175 165 180 165 180 160 C 180 155 175 155 175 155 L 160 155 C 155 155 155 150 155 150 L 160 145 L 180 145 C 180 145 185 145 185 140 C 185 135 180 135 180 135 C 180 135 175 135 175 130 C 175 125 180 125 180 125 L 190 125 C 190 125 195 125 195 120 C 195 115 190 115 190 115 L 165 115 L 165 130 C 165 135 160 135 160 135 L 105 135 C 99.999999 135 100 130 100 130 L 100 60 C 100 54.999999 105 55 105 55 L 155 55 C 155 55 150 55.000001 150 50 C 150 45.000003 155 45 155 45 L 165 45 C 165 45 170 45.000001 170 40 C 170 34.999999 165 35 165 35 L 70 35 z M 160 55 C 165 55 165 60 165 60 L 165 65 L 190 65 C 190 65 195 64.999997 195 60 C 195 54.999999 190 55 190 55 L 160 55 z M 165 75 L 165 85 L 175 85 C 175 85 180 84.999997 180 80 C 180 74.999999 175 75 175 75 L 165 75 z M 180 95 C 180 95 175 95.000003 175 100 C 175 105.00001 180 105 180 105 L 185 105 C 185 105 190 105.00001 190 100 C 190 95.000003 185 95 185 95 L 180 95 z M 15 115 C 15 115 10 115 10 120 C 10 125 15 125 15 125 L 45 125 C 45 125 50 125 50 120 C 50 115 45 115 45 115 L 15 115 z M 50 155 C 50 155 45 155 45 160 C 45 165 50 165 50 165 L 60 165 C 60 165 65 165 65 160 C 65 155 60 155 60 155 L 50 155 z "
       transform="scale(0.26458333)"
       id="path2086" />
    <path
       style="fill:#546778"
       d="M 105 50 C 105 50 95 49.999997 95 60 L 95 75 C 99.999997 75 100 80 100 80 L 100 60 C 100 54.999999 105 55 105 55 L 160 55 C 165 55 165 60 165 60 L 165 130 C 165 135 160 135 160 135 L 105 135 C 99.999999 135 100 130 100 130 L 100 116.25 L 95 116.25 L 95 140 C 95 140 95.000001 150 105 150 L 125 150 L 160 150 C 160 150 170 150 170 140 L 170 60 C 170 60 170 50 160 50 L 105 50 z M 100 100 C 100 105.00001 95 105 95 105 L 95 113.74805 L 100 113.74805 L 100 100 z M 132.5 140 A 2.4999999 2.4999999 0 0 1 135 142.5 A 2.4999999 2.4999999 0 0 1 132.5 145 A 2.4999999 2.4999999 0 0 1 130 142.5 A 2.4999999 2.4999999 0 0 1 132.5 140 z "
       transform="scale(0.26458333)"
       id="path2033" />
    <path
       d="m 105,60 v 5 h 15 v -5 z m 35,0 v 5 h 5 v -5 z m 10,0 v 5 h 10 v -5 z m -45,10 v 25 h 55 V 70 Z m 0,30 v 5 h 25 v -5 z m 50,0 v 5 h 5 v -5 z m -50,10 v 15 h 15 v -15 z m 20,0 v 15 h 15 v -15 z m 20,0 v 15 h 15 v -15 z"
       transform="scale(0.26458333)"
       id="path2047"
       inkscape:connector-curvature="0"
       style="opacity:0.3" />
    <path
       d="m 27.78125,14.552082 c 0,0 -1.322917,0 -1.322917,1.322917 0,1.322916 0,18.520834 0,18.520834 0,0 0,1.322917 1.322917,1.322917 1.322916,0 14.552083,0 14.552083,0 0,0 1.322916,0 1.322916,-1.322917 0,-1.322917 0,-18.520834 0,-18.520834 0,0 0,-1.322917 -1.322916,-1.322917 -1.322917,0 -14.552083,0 -14.552083,0 z"
       id="path2036"
       inkscape:connector-curvature="0"
       style="opacity:0.1;fill:#546778" />
    <path
       style="opacity:0.6;fill:#546778"
       d="m 26.458984,23.482422 v 0.660156 c 0.551216,0 0.735406,0.22667 0.861328,0.478516 0.125923,0.251845 0.13086,0.513672 0.13086,0.513672 v 3.96875 c 0,0.551215 -0.22667,0.737358 -0.478516,0.863281 -0.251845,0.125923 -0.513672,0.128906 -0.513672,0.128906 H 19.84375 c -1.43316,0 -2.241157,0.765518 -2.611328,1.505859 -0.370171,0.740342 -0.365234,1.470704 -0.365234,1.470704 v 1.324218 h 0.662109 v -1.324218 c 0,0 0.0036,-0.591254 0.294922,-1.173828 0.291287,-0.582575 0.806858,-1.140625 2.019531,-1.140626 h 6.615234 c 0,0 0.398981,0.0036 0.808594,-0.201171 0.409613,-0.204807 0.84375,-0.681424 0.84375,-1.453125 v -3.96875 c 0,0 0.0056,-0.398981 -0.199219,-0.808594 -0.204806,-0.409613 -0.681423,-0.84375 -1.453125,-0.84375 z"
       id="path2070"
       inkscape:connector-curvature="0" />
    <path
       style="fill:#546778"
       d="m 15.875,38.364583 c 0,0 0,1.322917 1.322917,1.322917 1.322917,0 1.322917,-1.322917 1.322917,-1.322917 V 35.71875 c 0,0 0,-1.322917 -1.322917,-1.322917 -1.322917,0 -1.322917,1.322917 -1.322917,1.322917 z"
       id="path2068"
       inkscape:connector-curvature="0" />
    <path
       style="opacity:0.8"
       d="m 26.458333,26.458332 v -5.291666 c 0,0 0,-1.322917 -1.322916,-1.322917 H 7.9375002 c 0,0 -1.3229167,0 -1.3229167,1.322917 v 5.291666 c 0,0 0,1.322918 1.3229167,1.322918 H 25.135417 c 0,0 1.322916,0 1.322916,-1.322918 z"
       id="path2072"
       inkscape:connector-curvature="0" />
  </g>
</svg>
