<?xml version="1.0" encoding="UTF-8" standalone="no"?>
<svg
   xmlns:dc="http://purl.org/dc/elements/1.1/"
   xmlns:cc="http://creativecommons.org/ns#"
   xmlns:rdf="http://www.w3.org/1999/02/22-rdf-syntax-ns#"
   xmlns:svg="http://www.w3.org/2000/svg"
   xmlns="http://www.w3.org/2000/svg"
   xmlns:sodipodi="http://sodipodi.sourceforge.net/DTD/sodipodi-0.dtd"
   xmlns:inkscape="http://www.inkscape.org/namespaces/inkscape"
   id="svg2"
   viewBox="0 0 200 200"
   version="1.1"
   width="200"
   height="200"
   sodipodi:docname="painting.svg"
   inkscape:version="0.92.2 5c3e80d, 2017-08-06">
  <sodipodi:namedview
     pagecolor="#ffffff"
     bordercolor="#666666"
     borderopacity="1"
     objecttolerance="10"
     gridtolerance="10"
     guidetolerance="10"
     inkscape:pageopacity="0"
     inkscape:pageshadow="2"
     inkscape:window-width="1254"
     inkscape:window-height="741"
     id="namedview12"
     showgrid="true"
     inkscape:zoom="2.41"
     inkscape:cx="85.477178"
     inkscape:cy="100"
     inkscape:window-x="1"
     inkscape:window-y="0"
     inkscape:window-maximized="0"
     inkscape:current-layer="svg2">
    <inkscape:grid
       type="xygrid"
       id="grid14"
       spacingx="5"
       spacingy="5"
       empspacing="0"
       snapvisiblegridlinesonly="false" />
  </sodipodi:namedview>
  <metadata
     id="metadata14">
    <rdf:RDF>
      <cc:Work
         rdf:about="">
        <dc:format>image/svg+xml</dc:format>
        <dc:type
           rdf:resource="http://purl.org/dc/dcmitype/StillImage" />
        <dc:title></dc:title>
      </cc:Work>
    </rdf:RDF>
  </metadata>
  <defs
     id="defs12" />
  <g
     style="fill:#4e91e4"
     id="g4">
    <path
       style="opacity:0.1"
       d="m 60.071212,99.999331 c -6.761613,-0.09563 -6.761613,10.095629 0,9.999999 6.761613,-0.0956 6.761613,10.09563 0,10 l -20,0 c -6.761613,-0.0956 -6.761613,10.09563 0,10 l 25,0 c 6.761613,-0.0956 6.761613,10.09563 0,10 l -35,0 c -6.761613,-0.0956 -6.761613,10.09563 0,10 l 40.070312,0 c 6.761613,-0.0956 6.761613,10.09563 0,10 l -0.07031,0 c -6.761613,-0.0956 -6.761613,10.09563 0,10 l 29.999996,0 c 6.76161,0.0956 6.76161,-10.09563 0,-10 l -4.999996,0 c -6.761613,0.0956 -6.761613,-10.09563 0,-10 l 40.000006,0 c 6.76161,0.0956 6.76161,-10.09563 0,-10 l -5,0 c -6.76161,0.0956 -6.76161,-10.09563 0,-10 l 40,0 c 6.76161,0.0956 6.76161,-10.09563 0,-10 l -30,0 c -6.76161,0.0956 -6.76161,-10.09563 0,-10 l 10,0 c 6.76161,0.0956 6.76161,-10.095625 0,-9.999999 z m 94.999998,39.999999 c -6.76161,-0.0956 -6.76161,10.09563 0,10 l 5,0 c 6.76161,0.0956 6.76161,-10.09563 0,-10 z m -109.999998,20 c -6.761613,-0.0956 -6.761613,10.09563 0,10 l 10,0 c 6.761613,0.0956 6.761613,-10.09563 0,-10 z m 74.999998,0 c -6.76161,-0.0956 -6.76161,10.09563 0,10 l 1,0 c 6.76161,0.0956 6.76161,-10.09563 0,-10 z"
       id="path4169" />
    <path
       style="opacity:0.6"
       id="rect4282"
       d="m 134.88725,103.50004 0,2.99995 0.22559,0 c 1.68791,0 2.99995,1.31204 2.99995,2.99996 l 0,10.29173 c 0,1.68792 -1.31204,2.99996 -2.99995,2.99996 l -20.11309,0 -5.18547,0 -7.25672,0 c -2.22226,0 -4.05756,1.8353 -4.05756,4.05755 l 0,5.15081 2.99995,0 0,-5.15081 c 0,-0.61216 0.44544,-1.0576 1.05761,-1.0576 l 7.25672,0 5.18547,0 20.11309,0 c 3.298,0 5.99991,-2.7019 5.99991,-5.99991 l 0,-10.29173 c 0,-3.29801 -2.70191,-5.99991 -5.99991,-5.99991 z" />
    <path
       d="m 95,135 0,5 0,5 0,5 c 0,0 0,5 5,5 5,0 5,-5 5,-5 l 0,-5 0,-5 0,-5 c 0,0 0,-5 -5,-5 -5,0 -5,5 -5,5 z"
       id="path4279"
       style="fill:#546778;fill-opacity:1" />
    <path
       id="rect4262"
       d="m 70,95 60,0 c 2.493,0 5,2.507 5,5 l 0,10 c 0,2.493 -2.507,5 -5,5 l -60,0 c -2.493,0 -5,-2.507 -5,-5 l 0,-10 c 0,-2.493 2.507,-5 5,-5 z" />
    <path
       style="opacity:0.55"
       id="path4176"
       d="m 90,35 c -5,0 -5,5 -5,5 l 0,45 c 0,0 0,5 -5,5 -5,0 -5,-5 -5,-5 l 0,-35 c 0,0 0,-5 -5,-5 -5,0 -5,5 -5,5 l 0,50 70,0 0,-35 c 0,0 0,-5 -5,-5 -5,0 -5,5 -5,5 l 0,20 c 0,0 0,5 -5,5 -5,0 -5,-5 -5,-5 l 0,-35 c 0,0 0,-5 -5,-5 -5,0 -5,5 -5,5 l -0.50007,29.000337 c 0.0443,3.1299 -2.36056,4.64999 -4.695202,4.56027 -2.204526,-0.08472 -4.346458,-1.604809 -4.304661,-4.56027 L 95,40 c 0,0 0,-5 -5,-5 z" />
    <path
       id="path4225"
       d="m 80,15 c -5,0 -5,5 -5,5 l 0,5 c 0,0 0,5 5,5 5,0 5,-5 5,-5 l 0,-5 c 0,0 0,-5 -5,-5 z m 20,15 c -5,0 -5,5 -5,5 l 0,5 c 0,0 0,-5 -5,-5 -5,0 -5,5 -5,5 l 0,25 c 0,0 0.156231,5.002812 -5,5 -4.843769,-0.0026 -5,-5 -5,-5 l 0,-15 c 0,0 -0.172532,-5.030553 -5,-5 -5.172546,0.03274 -5,5 -5,5 l 0,50 70,0 0,-60 c 0,0 0,-5 -5,-5 -5,0 -5,5 -5,5 l 0,30 c 0,0 0,5 -5,5 -5,0 -5,-5 -5,-5 l 0,-20 c 0,0 0,-5 -5,-5 -5,0 -5,5 -5,5 l 0,-15 c 0,0 0,-5 -5,-5 z"
       style="opacity:0.4" />
  </g>
</svg>
