<?xml version="1.0" encoding="UTF-8" standalone="no"?>
<!-- Created with Inkscape (http://www.inkscape.org/) -->

<svg
   xmlns:dc="http://purl.org/dc/elements/1.1/"
   xmlns:cc="http://creativecommons.org/ns#"
   xmlns:rdf="http://www.w3.org/1999/02/22-rdf-syntax-ns#"
   xmlns:svg="http://www.w3.org/2000/svg"
   xmlns="http://www.w3.org/2000/svg"
   xmlns:sodipodi="http://sodipodi.sourceforge.net/DTD/sodipodi-0.dtd"
   xmlns:inkscape="http://www.inkscape.org/namespaces/inkscape"
   width="200"
   height="200"
   viewBox="0 0 52.916665 52.916668"
   version="1.1"
   id="svg954"
   inkscape:version="0.92.2 5c3e80d, 2017-08-06"
   sodipodi:docname="swatchbook.svg">
  <defs
     id="defs948" />
  <sodipodi:namedview
     id="base"
     pagecolor="#ffffff"
     bordercolor="#666666"
     borderopacity="1.0"
     inkscape:pageopacity="0.0"
     inkscape:pageshadow="2"
     inkscape:zoom="5.6"
     inkscape:cx="148.7542"
     inkscape:cy="133.71868"
     inkscape:document-units="px"
     inkscape:current-layer="svg954"
     showgrid="true"
     units="px"
     inkscape:window-width="1280"
     inkscape:window-height="755"
     inkscape:window-x="0"
     inkscape:window-y="1"
     inkscape:window-maximized="1">
    <inkscape:grid
       type="xygrid"
       id="grid956"
       spacingx="1.3229167"
       spacingy="1.3229167"
       snapvisiblegridlinesonly="false"
       empspacing="5" />
    <inkscape:grid
       type="xygrid"
       id="grid958"
       spacingx="0.66145833"
       spacingy="0.66145833"
       snapvisiblegridlinesonly="false"
       empspacing="0"
       color="#bd3f49"
       opacity="0.1254902"
       empcolor="#bd3f49"
       empopacity="0.1254902"
       enabled="false"
       visible="true" />
  </sodipodi:namedview>
  <metadata
     id="metadata951">
    <rdf:RDF>
      <cc:Work
         rdf:about="">
        <dc:format>image/svg+xml</dc:format>
        <dc:type
           rdf:resource="http://purl.org/dc/dcmitype/StillImage" />
        <dc:title></dc:title>
      </cc:Work>
    </rdf:RDF>
  </metadata>
  <g
     id="layer1"
     style="fill:#4e91e4">
    <path
       style="opacity:0.1"
       d="m 40,50 c 0,0 -5,-10e-7 -5,5 0,5.000001 5,5 5,5 h 5 c 0,0 5,3e-6 5,5 0,5.000001 -5,5 -5,5 H 25 c 0,0 -5,-10e-7 -5,5 0,5.000001 5,5 5,5 h 30 v 30 H 45 c 0,0 -5,0 -5,5 0,5 5,5 5,5 h 5 c 0,0 5,0 5,5 0,5 -5,5 -5,5 H 35 c 0,0 -5,0 -5,5 0,5 5,5 5,5 h 35 c 0,0 5,0 5,5 9.006431,0 18.008188,-8.11178 19.708984,-17.0293 0.139578,-0.87216 0.210235,-1.59701 0.248047,-2.11523 C 94.973657,125.57017 95,125.28556 95,125 V 85 l 20,-20 c 0,-4.999997 5,-5 5,-5 h 20 c 0,0 5,10e-7 5,-5 0,-5.000001 -5,-5 -5,-5 h -20 c 0,-4e-6 -20,-4e-6 -20,0 z m 35,95 c 0,5 -5,5 -5,5 H 45 c 0,0 -5,0 -5,5 0,5 5,5 5,5 h 45 c 0,0 5,0 5,5 0,5 -5,5 -5,5 H 75 c 0,0 -5,0 -5,5 0,5 5,5 5,5 h 75 c 0,0 5,0 5,-5 0,-5 -5,-5 -5,-5 h -15 c 0,0 -5,0 -5,-5 0,-5 5,-5 5,-5 h 10 c 0,0 5,0 5,-5 0,-5 -5,-5 -5,-5 h -25 c 0,0 -5,0 -5,-5 z m 55,-75 10,10 h 10 c 0,0 5,10e-7 5,-5 0,-5.000001 -5,-5 -5,-5 z M 20,90 c 0,0 -5,-10e-7 -5,5 0,4.999997 5,5 5,5 h 15 c 0,0 5,-3e-6 5,-5 0,-5.000001 -5,-5 -5,-5 z m 120,0 -15,15 h 15 c 0,-5.000005 5,-5 5,-5 h 30 c 0,0 5,-3e-6 5,-5 0,-5.000001 -5,-5 -5,-5 z m 8.75,20 c 1.25,2.5 1.25,5 1.25,5 v 5 h 10 c 0,0 5,0 5,-5 0,-5 -5,-5 -5,-5 z M 175,150 c 0,0 -5,0 -5,5 0,5 5,5 5,5 h 5 c 0,0 5,0 5,-5 0,-5 -5,-5 -5,-5 z"
       transform="scale(0.26458333)"
       id="path1658"
       inkscape:connector-curvature="0" />
    <path
       d="m 18.520834,15.874999 c 0,0 -1.322917,0 -1.322917,1.322916 0,1.322917 0,1.322917 0,1.322917 0,0 0,1.322917 1.322917,1.322917 1.322916,0 2.645833,0 2.645833,0 0,0 1.322917,0 1.322917,-1.322917 0,-1.322917 0,-1.322917 0,-1.322917 0,0 0,-1.322916 -1.322917,-1.322916 -1.322917,0 -2.645833,0 -2.645833,0 z"
       id="path1627"
       inkscape:connector-curvature="0"
       style="opacity:0.3" />
    <path
       d="m 18.520834,21.166666 c 0,0 -1.322917,0 -1.322917,1.322916 0,1.322917 0,1.322917 0,1.322917 0,0 0,1.322917 1.322917,1.322917 1.322916,0 2.645833,0 2.645833,0 0,0 1.322917,0 1.322917,-1.322917 0,-1.322917 0,-1.322917 0,-1.322917 0,0 0,-1.322916 -1.322917,-1.322916 -1.322917,0 -2.645833,0 -2.645833,0 z"
       id="path1638"
       inkscape:connector-curvature="0"
       style="opacity:0.3" />
    <path
       style="opacity:0.4;stroke-width:3.77952766"
       d="M 125 105 L 100 130 C 87.841434 141.86597 85.000003 145 75 145 L 140 145 C 140 145 150 145 150 135 L 150 115 C 150 115 150 105 140 105 L 125 105 z M 95 125 C 95 125 94.99407 126.18931 94.708984 127.9707 C 94.896613 126.98694 95 125.99357 95 125 z "
       transform="scale(0.26458333)"
       id="path1609" />
    <path
       d="M 26.458333,34.395833 37.041666,23.812499 c 0,0 1.322917,-1.322917 0,-2.645833 l -3.96875,-3.968751 c 0,0 -1.322916,-1.322916 -2.645833,0 l -5.291666,5.291667 v 10.583334 c 0,2.645833 -2.645833,5.291667 -5.291667,5.291667 2.645834,0 3.397629,-0.829213 6.614583,-3.96875 z"
       id="path1612"
       inkscape:connector-curvature="0"
       style="opacity:0.6" />
    <path
       style="stroke-width:3.77952766"
       d="M 65 50 C 65 50 55 49.999997 55 60 L 55 125 C 55 125 55.000002 145 75 145 C 95.000001 145 95 125 95 125 L 95 60 C 95 60 94.999999 50 85 50 L 65 50 z M 70 60 L 80 60 C 85.000001 60 85 65 85 65 L 85 70 C 85 75.000001 80 75 80 75 L 70 75 C 64.999999 75 65 70 65 70 L 65 65 C 65 60.000003 70 60 70 60 z M 70 80 L 80 80 C 85.000001 80 85 85 85 85 L 85 90 C 85 95.000001 80 95 80 95 L 70 95 C 64.999999 95 65 90 65 90 L 65 85 C 65 80.000003 70 80 70 80 z M 75 115 A 9.9999997 9.9999997 0 0 1 85 125 A 9.9999997 9.9999997 0 0 1 75 135 A 9.9999997 9.9999997 0 0 1 65 125 A 9.9999997 9.9999997 0 0 1 75 115 z "
       transform="scale(0.26458333)"
       id="path1602" />
  </g>
</svg>
